<?xml version="1.0" standalone="no"?>
<!DOCTYPE svg PUBLIC "-//W3C//DTD SVG 1.1//EN" "http://www.w3.org/Graphics/SVG/1.1/DTD/svg11.dtd" >
<svg xmlns="http://www.w3.org/2000/svg" xmlns:xlink="http://www.w3.org/1999/xlink" version="1.1">
<metadata>
Created by FontForge 20170731 at Fri Sep  9 19:16:20 2022
 By Aleksey,,,
Copyright (c) 2019 by Dieter Hofrichter. Alle Rechte vorbehalten.
</metadata>
<defs>
<font id="Askan-Italic" horiz-adv-x="794" >
  <font-face 
    font-family="Askan"
    font-weight="400"
    font-style="italic"
    font-stretch="normal"
    units-per-em="2048"
    panose-1="2 0 5 3 7 0 0 9 0 4"
    ascent="1536"
    descent="-512"
    x-height="1034"
    cap-height="1384"
    bbox="-315 -555 2503 1937"
    underline-thickness="102"
    underline-position="-307"
    slope="-11"
    unicode-range="U+000D-FB06"
  />
<missing-glyph horiz-adv-x="1132" 
d="M4 0v1565h1118v-1565h-1118zM561 881l383 571h-760zM631 782l381 -569v1139zM184 113h760l-383 567zM117 1352v-1139l377 569z" />
    <glyph glyph-name="f_f" unicode="ff" horiz-adv-x="1245" 
d="M-242 -248l78 8q16 -66 37 -106q16 -33 53 -33q67 0 113 74q51 76 104 348l160 846h-160l21 82l84 20q77 18 94 82q40 149 82.5 220.5t118.5 115.5q84 49 225 49q70 0 121 -22q10 -23 10 -74q0 -77 -8 -156l-82 -6q-18 87 -37 129q-12 24 -29 32.5t-49 8.5
q-79 0 -129 -84q-27 -50 -61 -244l-8 -49h370q73 0 88 80q32 152 83 240.5t132 134.5q85 51 215 51q70 0 121 -22q8 -19 8 -74q0 -97 -6 -156l-84 -6q-15 87 -34 129q-12 24 -30 32.5t-50 8.5q-36 0 -69 -23t-54 -61q-27 -49 -70 -285l-8 -49h205l-27 -104h-201l-157 -799
q-63 -317 -189 -434q-47 -44 -114 -69t-140 -25q-74 0 -102 12q-18 78 -18 209l77 8q16 -66 37 -106q18 -33 62 -33q63 0 114 74q60 93 109 346l154 817h-445l-164 -830q-30 -149 -78 -263t-106 -169q-47 -44 -113.5 -70t-132.5 -26q-74 0 -102 12q-19 72 -19 209z" />
    <glyph glyph-name="fi" unicode="fi" horiz-adv-x="1189" 
d="M-242 -248l78 8q16 -66 37 -106q16 -33 53 -33q64 0 113 74q54 78 104 346l160 848h-160l21 82l84 20q37 9 62.5 32.5t33.5 53.5q40 148 94.5 231t136.5 132q95 57 283 57q38 0 98.5 -8t87.5 -19q13 -23 13 -73q0 -109 -8 -185l-105 -8q-22 133 -41 162
q-15 24 -42.5 34.5t-80.5 10.5q-59 0 -105 -26.5t-73 -63.5q-55 -69 -92 -281l-8 -47h342q139 42 266 45q-17 -68 -63 -276l-105 -481q-16 -85 -16 -129q0 -21 8 -31t29 -10q31 0 143 32l-16 -67q-80 -48 -158 -73.5t-131 -25.5q-35 0 -49.5 15t-14.5 53q0 46 21 141l96 453
q35 179 35 201q0 27 -18 38t-70 11h-322l-160 -811q-67 -338 -190 -451q-47 -44 -114 -70t-136 -26q-74 0 -102 12q-19 72 -19 209z" />
    <glyph glyph-name="fl" unicode="fl" horiz-adv-x="1185" 
d="M-242 -248l78 8q16 -66 37 -106q16 -33 53 -33q64 0 113 74q51 76 104 346l162 848h-162l21 82l84 20q37 9 61.5 31.5t32.5 52.5q48 170 101 248t135 123q95 53 266 53q80 0 194 -24q70 20 119 20q30 0 40.5 -6.5t10.5 -30.5q0 -9 -11 -58.5t-31 -136.5t-29 -126
l-187 -842q-20 -95 -20 -141q0 -22 9 -31.5t30 -9.5q51 0 143 30l-14 -67q-83 -48 -160 -73.5t-129 -25.5q-36 0 -52 16.5t-16 55.5q0 38 21 141l194 918q39 190 39 215q0 38 -41 59q-56 29 -133 29q-159 0 -227 -100q-51 -68 -86 -264l-8 -54h205l-25 -104h-201l-164 -826
q-66 -330 -186 -438q-48 -43 -114 -68.5t-136 -25.5q-74 0 -102 12q-19 72 -19 209z" />
    <glyph glyph-name="f_f_i" unicode="ffi" horiz-adv-x="1814" 
d="M-242 -248l78 8q16 -66 37 -106q16 -33 53 -33q67 0 113 74q51 76 104 346l160 848h-160l19 76l86 20q37 9 61.5 31.5t32.5 52.5q39 148 82.5 222t120.5 118q81 49 223 49q70 0 121 -22q10 -23 10 -74q0 -77 -8 -156l-82 -6q-18 87 -37 129q-12 24 -29 32.5t-49 8.5
q-79 0 -129 -84q-30 -55 -63 -246l-8 -53h370q42 0 61.5 22t28.5 60q39 148 95.5 236t138.5 135q94 57 282 57q39 0 100.5 -8t88.5 -19q10 -23 10 -73q0 -109 -8 -185l-105 -8q-22 128 -38 158q-16 25 -43.5 37t-81.5 12q-60 0 -109.5 -27t-75.5 -63q-52 -65 -92 -281
l-8 -47h362q138 42 265 45q-49 -203 -80 -348l-86 -418q-19 -101 -19 -120q0 -21 8.5 -31t30.5 -10q32 0 144 32l-17 -67q-82 -49 -159.5 -74t-131.5 -25q-35 0 -49 15t-14 53q0 31 22 139l97 455q35 175 35 201q0 27 -18.5 38t-72.5 11h-340l-155 -793q-64 -326 -191 -440
q-47 -42 -118 -68t-136 -26q-74 0 -102 12q-18 78 -18 209l77 8q16 -66 37 -106q18 -33 62 -33q63 0 114 74q60 93 109 346l154 817h-445l-166 -834q-30 -148 -78 -261.5t-106 -166.5q-103 -96 -244 -96q-74 0 -102 12q-19 72 -19 209z" />
    <glyph glyph-name="f_f_l" unicode="ffl" horiz-adv-x="1800" 
d="M-242 -248l78 8q16 -66 37 -106q16 -33 53 -33q67 0 113 74q51 76 104 346l160 848h-160l21 82l84 20q38 9 62 30.5t32 51.5q40 150 83 222t120 116q78 47 219 47q74 0 125 -22q10 -23 10 -74q0 -77 -8 -156l-82 -6q-18 87 -37 129q-12 24 -29 32.5t-49 8.5
q-73 0 -123 -84q-36 -67 -67 -244l-8 -49h370q40 0 59.5 21t30.5 59q30 116 68 191.5t75.5 113.5t92.5 68q95 53 268 53q77 0 191 -24q70 20 121 20q30 0 40.5 -6.5t10.5 -30.5q0 -6 -72 -321l-186 -842q-21 -100 -21 -141q0 -22 8 -31.5t31 -9.5q49 0 143 30l-16 -67
q-172 -99 -289 -99q-35 0 -50 16t-15 56q0 53 18 141l197 914q37 185 37 213q0 43 -39 65q-50 29 -135 29q-161 0 -232 -102q-51 -68 -86 -265l-8 -51h205l-25 -104h-203l-155 -789q-35 -179 -81.5 -282.5t-109.5 -161.5q-45 -42 -115.5 -68t-138.5 -26q-74 0 -102 12
q-18 78 -18 209l77 8q16 -66 37 -106q18 -33 62 -33q63 0 114 74q60 93 109 346l154 817h-445l-166 -836q-29 -148 -77.5 -260.5t-106.5 -167.5q-48 -43 -112.5 -68.5t-131.5 -25.5q-74 0 -102 12q-19 72 -19 209z" />
    <glyph glyph-name="f_b" unicode="fb" horiz-adv-x="1701" 
d="M-242 -248l78 8q16 -66 37 -106q16 -33 53 -33q67 0 113 74q51 76 104 346l160 848h-160l21 82l82 18q36 7 62 32.5t34 55.5q33 116 70 190.5t74.5 111.5t91.5 67q95 53 270 53q76 0 190 -24q70 20 119 20q30 0 40.5 -6.5t10.5 -30.5q0 -31 -69 -319q-85 -368 -158 -647
q111 221 279 401q56 60 128 100.5t130 40.5q74 0 106.5 -44t32.5 -154q0 -158 -59.5 -357.5t-141.5 -306.5q-77 -99 -169.5 -149t-235.5 -50q-99 0 -191.5 17t-144.5 41l241 1071q39 182 39 221q0 38 -41 59q-56 29 -133 29q-159 0 -227 -100q-50 -67 -86 -267l-8 -51h205
l-25 -104h-201l-166 -830q-66 -323 -184 -434q-47 -44 -113.5 -69t-136.5 -25q-74 0 -102 12q-19 72 -19 209zM903 102q57 -34 195 -34q68 0 127.5 40t99.5 119q61 121 105.5 288t44.5 276q0 61 -17 83.5t-47 22.5q-29 0 -76.5 -32t-93.5 -83q-35 -40 -58 -68.5t-67.5 -95
t-77 -132.5t-70.5 -168t-65 -216z" />
    <glyph glyph-name="f_f_b" unicode="ffb" horiz-adv-x="2314" 
d="M-242 -248l78 8q16 -66 37 -106q16 -33 53 -33q67 0 113 74q51 76 104 346l160 848h-160l21 82l84 20q38 9 62 30.5t32 51.5q38 148 81.5 221t119.5 117q80 47 215 47q80 0 131 -22q10 -23 10 -74q0 -77 -8 -156l-82 -6q-18 87 -37 129q-12 24 -29 32.5t-49 8.5
q-73 0 -123 -84q-24 -44 -61 -244l-10 -49h364q42 0 61.5 19.5t28.5 56.5q41 168 97 249.5t141 127.5q95 53 268 53q81 0 191 -24q70 20 121 20q30 0 40.5 -6.5t10.5 -30.5q0 -9 -11.5 -59.5t-31 -133t-29.5 -126.5q-78 -339 -156 -647q112 229 279 399q63 63 131 103
t127 40q74 0 105.5 -44t31.5 -154q0 -158 -59.5 -357.5t-141.5 -306.5q-75 -99 -167.5 -149t-235.5 -50q-99 0 -192.5 17t-145.5 41l244 1073q39 182 39 219q0 36 -41 59q-56 29 -133 29q-158 0 -230 -100q-50 -77 -84 -267l-10 -51h205l-23 -104h-202l-156 -795
q-64 -324 -191 -438q-47 -44 -117 -69t-143 -25q-74 0 -102 12q-18 78 -18 209l77 8q16 -66 37 -106q18 -33 62 -33q63 0 114 74q60 93 109 346l154 817h-439l-166 -832q-31 -149 -78.5 -264t-105.5 -166q-48 -44 -115 -70t-135 -26q-74 0 -102 12q-19 72 -19 209zM1516 102
q57 -34 194 -34q147 0 227 159q61 120 105.5 287t44.5 277q0 61 -16.5 83.5t-47.5 22.5q-28 0 -76.5 -32.5t-91.5 -82.5q-44 -49 -77 -93t-85.5 -128t-98 -201.5t-78.5 -257.5z" />
    <glyph glyph-name="f_f_h" unicode="ffh" horiz-adv-x="2326" 
d="M-242 -248l78 8q16 -66 37 -106q16 -33 53 -33q67 0 113 74q51 76 104 346l160 848h-160l21 82l84 20q38 9 62 30.5t32 51.5q40 149 82.5 221.5t118.5 116.5q84 47 221 47q74 0 125 -22q10 -23 10 -74q0 -77 -8 -156l-82 -6q-18 87 -37 129q-12 24 -29 32.5t-49 8.5
q-77 0 -123 -84q-29 -60 -61 -244l-8 -49h364q40 0 59.5 21t30.5 59q44 167 98.5 246t137.5 125q98 55 264 55q81 0 195 -24q70 20 121 20q30 0 40.5 -6.5t10.5 -30.5q0 -9 -11.5 -59t-31 -131.5t-29.5 -126.5q-59 -258 -180 -713q67 156 154.5 283.5t179.5 210.5
q53 48 114.5 80t116.5 32q47 0 72.5 -21.5t25.5 -78.5q0 -54 -39 -246l-88 -424q-16 -88 -16 -112q0 -21 8 -31t31 -10q45 0 143 32l-16 -65q-70 -46 -153 -73.5t-134 -27.5q-37 0 -51 15t-14 53q0 44 24 152l94 438q31 159 31 199q0 22 -9 31t-32 9q-70 0 -168 -106
q-47 -52 -85.5 -104.5t-90.5 -143.5t-98.5 -223.5t-81.5 -296.5h-168l250 1104q39 178 39 219q0 36 -41 59q-56 29 -133 29q-158 0 -230 -100q-50 -77 -84 -267l-8 -51h205l-25 -104h-202l-154 -787q-63 -323 -193 -446q-46 -42 -120 -68t-140 -26q-74 0 -102 12
q-18 78 -18 209l77 8q16 -66 37 -106q18 -33 62 -33q63 0 114 74q60 93 109 346l154 817h-439l-166 -830q-31 -154 -79 -267t-105 -167q-47 -42 -116 -68t-134 -26q-74 0 -102 12q-19 72 -19 209z" />
    <glyph glyph-name="f_f_j" unicode="ffj" horiz-adv-x="1816" 
d="M-242 -248l78 8q16 -66 37 -106q16 -33 53 -33q67 0 113 74q51 76 104 346l160 848h-160l21 82l84 20q38 9 62 30.5t32 51.5q40 149 82.5 221.5t118.5 116.5q80 47 225 47q70 0 121 -22q10 -23 10 -74q0 -77 -8 -156l-82 -6q-18 87 -37 129q-12 24 -29 32.5t-49 8.5
q-73 0 -123 -84q-27 -49 -61 -244l-8 -49h364q71 0 90 80q39 148 94.5 234t137.5 133q94 57 282 57q39 0 100.5 -8t88.5 -19q10 -23 10 -73q0 -104 -8 -185l-105 -8q-16 115 -43 160q-18 25 -44 36t-76 11q-107 0 -179 -90q-63 -83 -92 -281l-8 -47h356q149 48 267 51
q-26 -116 -88 -452l-93 -479q-26 -137 -78 -251t-112 -169q-47 -46 -120 -73.5t-154 -27.5q-79 0 -109 13q-18 78 -18 205l75 8q19 -71 39 -107q17 -30 66 -30q78 0 129 75q26 39 58 130t57 225l94 510q30 169 30 217q0 28 -18 39.5t-70 11.5h-333l-158 -797
q-64 -326 -189 -444q-49 -44 -121 -69t-145 -25q-70 0 -102 14q-19 80 -19 205l78 8q20 -69 39 -105q16 -30 60 -30q70 0 116 71q61 88 111 346l153 826h-436l-162 -819q-32 -157 -81.5 -273t-106.5 -170q-47 -44 -114 -70t-136 -26q-74 0 -102 12q-19 72 -19 209z" />
    <glyph glyph-name="f_f_k" unicode="ffk" horiz-adv-x="2242" 
d="M-242 -248l78 8q16 -66 37 -106q16 -33 53 -33q67 0 113 74q51 76 104 346l160 848h-160l19 82l86 20q78 18 94 80q39 148 82 222t119 118q84 47 221 47q74 0 125 -22q10 -23 10 -74q0 -77 -8 -156l-82 -6q-18 87 -37 129q-12 24 -29 32.5t-49 8.5q-77 0 -123 -84
q-29 -60 -61 -244l-8 -49h362q43 0 62.5 18t27.5 54q41 169 97.5 252t140.5 129q95 53 264 53q81 0 195 -24q70 20 121 20q30 0 40.5 -6.5t10.5 -30.5q0 -17 -70 -309q-38 -163 -168 -686q57 127 152 249.5t194 202.5q145 119 275 119q27 0 35 -2q8 -16 8 -53q0 -58 -17 -92
q-31 8 -71 8q-190 0 -344 -193q35 -115 94.5 -268t91.5 -215q30 -59 53 -84.5t58 -25.5q52 0 122 28l-14 -67q-153 -93 -237 -93q-62 0 -97 72q-50 101 -106 257.5t-82 266.5q-55 -71 -111 -219t-100 -354h-168l250 1104q39 178 39 217q0 36 -41 59q-56 29 -133 29
q-159 0 -230 -102q-52 -76 -86 -263l-8 -51h205l-23 -104h-202l-154 -785q-67 -332 -199 -456q-45 -41 -115.5 -63.5t-138.5 -22.5q-74 0 -102 12q-18 78 -18 209l77 8q16 -66 37 -106q18 -33 62 -33q63 0 114 74q60 93 109 346l154 817h-437l-166 -817q-68 -338 -186 -447
q-104 -94 -250 -94q-74 0 -102 12q-19 72 -19 209z" />
    <glyph glyph-name="f_h" unicode="fh" horiz-adv-x="1714" 
d="M-242 -248l78 8q16 -66 37 -106q16 -33 53 -33q67 0 113 74q51 76 104 346l160 848h-160l21 82l84 20q74 17 94 82q48 171 101 249.5t135 123.5q95 53 266 53q80 0 194 -24q70 20 119 20q30 0 40.5 -6.5t10.5 -30.5q0 -33 -71 -319q-111 -463 -179 -711
q67 157 154.5 284.5t179.5 209.5q53 48 114.5 80t115.5 32q48 0 73 -21.5t25 -78.5q0 -64 -37 -234l-88 -436q-16 -79 -16 -112q0 -21 7 -31t30 -10q45 0 143 32l-17 -65q-69 -46 -152 -73.5t-134 -27.5q-37 0 -51.5 15t-14.5 53q0 15 25 143l96 459q31 143 31 187
q0 22 -9.5 31t-31.5 9q-73 0 -168 -106q-49 -54 -86.5 -105.5t-90 -143t-98.5 -223.5t-81 -296h-168l247 1104q39 182 39 217q0 40 -41 61q-56 29 -133 29q-159 0 -227 -100q-50 -67 -86 -267l-8 -51h205l-25 -104h-201l-166 -834q-64 -322 -184 -430q-48 -43 -114 -68.5
t-136 -25.5q-74 0 -102 12q-19 72 -19 209z" />
    <glyph glyph-name="f_j" unicode="fj" horiz-adv-x="1202" 
d="M-242 -248l78 8q16 -66 37 -106q16 -33 53 -33q67 0 113 74q51 76 104 346l160 848h-160l21 82l84 20q77 18 94 80q40 149 95.5 234.5t137.5 134.5q95 57 283 57q38 0 98.5 -8t87.5 -19q13 -23 13 -73q0 -104 -8 -185l-105 -8q-20 116 -41 156q-28 51 -119 51
q-117 0 -182 -90q-55 -68 -92 -281l-8 -47h354q138 42 266 45q-16 -66 -82 -413l-102 -535q-58 -305 -184 -424q-49 -45 -123 -72.5t-156 -27.5q-74 0 -106 14q-19 80 -19 201l76 8q20 -70 39 -102q20 -33 65 -33q75 0 129 78q64 94 111 344l100 551q31 178 31 213
q0 27 -18 38t-70 11h-334l-164 -821q-68 -338 -188 -443q-108 -94 -248 -94q-74 0 -102 12q-19 72 -19 209z" />
    <glyph glyph-name="f_k" unicode="fk" horiz-adv-x="1628" 
d="M-242 -248l78 8q16 -66 37 -106q16 -33 53 -33q67 0 113 74q51 76 104 346l162 848h-162l21 82l84 20q76 18 96 84q33 116 69.5 190t73.5 112.5t91 68.5q95 53 266 53q80 0 194 -24q70 20 119 20q30 0 40.5 -6.5t10.5 -30.5q0 -27 -69 -315q-57 -247 -168 -680
q57 125 152.5 247.5t195.5 204.5q146 119 274 119q25 0 33 -2q8 -16 8 -53q0 -55 -14 -92q-33 8 -72 8q-190 0 -344 -193q32 -110 91.5 -261.5t93.5 -221.5q29 -59 52.5 -84.5t59.5 -25.5q53 0 123 28l-16 -67q-150 -93 -238 -93q-61 0 -96 72q-49 100 -105 256t-84 268
q-56 -72 -111.5 -220t-96.5 -353h-170l249 1104q39 182 39 219q0 38 -41 59q-56 29 -133 29q-159 0 -227 -100q-50 -67 -86 -267l-8 -51h205l-25 -104h-201l-168 -836q-65 -323 -182 -428q-48 -43 -114 -68.5t-136 -25.5q-74 0 -102 12q-19 72 -19 209z" />
    <glyph glyph-name="uni0162_h" unicode="&#x162;h" horiz-adv-x="2203" 
d="M332 -555l4 63q47 8 80.5 15.5t69 21.5t57 31.5t35.5 44.5t14 62q0 46 -39.5 76t-110.5 30l99 211h-209l14 76l64 8q56 7 75.5 24.5t28.5 65.5l215 1108h-227q-65 0 -94.5 -21t-53.5 -79l-45 -107l-88 4q47 256 76 305h1102q169 82 248 82q28 0 36.5 -6.5t8.5 -29.5
q0 -13 -28.5 -138.5t-53.5 -226.5q-87 -363 -162 -637q67 156 154.5 283.5t179.5 210.5q53 48 114.5 80t116.5 32q47 0 72.5 -21.5t25.5 -78.5q0 -62 -38 -246l-86 -414q-19 -97 -19 -122q0 -21 8 -31t31 -10q45 0 143 32l-16 -65q-70 -46 -153 -73.5t-134 -27.5
q-37 0 -51 15t-14 53q0 32 24 145l95 449q30 135 30 195q0 22 -9 31t-32 9q-70 0 -168 -106q-47 -52 -85.5 -104.5t-90.5 -143.5t-98.5 -223.5t-81.5 -296.5h-168l238 1044q28 124 28 170q0 37 -23.5 52.5t-92.5 15.5h-426l-211 -1079q-9 -41 -9 -62q0 -26 17 -38.5
t61 -18.5l74 -8l-14 -76h-228l-57 -125q92 -6 139 -53t47 -111q0 -66 -31.5 -116t-88.5 -81t-128.5 -47.5t-160.5 -21.5z" />
    <glyph glyph-name="uni021A_h" unicode="&#x21a;h" horiz-adv-x="2203" 
d="M840 0h-508l14 76l64 8q56 7 75.5 24.5t28.5 65.5l215 1108h-227q-65 0 -94.5 -21t-53.5 -79l-45 -107l-88 4q47 256 76 305h1102q169 82 248 82q28 0 36.5 -6.5t8.5 -29.5q0 -13 -28.5 -138.5t-53.5 -226.5q-87 -363 -162 -637q67 156 154.5 283.5t179.5 210.5
q53 48 114.5 80t116.5 32q47 0 72.5 -21.5t25.5 -78.5q0 -62 -38 -246l-86 -414q-19 -97 -19 -122q0 -21 8 -31t31 -10q45 0 143 32l-16 -65q-70 -46 -153 -73.5t-134 -27.5q-37 0 -51 15t-14 53q0 32 24 145l95 449q30 135 30 195q0 22 -9 31t-32 9q-70 0 -168 -106
q-47 -52 -85.5 -104.5t-90.5 -143.5t-98.5 -223.5t-81.5 -296.5h-168l238 1044q28 124 28 170q0 37 -23.5 52.5t-92.5 15.5h-426l-211 -1079q-9 -41 -9 -62q0 -26 17 -38.5t61 -18.5l74 -8zM426 -535l-78 27q123 184 156 389h145q-16 -109 -82 -225.5t-141 -190.5z" />
    <glyph glyph-name=".notdef" horiz-adv-x="1132" 
d="M4 0v1565h1118v-1565h-1118zM561 881l383 571h-760zM631 782l381 -569v1139zM184 113h760l-383 567zM117 1352v-1139l377 569z" />
    <glyph glyph-name=".null" horiz-adv-x="0" 
 />
    <glyph glyph-name="nonmarkingreturn" horiz-adv-x="682" 
 />
    <glyph glyph-name="NULL" horiz-adv-x="0" 
 />
    <glyph glyph-name="NULL" horiz-adv-x="0" 
 />
    <glyph glyph-name="CR" unicode="&#xd;" horiz-adv-x="493" 
 />
    <glyph glyph-name="space" unicode=" " horiz-adv-x="493" 
 />
    <glyph glyph-name="exclam" unicode="!" horiz-adv-x="606" 
d="M414 463h-113q22 177 43.5 336.5t36.5 262.5t26.5 179.5t18 115t6.5 42.5q46 14 109 14q50 0 104 -16q-3 -22 -22.5 -111.5t-75.5 -312.5t-133 -510zM424 117q0 -58 -36 -95.5t-95 -37.5q-50 0 -83.5 29.5t-33.5 82.5q0 64 39.5 100.5t91.5 36.5q48 0 82.5 -30t34.5 -86z
" />
    <glyph glyph-name="quotedbl" unicode="&#x22;" horiz-adv-x="684" 
d="M319 885h-86q12 192 74 542h154q-68 -312 -142 -542zM633 885h-86q12 192 74 542h153q-70 -322 -141 -542z" />
    <glyph glyph-name="numbersign" unicode="#" horiz-adv-x="1191" 
d="M313 -23h-77l129 441h-218l17 135h242l71 246h-235l16 135h260l119 399h78l-119 -399h307l119 399h78l-119 -399h213l-14 -135h-240l-72 -246h234l-17 -135h-258l-129 -441h-77l129 441h-308zM555 799l-72 -246h308l71 246h-307z" />
    <glyph glyph-name="dollar" unicode="$" horiz-adv-x="1097" 
d="M498 -209h-88l36 193q-192 7 -307 77q-18 66 -18 299l94 11l16 -64q16 -68 38.5 -110t62.5 -68q53 -35 135 -41l100 512l-69 43q-120 69 -173 149t-53 175q0 175 118.5 275t322.5 114l28 145h88l-28 -143q183 -8 280 -49q4 -24 4 -47q0 -104 -24 -236l-88 -4l-4 45
q-6 59 -17.5 90t-36.5 53q-45 39 -133 45l-98 -503l72 -41q121 -72 178 -148.5t57 -175.5q0 -125 -62 -214.5t-162.5 -134.5t-231.5 -52zM815 328q0 57 -35 109t-135 116l-90 -467q119 8 189.5 67.5t70.5 174.5zM444 1018q0 -65 33.5 -113t126.5 -106l88 456
q-116 -9 -182 -67.5t-66 -169.5z" />
    <glyph glyph-name="percent" unicode="%" horiz-adv-x="1742" 
d="M848 1051q0 -123 -43.5 -254.5t-128.5 -214.5q-103 -103 -256 -103q-129 0 -196.5 73t-67.5 216q0 123 43.5 254.5t132.5 212.5q107 96 256 96q260 0 260 -280zM711 1075q0 100 -36.5 141t-103.5 41q-90 0 -153 -81q-59 -73 -91 -201t-32 -232q0 -192 137 -192
q99 0 162 88q55 78 86 206.5t31 229.5zM559 -10h-92l836 1331h90zM1716 557q0 -124 -43 -255t-129 -214q-102 -102 -256 -102q-129 0 -196.5 72.5t-67.5 215.5q0 124 44 255t134 212q108 97 256 97q258 0 258 -281zM1581 582q0 100 -37 141t-104 41q-91 0 -154 -82
q-59 -73 -91 -200.5t-32 -231.5q0 -193 140 -193q93 0 159 88q57 78 88 207t31 230z" />
    <glyph glyph-name="ampersand" unicode="&#x26;" horiz-adv-x="1511" 
d="M1382 -35q-246 12 -387 160q-189 -152 -442 -152q-191 0 -306.5 103t-115.5 264q0 86 28 154t84 120.5t130.5 91t177.5 72.5q-76 149 -76 262q0 184 123 277.5t334 93.5q74 0 160.5 -13.5t128.5 -31.5q4 -16 4 -53q0 -120 -21 -246l-96 -4l-8 74q-10 88 -56 129
q-47 41 -139 41q-113 0 -186.5 -59.5t-73.5 -176.5q0 -90 74 -244q60 -125 153.5 -268.5t182.5 -255.5q38 35 87 105t77 129q24 55 24 90q0 22 -18.5 35t-61.5 20l-65 10l18 76h426l-18 -76l-43 -8q-46 -8 -72 -31q-14 -14 -47 -71q-44 -79 -75 -130t-78 -115t-91 -104
q45 -59 124.5 -112t162.5 -74zM918 195q-219 272 -324 501q-135 -57 -203.5 -132.5t-68.5 -186.5q0 -128 81.5 -208.5t223.5 -80.5q158 0 291 107z" />
    <glyph glyph-name="quotesingle" unicode="'" horiz-adv-x="372" 
d="M319 885h-86q12 192 74 542h154q-68 -312 -142 -542z" />
    <glyph glyph-name="parenleft" unicode="(" horiz-adv-x="643" 
d="M492 -340h-111q-101 106 -170.5 290t-69.5 406q0 681 570 1110h123q-64 -59 -115.5 -111t-110.5 -122t-103 -137.5t-87 -153t-70.5 -174t-44 -196t-16.5 -222.5q0 -204 57.5 -385.5t147.5 -304.5z" />
    <glyph glyph-name="parenright" unicode=")" horiz-adv-x="643" 
d="M236 1466h110q101 -107 170.5 -291t69.5 -405q0 -682 -574 -1110h-123q65 59 116.5 111t110.5 122t103.5 137.5t87.5 153t70.5 174t44 196t16.5 222.5q0 204 -57 385.5t-145 304.5z" />
    <glyph glyph-name="asterisk" unicode="*" horiz-adv-x="858" 
d="M930 1157l22 -123q-137 -20 -319 -28q78 -115 162 -275l-111 -55q-75 147 -127 291q-91 -118 -211 -238l-86 86q128 131 234 209q-125 48 -283 129l57 111q151 -78 277 -162q0 154 22 311l123 -14q-18 -118 -72 -312q142 44 312 70z" />
    <glyph glyph-name="plus" unicode="+" horiz-adv-x="1359" 
d="M702 68h-122l88 452h-432l24 117h432l88 450h125l-88 -450h428l-24 -117h-428z" />
    <glyph glyph-name="comma" unicode="," horiz-adv-x="409" 
d="M23 -305l-101 43q68 97 121.5 233t73.5 273h172q-28 -156 -99 -302.5t-167 -246.5z" />
    <glyph glyph-name="hyphen" unicode="-" horiz-adv-x="612" 
d="M578 500h-474l27 131h471z" />
    <glyph glyph-name="period" unicode="." horiz-adv-x="428" 
d="M293 117q0 -58 -36 -95.5t-95 -37.5q-49 0 -81 29.5t-32 82.5q0 64 39 100.5t90 36.5q48 0 81.5 -29.5t33.5 -86.5z" />
    <glyph glyph-name="slash" unicode="/" horiz-adv-x="720" 
d="M25 -190h-111l856 1658h109z" />
    <glyph glyph-name="zero" unicode="0" horiz-adv-x="1163" 
d="M1167 911q0 -115 -24 -248.5t-84.5 -280t-145.5 -237.5q-156 -172 -401 -172q-187 0 -288 111.5t-101 327.5q0 119 25 252t85.5 272.5t145.5 228.5q163 172 405 172q192 0 287.5 -108.5t95.5 -317.5zM983 954q0 287 -221 287q-160 0 -262 -147q-86 -127 -137.5 -345.5
t-51.5 -381.5q0 -295 224 -295q150 0 249 139q91 127 145 356t54 387z" />
    <glyph glyph-name="one" unicode="1" horiz-adv-x="1163" 
d="M795 0h-539l14 76l88 10q57 6 79.5 25t31.5 67l178 926q4 20 4 33q0 20 -9 26t-32 6q-74 0 -147 -6l18 88l400 88q-19 -88 -64 -317l-160 -827q-8 -40 -8 -56q0 -24 16 -35.5t58 -17.5l84 -10z" />
    <glyph glyph-name="two" unicode="2" horiz-adv-x="1163" 
d="M18 0l21 102q235 155 534 398q61 51 107.5 98.5t90.5 108t67.5 130.5t23.5 144q0 99 -61 162t-183 63q-88 0 -164 -15t-163 -58l14 106q161 100 385 100q184 0 278.5 -86.5t94.5 -230.5q0 -88 -26.5 -167t-80 -151t-120.5 -135.5t-162 -134.5q-211 -158 -436 -299h503
q61 0 92 10t48 35q37 53 59 109l16 45l91 -6q-45 -248 -84 -328h-945z" />
    <glyph glyph-name="three" unicode="3" horiz-adv-x="1163" 
d="M74 47l22 127q166 -72 342 -72q72 0 135 16t115 49t82.5 90t30.5 132q0 81 -49.5 143.5t-159.5 81.5q-68 11 -146 11h-49l19 110h49q71 0 153 21q222 58 222 256q0 91 -53.5 144.5t-170.5 53.5q-143 0 -315 -73l16 108q180 94 373 94q169 0 256.5 -77t87.5 -205
q0 -280 -358 -363q151 -10 235 -88.5t84 -202.5q0 -138 -74.5 -237t-197 -146t-279.5 -47q-225 0 -370 74z" />
    <glyph glyph-name="four" unicode="4" horiz-adv-x="1163" 
d="M985 0h-506l15 76l69 10q63 8 83.5 24t29.5 66l37 197h-613l17 82l809 874h159q-9 -47 -32.5 -157.5t-30.5 -145.5l-102 -537h198l-24 -118h-199l-35 -181q-8 -32 -8 -55t16.5 -33.5t57.5 -15.5l71 -10zM735 489q88 464 131 648q-68 -85 -581 -648h450z" />
    <glyph glyph-name="five" unicode="5" horiz-adv-x="1163" 
d="M106 47l25 129q148 -74 326 -74q166 0 266 95t100 256q0 109 -65 176t-211 67q-112 0 -254 -43l172 660h645l-27 -144h-546l-101 -385q91 35 205 35q191 0 286 -93.5t95 -244.5q0 -231 -153 -369.5t-410 -138.5q-107 0 -200.5 22.5t-152.5 51.5z" />
    <glyph glyph-name="six" unicode="6" horiz-adv-x="1163" 
d="M1135 1151q-118 59 -248 59q-201 0 -316 -141q-109 -133 -174 -389q52 67 149 109t208 42q157 0 245 -87t88 -240q0 -106 -33.5 -201t-96.5 -169t-165 -117.5t-229 -43.5q-81 0 -149.5 25t-123 75.5t-85.5 136t-31 196.5q0 201 76 424t213 352q88 81 190.5 119t247.5 38
q63 0 138 -15.5t120 -47.5zM385 618q-27 -153 -27 -258q0 -127 55 -208.5t173 -81.5q133 0 217 104q46 59 71 141.5t25 167.5q0 51 -11 92.5t-34.5 76.5t-67 54t-102.5 19q-148 0 -299 -107z" />
    <glyph glyph-name="seven" unicode="7" horiz-adv-x="1163" 
d="M446 -35h-155l751 1206h-507q-51 0 -77 -10.5t-46 -30.5q-37 -43 -66 -118l-16 -41l-92 8q8 55 38.5 172t55.5 162h870l-18 -96z" />
    <glyph glyph-name="eight" unicode="8" horiz-adv-x="1163" 
d="M799 705q121 -51 188.5 -134.5t67.5 -181.5q0 -106 -41 -187.5t-112 -130.5t-159.5 -73.5t-191.5 -24.5q-196 0 -302 91t-106 227q0 75 26 135.5t75.5 104t111 74.5t142.5 54q-62 31 -105.5 85t-61.5 109t-18 110q0 177 128.5 276.5t332.5 99.5q169 0 261.5 -80
t92.5 -196q0 -254 -329 -358zM565 625q-280 -94 -280 -308q0 -102 71 -174.5t209 -72.5q153 0 230 72t77 192q0 97 -75 166.5t-232 124.5zM729 735q114 40 185 117t71 186q0 82 -56 142.5t-167 60.5q-133 0 -206 -64.5t-73 -177.5q0 -89 61.5 -157t184.5 -107z" />
    <glyph glyph-name="nine" unicode="9" horiz-adv-x="1163" 
d="M135 37l27 125q117 -60 256 -60q105 0 181.5 36t137.5 112q100 129 166 381q-52 -67 -147 -108.5t-205 -41.5q-157 0 -246.5 88.5t-89.5 241.5q0 108 32 201.5t94.5 167.5t163.5 116.5t230 42.5q81 0 149.5 -25t123.5 -75.5t86.5 -136t31.5 -197.5q0 -117 -29 -256
t-96 -285t-159 -233q-89 -82 -191 -120t-248 -38q-65 0 -143.5 16t-124.5 48zM915 694q1 8 9 51t10.5 62.5t6 61.5t3.5 85q0 62 -12 112t-37.5 90.5t-70.5 62.5t-107 22q-76 0 -137.5 -35t-99.5 -93t-58.5 -131t-20.5 -153q0 -108 50.5 -173.5t166.5 -65.5q156 0 297 104z
" />
    <glyph glyph-name="colon" unicode=":" horiz-adv-x="471" 
d="M330 115q0 -57 -36 -95t-95 -38q-49 0 -81 30t-32 82q0 64 39 100.5t90 36.5q48 0 81.5 -29.5t33.5 -86.5zM451 864q0 -57 -37 -94t-97 -37q-49 0 -80.5 29.5t-31.5 81.5q0 65 39 102t90 37q48 0 82.5 -30.5t34.5 -88.5z" />
    <glyph glyph-name="semicolon" unicode=";" horiz-adv-x="471" 
d="M451 864q0 -57 -37 -94t-97 -37q-49 0 -80.5 29.5t-31.5 81.5q0 65 39 102t90 37q48 0 82.5 -30.5t34.5 -88.5zM63 -305l-100 43q69 98 123 234t74 272h172q-27 -155 -99.5 -301.5t-169.5 -247.5z" />
    <glyph glyph-name="less" unicode="&#x3c;" horiz-adv-x="1359" 
d="M1110 90l-797 428l27 121l967 438l-31 -151l-813 -355l674 -350z" />
    <glyph glyph-name="equal" unicode="=" horiz-adv-x="1359" 
d="M1184 319h-985l22 117h983zM1260 717h-984l23 117h985z" />
    <glyph glyph-name="greater" unicode="&#x3e;" horiz-adv-x="1359" 
d="M369 1077l794 -430l-24 -119l-967 -438l31 150l815 356l-676 350z" />
    <glyph glyph-name="question" unicode="?" horiz-adv-x="858" 
d="M467 430h-109q0 42 13 135q4 29 8.5 47t17.5 44.5t39.5 53.5t67.5 56t69.5 52t63.5 57t56 66t35.5 74.5t14.5 86.5q0 70 -48 120t-144 50q-146 0 -291 -78l23 123q158 94 338 94q89 0 155 -22.5t103.5 -61.5t55 -84.5t17.5 -97.5q0 -79 -23.5 -144.5t-70.5 -118.5
t-100.5 -93t-130.5 -84q-28 -16 -48.5 -31.5t-35 -27.5t-26 -32.5t-17.5 -33t-13 -42.5t-10 -47t-10 -61zM514 117q0 -58 -36 -95.5t-95 -37.5q-50 0 -83.5 29.5t-33.5 82.5q0 64 39.5 100.5t91.5 36.5q48 0 82.5 -30t34.5 -86z" />
    <glyph glyph-name="at" unicode="@" horiz-adv-x="1579" 
d="M1364 -115q-257 -166 -555 -166q-292 0 -467.5 176.5t-175.5 462.5q0 131 35.5 256t105 232t165 188t222.5 127.5t269 46.5q255 0 396.5 -134t141.5 -380q0 -143 -70.5 -282t-190.5 -228.5t-253 -89.5q-45 0 -45 53q0 82 111 426q-97 -171 -236 -319q-71 -74 -143 -117
t-129 -43q-47 0 -71.5 29.5t-24.5 99.5q0 129 76.5 296t174.5 259q126 119 308 119q103 0 243 -37q-1 -2 -133 -444q-42 -136 -45 -199q0 -13 7.5 -23t21.5 -10q59 0 133 74q87 81 138.5 194t51.5 232q0 222 -124.5 342.5t-350.5 120.5q-121 0 -231 -42.5t-194.5 -117.5
t-147 -173t-95 -214.5t-32.5 -237.5q0 -259 154.5 -418t412.5 -159q276 0 520 149zM1124 817q-64 21 -145 21q-78 0 -131 -32t-96 -91q-58 -75 -118.5 -223t-60.5 -246q0 -58 41 -58q59 0 174 107q104 101 194 238t142 284z" />
    <glyph glyph-name="A" unicode="A" horiz-adv-x="1335" 
d="M379 0h-434l14 74l49 10q33 6 56.5 25t46.5 59l667 1216h183l190 -1218q7 -43 21 -59.5t45 -22.5l49 -8l-15 -76h-481l14 76l103 10q69 6 69 59q0 10 -6 70l-39 260h-499l-142 -264q-30 -58 -30 -82q0 -21 11.5 -30.5t41.5 -12.5l102 -12zM467 575h432q-87 581 -92 644
q-80 -155 -340 -644z" />
    <glyph glyph-name="B" unicode="B" horiz-adv-x="1255" 
d="M39 0l14 76l58 8q61 10 80 26t28 64l197 1018q6 24 6 51t-17.5 39t-60.5 18l-70 9l17 75h479q185 0 295 -30q83 -25 128.5 -88.5t45.5 -151.5q0 -154 -87.5 -248.5t-254.5 -142.5q142 -12 217.5 -90.5t75.5 -192.5q0 -161 -92.5 -265t-263.5 -144q-129 -31 -320 -31h-475
zM518 762h78q146 0 201 14q108 25 176.5 109.5t68.5 199.5q0 157 -161 189q-51 10 -183 10h-77zM500 664l-90 -469q-9 -41 -9 -56q0 -26 20.5 -35.5t76.5 -9.5h67q100 0 205 31q103 32 159 111.5t56 195.5q0 91 -53 153t-166 72q-73 7 -193 7h-73z" />
    <glyph glyph-name="C" unicode="C" horiz-adv-x="1316" 
d="M1106 35q-58 -21 -175.5 -41.5t-213.5 -20.5q-143 0 -251.5 40t-175.5 113t-100.5 170.5t-33.5 217.5q0 224 82.5 422t250.5 324q203 151 496 151q96 0 191 -13t141 -32q4 -28 4 -53q0 -50 -9.5 -130.5t-19.5 -119.5l-90 -4l-8 55q-12 87 -33 125q-41 74 -196 74
q-223 0 -377 -154q-112 -113 -172 -290t-60 -351q0 -216 102.5 -330t284.5 -114q188 0 271 92q43 54 67 98l27 51l88 -10q-5 -40 -36 -134.5t-54 -135.5z" />
    <glyph glyph-name="D" unicode="D" horiz-adv-x="1421" 
d="M39 0l14 76l60 8q58 9 77.5 25.5t28.5 64.5l197 1020q6 42 6 53q0 24 -17.5 35.5t-60.5 17.5l-70 9l17 75h399q319 0 467 -67q110 -50 177 -156.5t67 -271.5q0 -110 -15.5 -210t-50.5 -197t-89 -176.5t-135 -144t-183 -102.5q-163 -59 -469 -59h-420zM412 201
q-6 -34 -6 -51q0 -23 25.5 -36.5t70.5 -13.5h69q79 0 161.5 18t141.5 48q83 43 148.5 129t104 190t58 210.5t19.5 205.5q0 247 -219 342q-96 41 -258 41h-106z" />
    <glyph glyph-name="E" unicode="E" horiz-adv-x="1191" 
d="M1018 0h-979l14 76l60 8q58 9 77.5 25.5t28.5 66.5l199 1018q6 42 6 55q0 24 -19 35t-61 16l-70 9l17 75h893q4 -24 4 -55q0 -90 -31 -248l-92 -4l-8 82q-8 75 -30.5 100t-92.5 25h-313l-101 -518h445l-19 -100h-444l-90 -471q-6 -24 -6 -50t15 -35.5t52 -9.5h320
q64 0 99.5 27.5t68.5 105.5l40 99l95 -6q-12 -86 -36.5 -188.5t-41.5 -137.5z" />
    <glyph glyph-name="F" unicode="F" horiz-adv-x="1120" 
d="M561 0h-522l14 74l58 10q59 9 79 25.5t29 64.5l199 1020q6 36 6 55q0 24 -19 35t-61 16l-70 9l17 75h893q4 -24 4 -55q0 -77 -31 -248l-92 -4l-10 97q-6 61 -30 85.5t-89 24.5h-315l-107 -549h444l-18 -100h-444l-86 -451q0 -2 -3.5 -19.5t-3.5 -25.5q0 -25 18 -38
t62 -17l92 -10z" />
    <glyph glyph-name="G" unicode="G" horiz-adv-x="1415" 
d="M1178 47q-58 -28 -194 -51t-255 -23q-148 0 -259 39.5t-179 112.5t-101.5 169.5t-33.5 217.5q0 222 77 413t230 314q213 172 536 172q103 0 210.5 -13.5t152.5 -33.5q4 -28 4 -55q0 -111 -27 -244l-98 -4l-4 51q-9 94 -35 135q-25 37 -79 51.5t-162 14.5
q-243 0 -394 -174q-102 -116 -156.5 -283.5t-54.5 -345.5q0 -206 103 -321t289 -115q68 0 144.5 16t115.5 33l63 326q8 46 8 69q0 31 -16 44t-57 18l-82 8l16 84h477l-16 -82l-49 -10q-48 -9 -64.5 -27t-25.5 -66z" />
    <glyph glyph-name="H" unicode="H" horiz-adv-x="1515" 
d="M537 0h-498l14 76l58 8q59 9 79 25.5t29 64.5l199 1016q6 40 6 55q-2 24 -19.5 36.5t-60.5 18.5l-70 9l17 75h500l-17 -75l-63 -11q-56 -9 -75 -25.5t-28 -62.5l-88 -444h627l82 424q8 36 8 55q-2 24 -18 36.5t-56 18.5l-71 9l16 75h498l-17 -75l-63 -9q-57 -9 -77 -27.5
t-28 -62.5l-200 -1026q-4 -28 -4 -47q0 -45 75 -53l74 -8l-12 -76h-498l12 76l62 8q57 9 74 25t26 65l96 492h-624l-92 -482q0 -1 -3.5 -20t-3.5 -27q0 -24 17 -36.5t57 -16.5l74 -8z" />
    <glyph glyph-name="I" unicode="I" horiz-adv-x="702" 
d="M541 0h-502l14 76l58 8q59 9 79 25.5t29 64.5l199 1016q6 40 6 55q-2 24 -19.5 36.5t-60.5 18.5l-70 9l17 75h502l-17 -75l-63 -9q-57 -9 -76.5 -26t-28.5 -64l-198 -1026q0 -1 -3.5 -20t-3.5 -27q0 -23 18.5 -36t59.5 -17l74 -8z" />
    <glyph glyph-name="J" unicode="J" horiz-adv-x="677" 
d="M-121 -252l4 84q54 8 91 17.5t79.5 31.5t71 55.5t54 89.5t40.5 132l199 1030q8 46 8 59q-2 24 -19 36.5t-57 16.5l-74 9l15 75h497l-14 -75l-63 -9q-53 -7 -72.5 -24.5t-28.5 -63.5l-196 -1026q-20 -107 -53 -180t-93 -131.5t-155.5 -89t-233.5 -37.5z" />
    <glyph glyph-name="K" unicode="K" horiz-adv-x="1347" 
d="M1276 0q-58 -10 -154 -10q-83 0 -131.5 26t-87.5 86q-120 174 -360 611l415 393q115 109 115 156q0 22 -22 32.5t-86 14.5l16 75h442l-14 -75q-37 -2 -84 -25q-50 -21 -133 -96l-467 -426q173 -312 367 -578q42 -56 86 -80.5t112 -27.5zM541 0h-502l14 76l58 8
q59 9 79 25.5t29 64.5l197 1012q8 50 8 61q-2 24 -19 35.5t-61 17.5l-70 11l17 73h502l-17 -73l-63 -11q-56 -7 -76 -24.5t-29 -63.5l-198 -1028q0 -1 -3.5 -20t-3.5 -27q0 -23 18.5 -36t59.5 -17l74 -8z" />
    <glyph glyph-name="L" unicode="L" horiz-adv-x="1202" 
d="M1018 0h-979l14 76l62 8q58 9 76.5 25.5t27.5 66.5l199 1018q6 27 6 51q-2 24 -19.5 36.5t-60.5 18.5l-70 9l17 75h504l-17 -75l-65 -9q-57 -7 -76.5 -24.5t-28.5 -65.5l-196 -1015q-6 -24 -6 -50t15 -35.5t52 -9.5h322q63 0 97.5 27.5t68.5 105.5l40 99l95 -6
q-12 -86 -36.5 -188.5t-41.5 -137.5z" />
    <glyph glyph-name="M" unicode="M" horiz-adv-x="1763" 
d="M477 0h-438l14 74l64 10q55 7 75 26.5t29 71.5l195 1010q8 36 8 53q0 27 -18 38t-66 17l-66 9l17 75h403q34 -174 68 -346.5t51.5 -261.5t33.5 -172t24.5 -128t13.5 -79q88 166 577 987h391l-16 -75l-59 -9q-60 -9 -80 -27t-29 -67l-188 -1020q-6 -24 -6 -47
q0 -26 15 -37.5t54 -17.5l80 -10l-14 -74h-502l14 74l62 10q57 9 77 28t29 70l197 1043q-19 -34 -79 -136t-211.5 -362t-344.5 -592h-104q-157 811 -209 1092q-71 -351 -195 -1037q-6 -27 -6 -63q0 -18 18 -28.5t68 -16.5l65 -8z" />
    <glyph glyph-name="N" unicode="N" horiz-adv-x="1472" 
d="M473 0h-434l14 74l60 10q60 9 77 25.5t27 66.5l201 1032q4 28 4 39q0 26 -18.5 36t-65.5 17l-64 9l15 75h373q102 -249 192 -466.5t131.5 -317t74.5 -180t45 -111t19 -53.5q17 95 38 204t61.5 319t81.5 423q4 16 4 43q0 17 -6 29q-14 22 -84 29l-64 6l16 75h428l-14 -75
l-57 -9q-58 -7 -78 -24.5t-29 -65.5l-235 -1210h-158q-126 305 -222 540t-143.5 351t-77 189t-38.5 96t-12 30q-34 -188 -193 -1009q-8 -46 -8 -62q0 -44 92 -53l61 -8z" />
    <glyph glyph-name="O" unicode="O" horiz-adv-x="1433" 
d="M1399 903q0 -134 -27 -267.5t-94.5 -270.5t-167.5 -226q-187 -166 -444 -166q-244 0 -377 128.5t-133 381.5q0 222 75.5 428t231.5 340q189 160 450 160q233 0 359.5 -129t126.5 -379zM1198 938q0 174 -74.5 274.5t-234.5 100.5q-173 0 -301 -137q-112 -122 -173 -328
t-61 -393q0 -84 15 -149.5t50.5 -119.5t100.5 -83t158 -29q185 0 309 145q70 80 120 217.5t70.5 265t20.5 236.5z" />
    <glyph glyph-name="P" unicode="P" horiz-adv-x="1232" 
d="M547 0h-508l14 76l62 8q57 9 76 25t28 63l201 1028q4 24 4 45q0 26 -18 37.5t-62 17.5l-70 9l17 75h491q217 0 322 -43q87 -34 130.5 -107t43.5 -171q0 -165 -78.5 -283t-236.5 -168q-126 -39 -336 -39h-144l-73 -383q-7 -35 -7 -49q0 -27 17 -40t59 -17l80 -8zM504 672
h131q151 0 242 33q97 35 148.5 135.5t51.5 218.5q0 120 -76 174q-71 51 -233 51h-145z" />
    <glyph glyph-name="Q" unicode="Q" horiz-adv-x="1433" 
d="M1399 903q0 -134 -27 -267.5t-94.5 -270.5t-167.5 -226q-114 -102 -254 -139q255 -205 453 -205q58 0 98 12l8 -83q-71 -27 -176 -27q-90 0 -171 20t-160 63t-137.5 84.5t-145.5 110.5q-225 9 -347 137t-122 371q0 222 75.5 428t231.5 340q189 160 450 160
q233 0 359.5 -129t126.5 -379zM1198 938q0 174 -74.5 274.5t-234.5 100.5q-173 0 -301 -137q-112 -122 -173 -328t-61 -393q0 -84 15 -149.5t50.5 -119.5t100.5 -83t158 -29q185 0 309 145q70 80 120 217.5t70.5 265t20.5 236.5z" />
    <glyph glyph-name="R" unicode="R" horiz-adv-x="1318" 
d="M1243 0q-16 -8 -96 -8q-93 0 -150 30t-88 93q-97 192 -204 501q-31 -2 -89 -2h-124l-82 -428q-7 -28 -7 -45q0 -27 16 -39t60 -18l76 -8l-14 -76h-502l14 76l64 10q56 7 73.5 23t26.5 63l201 1024q6 24 6 47q0 25 -17 38t-59 17l-74 11l17 75h491q192 0 285 -36
q182 -71 182 -275q0 -147 -77 -257t-230 -161q-38 -11 -61 -16q129 -316 204 -446q37 -64 76 -88t96 -29zM510 713h129q135 0 219 35q91 36 142 123.5t51 193.5q0 54 -22 99.5t-58 70.5q-67 49 -213 49h-135z" />
    <glyph glyph-name="S" unicode="S" horiz-adv-x="1124" 
d="M127 373l92 10l17 -68q19 -79 43 -122t75 -70q79 -47 193 -47q143 0 227 64.5t84 193.5q0 66 -43 124.5t-164 129.5l-131 78q-123 71 -176 152t-53 181q0 134 71 228.5t190 139t275 44.5q164 0 299 -53q7 -42 7 -53q-5 -131 -27 -240l-86 -4l-8 49q-12 71 -22 101t-34 53
q-25 23 -80 35t-102 12q-145 0 -229 -65.5t-84 -190.5q0 -68 38.5 -121t151.5 -121l146 -86q121 -71 177 -153.5t56 -184.5q0 -136 -70.5 -231.5t-186 -140t-263.5 -44.5q-212 0 -365 95q-18 95 -18 305z" />
    <glyph glyph-name="T" unicode="T" horiz-adv-x="1304" 
d="M842 0h-508l14 76l64 8q56 7 76.5 24.5t29.5 65.5l215 1108h-227q-65 0 -94.5 -21t-53.5 -79l-45 -111l-90 6q47 259 76 307h1092q2 -8 2 -38q0 -96 -37 -271l-90 -4l-4 98q-3 66 -24.5 89.5t-94.5 23.5h-217l-211 -1079q-8 -36 -8 -62q0 -27 15.5 -39t59.5 -18l74 -8z
" />
    <glyph glyph-name="U" unicode="U" horiz-adv-x="1490" 
d="M236 1309l16 75h504l-15 -75l-63 -9q-56 -7 -77 -25t-30 -65l-116 -602q-35 -181 -35 -258q0 -133 87 -202.5t226 -69.5q223 0 340 155q84 111 139 398l109 555q8 36 8 61t-18 36.5t-58 16.5l-86 9l15 75h428l-15 -75l-51 -9q-58 -9 -77 -26t-29 -72l-111 -575
q-41 -210 -78 -312t-110 -180q-147 -162 -451 -162q-72 0 -136.5 11.5t-124.5 38.5t-103 68t-69 104t-26 143q0 89 35 264l115 590q6 42 6 51q0 25 -16.5 38t-61.5 19z" />
    <glyph glyph-name="V" unicode="V" horiz-adv-x="1327" 
d="M664 0h-175l-192 1219q-7 44 -21.5 59t-46.5 22l-51 9l15 75h479l-15 -75l-98 -9q-63 -5 -63 -55q0 -23 4 -63q121 -809 143 -1012q46 94 539 1012q26 50 26 80q0 16 -11 24.5t-40 11.5l-94 11l12 75h424l-14 -75l-49 -9q-36 -7 -57 -25t-46 -61z" />
    <glyph glyph-name="W" unicode="W" horiz-adv-x="1955" 
d="M582 0h-172l-84 1219q-3 43 -18.5 58.5t-51.5 22.5l-53 9l14 75h481l-14 -75l-90 -11q-38 -3 -54.5 -16t-17.5 -43q0 -37 2 -68q43 -685 54 -958q28 70 117.5 256t420.5 862h164q125 -959 135 -1118q31 89 404 958q24 56 24 93q0 17 -9.5 24t-37.5 10l-98 11l16 75h420
l-16 -75l-50 -9q-38 -6 -59 -23.5t-41 -62.5l-543 -1214h-176q-81 658 -101.5 841.5t-23.5 266.5q-98 -209 -542 -1108z" />
    <glyph glyph-name="X" unicode="X" horiz-adv-x="1363" 
d="M428 0h-467l14 76l50 8q28 4 51.5 21t66.5 61l496 534l-291 523q-23 42 -39.5 58t-40.5 19l-41 9l15 75h499l-14 -75l-90 -11q-34 -4 -48 -15.5t-14 -33.5q0 -28 27 -84q58 -108 102.5 -189.5t67.5 -122t33 -60.5q2 2 330 376q20 22 36.5 50t16.5 41q0 34 -51 40l-82 9
l14 75h438l-14 -75l-53 -9q-42 -8 -107 -79l-475 -514l303 -541q23 -42 43 -60t47 -22l52 -8l-13 -76h-530l12 76l100 10q31 3 49.5 16t18.5 29q0 30 -29 86q-131 242 -215 393q-108 -119 -350 -391q-57 -67 -57 -94q0 -34 51 -39l100 -10z" />
    <glyph glyph-name="Y" unicode="Y" horiz-adv-x="1318" 
d="M838 0h-504l12 76l64 8q59 9 78 25t28 63l76 389l-283 658q-19 42 -34.5 59.5t-41.5 21.5l-45 9l15 75h489l-14 -75l-94 -11q-36 -5 -52 -14.5t-16 -30.5q0 -33 21 -84q158 -366 208 -495q56 79 390 493q19 24 35 53.5t16 43.5q0 17 -11.5 24t-41.5 10l-95 11l13 75h432
l-15 -75l-43 -9q-27 -6 -50 -24.5t-58 -61.5l-535 -651l-73 -368q-7 -28 -7 -54t16.5 -37.5t59.5 -17.5l72 -10z" />
    <glyph glyph-name="Z" unicode="Z" horiz-adv-x="1218" 
d="M1090 0h-1088l14 90q788 929 1018 1192h-512q-71 0 -106.5 -34.5t-73.5 -131.5l-18 -49l-95 6q41 221 84 311h983l-16 -88q-303 -357 -532 -625.5t-342.5 -401t-143.5 -167.5h594q79 0 118 32t85 140l24 58l88 -8q-13 -80 -36.5 -179t-44.5 -145z" />
    <glyph glyph-name="bracketleft" unicode="[" horiz-adv-x="579" 
d="M369 -326h-353l349 1792h352l-19 -90h-211l-311 -1607h211z" />
    <glyph glyph-name="backslash" unicode="\" horiz-adv-x="835" 
d="M782 -190h-102l-463 1658h100z" />
    <glyph glyph-name="bracketright" unicode="]" horiz-adv-x="579" 
d="M266 1466h352l-348 -1792h-352l19 90h210l312 1608h-211z" />
    <glyph glyph-name="asciicircum" unicode="^" horiz-adv-x="1384" 
d="M1204 557h-139l-186 647l-439 -647h-153l544 793h140z" />
    <glyph glyph-name="underscore" unicode="_" horiz-adv-x="1024" 
d="M-72 -180h1026v-82h-1026v82z" />
    <glyph glyph-name="grave" unicode="`" horiz-adv-x="403" 
d="M403 1182h-129l-274 319h199z" />
    <glyph glyph-name="a" unicode="a" horiz-adv-x="1130" 
d="M1057 70q-71 -42 -158 -69.5t-135 -27.5q-31 0 -44 16t-13 50q0 54 31 221t79 350q-111 -227 -272 -420q-79 -96 -169 -156.5t-157 -60.5q-129 0 -129 177q0 174 83.5 399.5t193.5 337.5q140 147 378 147q155 0 324 -39q-35 -127 -137 -594q-39 -195 -39 -247
q0 -21 8 -32t33 -11q48 0 137 28zM877 918q-74 28 -179 28q-79 0 -132 -35.5t-99 -107.5q-67 -103 -130 -290.5t-63 -307.5q0 -41 15 -61.5t37 -20.5q34 0 84.5 36.5t99.5 90.5q119 131 218 310t149 358z" />
    <glyph glyph-name="b" unicode="b" horiz-adv-x="1069" 
d="M92 31l244 1075q39 163 39 215q0 19 -7 29t-36 17t-86 7l14 60q49 21 139 41t142 20q29 0 39 -7t10 -30q0 -6 -74 -319q-105 -457 -158 -658q117 250 273 406q62 62 135 104.5t131 42.5q74 0 105.5 -44t31.5 -154q0 -158 -59 -357.5t-141 -306.5q-75 -99 -168 -149
t-236 -50q-99 0 -192.5 17t-145.5 41zM281 102q57 -34 194 -34q147 0 227 159q61 120 105.5 287t44.5 277q0 61 -15 82.5t-44 21.5q-35 0 -85.5 -33.5t-95.5 -85.5q-36 -40 -58.5 -67.5t-66.5 -92.5t-75.5 -130t-68 -167t-62.5 -217z" />
    <glyph glyph-name="c" unicode="c" horiz-adv-x="843" 
d="M741 98q-199 -125 -401 -125q-120 0 -178 71.5t-58 195.5q0 353 183 606q140 188 375 188q122 0 198 -26q10 -22 10 -93q0 -92 -10 -151l-84 -8q-17 117 -41 151q-28 43 -108 43q-60 0 -120.5 -43.5t-100.5 -120.5q-51 -99 -87 -236t-36 -255q0 -203 145 -203
q158 0 334 98z" />
    <glyph glyph-name="d" unicode="d" horiz-adv-x="1144" 
d="M1057 70q-68 -41 -155.5 -69t-133.5 -28q-34 0 -47.5 15t-13.5 49q0 54 29 212t79 363q-126 -261 -272 -430q-82 -95 -170.5 -152t-155.5 -57q-127 0 -127 174q0 176 83 402t194 340q139 145 364 145q103 0 168 -18l25 104q34 162 34 201q0 19 -7 29t-36 17t-86 7l15 60
q50 21 137 41t139 20q29 0 39 -6.5t10 -28.5q0 -26 -71 -321q-93 -383 -170 -740q-37 -169 -37 -245q0 -21 8 -32t33 -11q50 0 139 28zM874 920q-76 26 -178 26q-76 0 -126.5 -35t-98.5 -104q-67 -100 -131 -289t-64 -313q0 -42 14 -62t36 -20q35 0 89.5 39t106.5 98
q112 127 207 303t145 357z" />
    <glyph glyph-name="e" unicode="e" horiz-adv-x="856" 
d="M299 481q-18 -78 -18 -194q0 -195 143 -195q73 0 169.5 25t184.5 80l-20 -93q-198 -131 -418 -131q-236 0 -236 281q0 156 49.5 320t133.5 274q69 93 160.5 139.5t189.5 46.5q117 0 173 -50t56 -132q0 -153 -148.5 -247t-418.5 -124zM307 526q193 42 301.5 122t108.5 186
q0 120 -99 120q-50 0 -107.5 -39t-104.5 -120q-63 -110 -99 -269z" />
    <glyph glyph-name="f" unicode="f" horiz-adv-x="632" 
d="M-242 -248l78 8q16 -66 37 -106q16 -33 53 -33q67 0 113 74q55 85 104 346l160 848h-160l21 82l84 20q38 9 62 30.5t32 51.5q37 155 86.5 243t126.5 132q87 51 217 51q71 0 119 -22q10 -23 10 -74q0 -67 -6 -156l-84 -6q-20 97 -37 129q-11 24 -29 32.5t-49 8.5
q-72 0 -118 -84q-32 -58 -72 -285l-8 -49h204l-24 -104h-201l-160 -801q-70 -349 -194 -463q-47 -43 -113.5 -68.5t-130.5 -25.5q-74 0 -102 12q-19 72 -19 209z" />
    <glyph glyph-name="g" unicode="g" horiz-adv-x="956" 
d="M715 784q0 170 -131 170q-94 0 -150 -71q-41 -52 -66.5 -132t-25.5 -145q0 -101 33.5 -144.5t103.5 -43.5q95 0 156 90q34 48 57 130t23 146zM393 -389q53 0 105.5 10.5t102.5 32.5t81 63t31 95q0 106 -131 141q-187 51 -238 51q-32 0 -68 -18q-178 -67 -178 -195
q0 -73 73.5 -126.5t221.5 -53.5zM991 889h-135q35 -44 35 -139q0 -73 -33 -160t-94 -144q-109 -106 -293 -106q-71 0 -121 16q-31 -19 -52.5 -48.5t-21.5 -61.5q0 -26 22 -48.5t71 -33.5q24 -6 129.5 -28t187.5 -42q107 -25 161 -75.5t54 -143.5q0 -87 -45.5 -155
t-121.5 -108t-165 -60.5t-184 -20.5q-210 0 -322 67.5t-112 172.5q0 28 7 54.5t28.5 58.5t55.5 58.5t92.5 51t135.5 39.5q-125 43 -125 145q0 128 160 199q-137 59 -137 235q0 94 34.5 180.5t102.5 145.5q56 48 124 72t165 24q48 0 103 -13t79 -28h238z" />
    <glyph glyph-name="h" unicode="h" horiz-adv-x="1112" 
d="M270 0h-168l250 1106q39 163 39 215q0 19 -7 29t-36 17t-86 7l14 60q49 21 139 41t142 20q28 0 37.5 -7t9.5 -30q0 -34 -84 -373q-83 -347 -168 -653q62 149 149.5 277.5t178.5 208.5q53 48 117 82t118 34q50 0 74.5 -22.5t24.5 -81.5q0 -48 -31 -203l-88 -434
q-21 -102 -21 -141q0 -21 7 -31t30 -10q44 0 142 32l-15 -65q-70 -46 -152.5 -73.5t-133.5 -27.5q-37 0 -51.5 15t-14.5 53q0 28 25 150l90 430q35 165 35 206q0 23 -9.5 33t-33.5 10q-72 0 -170 -106q-40 -44 -67 -77.5t-72 -103.5t-78.5 -144.5t-71 -191t-64.5 -251.5z
" />
    <glyph glyph-name="i" unicode="i" horiz-adv-x="585" 
d="M485 76q-167 -99 -290 -99q-35 0 -48.5 15t-13.5 53q0 44 21 143l100 469q35 161 35 201q0 30 -24.5 40.5t-110.5 14.5l14 60q74 26 172 44.5t166 20.5q-22 -75 -72 -309l-96 -453q-16 -73 -16 -124q0 -22 7.5 -31.5t28.5 -9.5q32 0 144 32zM545 1339q0 -53 -31.5 -90
t-85.5 -37q-46 0 -76 30t-30 77q0 52 35 88.5t89 36.5q43 0 71 -28t28 -77z" />
    <glyph glyph-name="j" unicode="j" horiz-adv-x="575" 
d="M-244 -250l78 10q14 -59 39 -106q16 -33 53 -33q65 0 111 74q49 73 100 346l117 627q27 155 27 188q0 30 -25 41.5t-113 15.5l15 60q76 26 174 44.5t164 20.5q-2 -11 -11.5 -66.5t-28 -154t-40.5 -213.5l-107 -561q-27 -142 -73.5 -253t-102.5 -163q-47 -44 -117 -70
t-139 -26q-74 0 -102 12q-19 83 -19 207zM537 1339q0 -53 -31.5 -90t-87.5 -37q-45 0 -75 30t-30 77q0 52 34.5 88.5t88.5 36.5q43 0 72 -28t29 -77z" />
    <glyph glyph-name="k" unicode="k" horiz-adv-x="1024" 
d="M270 0h-168l250 1106q39 163 39 215q0 19 -7.5 29t-37 17t-86.5 7l14 60q52 21 140.5 41t138.5 20q31 0 41 -6.5t10 -30.5q0 -30 -69 -317q-12 -51 -168 -678q54 123 151.5 246.5t198.5 203.5q157 121 270 121q27 0 35 -2q8 -16 8 -53q0 -60 -16 -92q-31 8 -72 8
q-190 0 -344 -193q35 -115 94.5 -268t91.5 -215q30 -59 53 -84.5t58 -25.5q53 0 123 28l-14 -67q-153 -93 -238 -93q-61 0 -96 72q-50 102 -106.5 258.5t-82.5 265.5q-57 -71 -112.5 -218.5t-98.5 -354.5z" />
    <glyph glyph-name="l" unicode="l" horiz-adv-x="571" 
d="M481 76q-173 -99 -284 -99q-34 0 -50 16.5t-16 55.5q0 38 21 141l196 914q39 182 39 217q0 19 -7.5 29t-37 17t-86.5 7l14 60q53 22 138 41.5t135 19.5q31 0 41 -6.5t10 -30.5q0 -10 -11 -60t-31.5 -136.5t-29.5 -124.5l-186 -840q-23 -97 -23 -143q0 -22 8 -31.5
t31 -9.5q49 0 144 30z" />
    <glyph glyph-name="m" unicode="m" horiz-adv-x="1640" 
d="M274 0h-168l130 555q53 230 53 305q0 27 -27 39.5t-108 13.5l14 58q50 23 130 43t132 20q32 0 43.5 -10t11.5 -37q0 -26 -30 -170q-33 -148 -95 -377q58 143 143 270.5t173 209.5q52 49 114 81.5t117 32.5q52 0 76.5 -23.5t24.5 -82.5q0 -99 -99 -490q128 312 312 482
q128 114 221 114q51 0 76.5 -22t25.5 -80q0 -41 -33 -213l-88 -434q-22 -110 -22 -133q0 -21 8 -31t31 -10q42 0 143 32l-16 -65q-70 -46 -152.5 -73.5t-134.5 -27.5q-36 0 -51 15t-15 53q0 37 23 150l98 458q29 141 29 181q0 22 -8 31t-31 9q-67 0 -158 -104
q-36 -43 -63.5 -79t-69 -106t-74.5 -145.5t-69.5 -190.5t-65.5 -249h-172l129 553q47 212 47 281q0 22 -9 31t-32 9q-70 0 -165 -106q-36 -40 -65 -77t-71 -105.5t-76 -145t-71 -191.5t-66 -249z" />
    <glyph glyph-name="n" unicode="n" horiz-adv-x="1116" 
d="M274 0h-168l130 555q53 230 53 303q0 28 -25.5 41t-109.5 14l14 58q49 23 132.5 43t135.5 20q30 0 40.5 -10t10.5 -37q0 -45 -30 -170q-54 -223 -95 -375q61 150 145.5 273t176.5 203q134 116 236 116q50 0 74 -22.5t24 -81.5q0 -58 -29 -203l-90 -434q-20 -97 -20 -141
q0 -22 6.5 -31.5t29.5 -9.5q43 0 144 32l-17 -65q-70 -46 -152.5 -73.5t-133.5 -27.5q-36 0 -51 15t-15 53q0 28 25 150l90 430q35 165 35 206q0 22 -9 32.5t-32 10.5q-72 0 -170 -106q-40 -44 -67 -77.5t-72 -103.5t-78.5 -144.5t-71.5 -191t-66 -251.5z" />
    <glyph glyph-name="o" unicode="o" horiz-adv-x="1019" 
d="M969 696q0 -148 -43.5 -292.5t-126.5 -249.5q-147 -181 -367 -181q-149 0 -239.5 82.5t-90.5 247.5q0 158 49.5 311.5t147.5 262.5q144 157 348 157q151 0 236.5 -85.5t85.5 -252.5zM791 733q0 45 -5.5 80t-21 68.5t-47 52t-78.5 18.5q-59 0 -116.5 -35t-94.5 -92
q-67 -99 -108 -257.5t-41 -303.5q0 -98 40.5 -154.5t120.5 -56.5q70 0 133.5 45t102.5 119q50 98 82.5 246.5t32.5 269.5z" />
    <glyph glyph-name="p" unicode="p" horiz-adv-x="1083" 
d="M356 -442h-473l19 69l49 8q49 9 66.5 24.5t27.5 61.5l180 834q58 278 58 303q0 27 -27 40.5t-109 14.5l15 58q50 23 132 43t134 20q32 0 43.5 -10t11.5 -37q0 -42 -30 -172q-40 -167 -84 -338q107 237 282 416q60 62 130.5 101.5t129.5 39.5q72 0 105 -42.5t33 -151.5
q0 -162 -59.5 -361t-141.5 -307q-74 -98 -168.5 -148.5t-233.5 -50.5q-103 0 -176 23l-49 -250q-6 -42 -6 -53q0 -27 16.5 -38.5t57.5 -16.5l84 -11zM295 102q54 -34 199 -34q143 0 223 159q56 106 102.5 278t46.5 286q0 63 -16 84.5t-47 21.5q-29 0 -76.5 -32t-93.5 -83
q-35 -40 -58 -68.5t-67 -94.5t-76.5 -132t-71 -168.5t-65.5 -216.5z" />
    <glyph glyph-name="q" unicode="q" horiz-adv-x="1126" 
d="M907 -442h-471l19 69l67 8q46 6 67.5 24.5t31.5 66.5l133 608q33 153 65 289q-127 -267 -278 -439q-84 -96 -170 -153.5t-152 -57.5q-129 0 -129 174q0 175 84 402t193 340q142 145 360 145q76 0 141 -10q7 -1 23.5 -3t30 -3.5t20.5 -1.5q34 0 55 43l21 41h67
q-4 -15 -81 -371l-207 -971q-9 -41 -9 -63q0 -26 15 -38.5t53 -18.5l70 -11zM879 920q-66 26 -181 26q-73 0 -126 -35t-99 -100q-68 -98 -133.5 -289.5t-65.5 -316.5q0 -41 15 -61.5t37 -20.5q35 0 87 38t105 97q115 127 211.5 302.5t149.5 359.5z" />
    <glyph glyph-name="r" unicode="r" horiz-adv-x="819" 
d="M274 0h-168l123 530q60 264 60 332q0 26 -27.5 38t-107.5 13l14 58q50 23 129 43t131 20q32 0 43.5 -10t11.5 -37q0 -30 -28 -158q-16 -80 -80 -329q121 296 223 422q94 112 199 112q35 0 51 -6q8 -20 8 -45q0 -58 -27 -117q-28 4 -57 4q-99 0 -164 -67
q-86 -91 -176.5 -292.5t-157.5 -510.5z" />
    <glyph glyph-name="s" unicode="s" horiz-adv-x="798" 
d="M80 262l82 8q19 -75 39 -116q48 -97 168 -97q86 0 137 43t51 117q0 53 -33 96.5t-123 112.5l-65 51q-90 70 -119 130t-29 134q0 42 11 81t39.5 78.5t71.5 68.5t112.5 47t157.5 18q42 0 100 -10t88 -23q10 -29 10 -86q0 -89 -8 -155l-84 -8q-17 97 -35 137q-31 57 -129 57
q-85 0 -132.5 -41t-47.5 -108q0 -55 26.5 -97t98.5 -98l72 -55q100 -78 137 -141t37 -130q0 -138 -99.5 -220.5t-281.5 -82.5q-73 0 -139.5 17t-94.5 37q-18 61 -18 235z" />
    <glyph glyph-name="t" unicode="t" horiz-adv-x="641" 
d="M557 70q-164 -93 -299 -93q-98 0 -98 93q0 66 20 161l144 658h-150l19 78l55 14q86 20 117 49q32 30 75 141l29 70h96l-57 -248h201l-23 -104h-197l-135 -627q-14 -67 -14 -117q0 -43 55 -43q19 0 73 11.5t105 29.5z" />
    <glyph glyph-name="u" unicode="u" horiz-adv-x="1122" 
d="M1053 78q-167 -101 -295 -101q-58 0 -58 62q0 45 19 156q36 182 88 383q-152 -335 -334 -496q-53 -46 -119.5 -77.5t-120.5 -31.5q-50 0 -75 21.5t-25 75.5q0 57 41 235l84 363q29 136 29 184q0 34 -24 47t-111 14l14 58q66 27 140 45t122 18q31 0 43 -10.5t12 -40.5
q0 -40 -28 -166l-119 -512q-25 -118 -25 -149q0 -39 37 -39q75 0 166 94q274 289 379 797h168l-111 -480q-22 -95 -38.5 -185t-22.5 -135.5t-6 -57.5q0 -39 43 -39q58 0 145 34z" />
    <glyph glyph-name="v" unicode="v" horiz-adv-x="991" 
d="M123 913l14 58q68 28 140.5 45.5t119.5 17.5q31 0 43.5 -11.5t12.5 -43.5q0 -30 -31 -207l-74 -418q-24 -127 -24 -194q0 -49 36 -49q74 0 209 114q116 102 195.5 277t79.5 358q0 60 -25 125q23 20 69 34.5t85 14.5q14 -46 14 -123q0 -153 -61.5 -314.5t-167.5 -297.5
t-236 -221q-162 -105 -289 -105q-41 0 -64.5 24.5t-23.5 72.5q0 66 31 254l68 381q18 100 18 155q0 27 -27.5 39.5t-111.5 13.5z" />
    <glyph glyph-name="w" unicode="w" horiz-adv-x="1495" 
d="M125 913l14 58q66 28 138.5 45.5t119.5 17.5q31 0 43.5 -11.5t12.5 -43.5q0 -28 -31 -205l-84 -459q-19 -103 -19 -155q0 -49 31 -49q35 0 69 20t87 72q113 110 190.5 315t91.5 400l164 16q-59 -442 -59 -688q0 -70 11.5 -102.5t41.5 -32.5q59 0 170 114
q102 102 167 273.5t65 355.5q0 71 -25 131q23 20 69 34.5t83 14.5q16 -53 16 -123q0 -242 -112 -467t-292 -364q-139 -107 -245 -107q-42 0 -65 22t-32 68q-12 52 -12 156q0 58 21 291q-47 -136 -134.5 -262t-179.5 -193q-116 -82 -211 -82q-43 0 -63.5 25.5t-20.5 81.5
q0 73 23 201l74 428q20 123 20 149q0 27 -27.5 40.5t-109.5 14.5z" />
    <glyph glyph-name="x" unicode="x" horiz-adv-x="993" 
d="M33 -23q-25 25 -25 97q0 39 6 57q24 -4 39 -4q86 0 160 55q73 51 258 310q-49 128 -109 292q-23 61 -43.5 87t-48.5 26q-47 0 -106 -33l8 66q44 38 113 71t106 33q30 0 50 -15t36 -54q32 -79 123 -342q90 146 150 229q65 88 129 136t141 48q12 0 18 -2q21 -38 21 -98
q0 -45 -6 -57q-12 2 -41 2q-61 0 -110.5 -26t-98.5 -77q-61 -61 -178 -221q71 -183 131 -324q30 -67 50 -93.5t46 -26.5q52 0 121 41l-6 -64q-42 -42 -115 -77.5t-121 -35.5q-57 0 -86 70q-42 95 -145 373q-148 -249 -228 -332q-104 -115 -209 -115q-10 0 -30 4z" />
    <glyph glyph-name="y" unicode="y" horiz-adv-x="1105" 
d="M70 -199l84 6q20 -110 45 -149q30 -43 120 -43q69 0 131 34t99 91q62 93 121 311q75 283 137 531q-139 -330 -334 -500q-53 -46 -119.5 -77.5t-120.5 -31.5q-49 0 -74.5 22t-25.5 75q0 56 35 211l92 407q27 113 27 160q0 36 -24.5 50t-110.5 15l14 58q155 63 260 63
q31 0 43 -11.5t12 -43.5q0 -43 -26 -160l-115 -491q-29 -126 -29 -172q0 -39 37 -39q33 0 78.5 24t89.5 72q276 305 379 799h168l-115 -516q-93 -407 -108 -457q-51 -179 -104.5 -266.5t-141.5 -147.5q-66 -45 -156 -69.5t-170 -24.5q-120 0 -194 29q-13 29 -13 82
q0 99 9 159z" />
    <glyph glyph-name="z" unicode="z" horiz-adv-x="903" 
d="M10 -6l-49 45q356 383 766 815q-49 -2 -362 -2q-36 0 -62.5 -15.5t-50.5 -56.5q-20 -37 -43 -106l-68 8q19 196 39 260q11 38 33 57t63 19q88 0 299.5 -10.5t292.5 -12.5l54 52l51 -46q-396 -442 -762 -808q25 -3 128.5 -17t181.5 -22.5t114 -8.5q37 0 60 8.5t42 32.5
q25 32 74 127l63 -14q-33 -159 -73 -256q-26 -63 -117 -63q-131 0 -608 77z" />
    <glyph glyph-name="braceleft" unicode="{" horiz-adv-x="708" 
d="M510 -338q-189 0 -271.5 50t-82.5 177q0 60 14 123l47 238q12 64 12 121q0 79 -38 118t-125 50l18 88q126 20 178 78.5t78 193.5l47 238q38 195 142.5 267.5t332.5 72.5l-18 -93q-47 0 -77 -2.5t-72.5 -14.5t-70 -34.5t-52.5 -66t-37 -105.5l-56 -282q-14 -75 -36.5 -127
t-55 -85.5t-70 -52.5t-90.5 -32q150 -29 150 -193q0 -37 -15 -110l-51 -267q-10 -52 -10 -82q0 -176 227 -176z" />
    <glyph glyph-name="bar" unicode="|" horiz-adv-x="466" 
d="M147 -354h-127l361 1855h127z" />
    <glyph glyph-name="braceright" unicode="}" horiz-adv-x="708" 
d="M279 1477q187 0 270.5 -51t83.5 -177q0 -37 -15 -125l-47 -233q-12 -65 -12 -121q0 -81 38.5 -120t125.5 -50l-18 -88q-126 -18 -178 -76.5t-78 -193.5l-48 -242q-38 -195 -141 -266.5t-334 -71.5l19 92q45 0 77 3t73 15.5t69 35.5t53 67t37 105l55 282q14 75 36.5 127
t55 85t70 51.5t90.5 31.5q-149 29 -149 193q0 36 12 110l53 270q10 48 10 87q0 53 -19.5 88.5t-55.5 51.5t-70.5 21.5t-81.5 5.5z" />
    <glyph glyph-name="asciitilde" unicode="~" horiz-adv-x="1359" 
d="M299 438l-88 66q170 225 332 225q73 0 178 -63l88 -54q80 -49 145 -49q57 0 108 39.5t118 132.5l94 -59q-77 -116 -155 -176t-173 -60q-82 0 -172 54l-100 59q-83 49 -137 49q-57 0 -113 -38.5t-125 -125.5z" />
    <glyph glyph-name="exclamdown" unicode="&#xa1;" horiz-adv-x="606" 
d="M252 567h113q-36 -284 -68 -513.5t-46 -317t-18 -103.5q-41 -16 -108 -16q-47 0 -105 16q36 197 232 934zM246 915q0 57 36.5 95.5t96.5 38.5q49 0 82 -30.5t33 -82.5q0 -64 -39.5 -100.5t-92.5 -36.5q-47 0 -81.5 30t-34.5 86z" />
    <glyph glyph-name="cent" unicode="&#xa2;" horiz-adv-x="1091" 
d="M582 -209h-86l36 197q-159 17 -241 125t-82 276q0 169 64.5 324.5t197.5 249.5q117 78 270 94l37 194h88l-39 -190q68 0 132 -9.5t96 -23.5q2 -18 2 -51q0 -96 -23 -213l-96 -4q-3 111 -29 166q-21 36 -100 39l-166 -861q16 -2 51 -2q93 0 242 54l-18 -86
q-51 -34 -133.5 -58t-166.5 -28zM397 414q0 -111 43 -183t121 -104l160 831q-83 -16 -146 -73q-87 -81 -132.5 -208t-45.5 -263z" />
    <glyph glyph-name="sterling" unicode="&#xa3;" horiz-adv-x="1232" 
d="M1044 0h-985l21 102q369 166 369 408q0 11 -5 61h-217l17 88h184q0 5 -4 21q-33 136 -33 240q0 199 129 308t348 109q192 0 322 -43q4 -28 4 -53q0 -91 -27 -246l-90 -6l-6 60q-10 103 -59 149q-49 43 -150 43q-139 0 -211.5 -79t-72.5 -222q0 -89 24 -225l10 -56h334
l-16 -88h-307q2 -14 2 -39q0 -141 -87 -237.5t-237 -165.5q113 2 514 2q63 0 94.5 10t48.5 35q39 56 62 111l16 43l90 -4q-46 -263 -82 -326z" />
    <glyph glyph-name="currency" unicode="&#xa4;" horiz-adv-x="1107" 
d="M993 174l-129 133q-103 -80 -248 -80q-132 0 -239 80l-129 -131l-82 82l131 133q-86 111 -86 248q0 135 84 248l-127 133l84 82l129 -131q98 82 242 82q141 0 239 -82l131 131l84 -82l-131 -131q82 -103 82 -246q0 -145 -80 -250l129 -133zM334 645q0 -135 83 -219
t206 -84q122 0 203 84t81 215t-80 215t-204 84q-125 0 -207 -82t-82 -213z" />
    <glyph glyph-name="yen" unicode="&#xa5;" horiz-adv-x="1396" 
d="M1135 414h-342l-43 -226q-7 -31 -7 -45q0 -26 17.5 -39.5t58.5 -17.5l74 -8l-14 -78h-506l14 78l66 8q56 7 76.5 24.5t29.5 63.5l45 240h-336l17 80h336l6 34l-60 136h-250l15 79h200l-176 410q-19 42 -35 60t-42 22l-46 8l17 78h493l-14 -78l-92 -10q-68 -9 -68 -51
q0 -25 19 -76q155 -369 194 -469q77 107 367 465q47 61 47 88q0 35 -59 41l-93 12l17 78h436l-14 -78l-43 -8q-26 -6 -50.5 -26.5t-60.5 -65.5l-336 -400h205l-14 -79h-258l-109 -132l-8 -38h342z" />
    <glyph glyph-name="brokenbar" unicode="&#xa6;" horiz-adv-x="489" 
d="M354 715h-129l131 667h129zM168 -252h-129l129 668h129z" />
    <glyph glyph-name="section" unicode="&#xa7;" horiz-adv-x="1030" 
d="M98 82l90 4l11 -51q19 -98 63 -129q22 -15 65.5 -28t80.5 -13q98 0 165.5 47.5t67.5 136.5q0 70 -38.5 122t-125.5 108l-127 81q-166 108 -166 263q0 100 67 171t198 103q-47 37 -71 94t-24 119q0 140 109 227.5t291 87.5q177 0 266 -45q0 -4 1 -18t1 -21q0 -77 -23 -198
l-86 -6l-10 55q-14 84 -41 111q-30 30 -119 30q-103 0 -167 -46t-64 -140q0 -61 31.5 -102t113.5 -99l138 -96q170 -121 170 -260q0 -103 -68 -174.5t-186 -110.5q104 -85 104 -217q0 -102 -56.5 -175t-150 -107.5t-213.5 -34.5q-87 0 -173 20t-138 49q0 146 14 242z
M649 352q160 60 160 187q0 91 -96 161l-203 148q-74 -13 -123 -56.5t-49 -113.5q0 -100 92 -166z" />
    <glyph glyph-name="dieresis" unicode="&#xa8;" horiz-adv-x="399" 
d="M129 1315q0 -46 -31 -77.5t-84 -31.5q-37 0 -63.5 25t-26.5 67q0 55 32.5 87t76.5 32q43 0 69.5 -25.5t26.5 -76.5zM477 1315q0 -46 -30 -77.5t-82 -31.5q-38 0 -65.5 25t-27.5 67q0 55 33 87t78 32q42 0 68 -25.5t26 -76.5z" />
    <glyph glyph-name="copyright" unicode="&#xa9;" horiz-adv-x="1654" 
d="M1597 690q0 -204 -90.5 -367.5t-251.5 -256.5t-362 -93q-120 0 -228.5 35t-194.5 99.5t-149 152.5t-97 198.5t-34 231.5q0 200 91 365t252 259.5t358 94.5q150 0 282 -55.5t224.5 -151t146 -228.5t53.5 -284zM1530 692q0 186 -80.5 337.5t-227 239t-331.5 87.5
q-183 0 -329.5 -88t-227 -239.5t-80.5 -336.5t80.5 -336.5t227 -239t331.5 -87.5t331 87.5t226 238.5t80 337zM1120 295q-37 -13 -117.5 -26t-142.5 -13q-192 0 -287.5 99.5t-95.5 265.5q0 123 45.5 232.5t139.5 182.5q134 101 335 101q60 0 130 -10.5t100 -22.5q2 -6 2 -41
q0 -41 -12 -170l-70 -4l-4 45q-4 57 -23 84q-33 45 -137 45q-156 0 -248 -98q-117 -129 -117 -347q0 -136 70.5 -211t190.5 -75q114 0 165 51q29 29 46 68l20 41l66 -7q-2 -23 -22 -94.5t-34 -95.5z" />
    <glyph glyph-name="ordfeminine" unicode="&#xaa;" horiz-adv-x="782" 
d="M782 543q-51 -27 -114 -45.5t-95 -18.5q-24 0 -33.5 10t-9.5 33q0 33 21 135.5t51 214.5q-99 -175 -180 -262q-55 -61 -115 -96t-106 -35q-90 0 -90 113q0 107 55.5 247.5t128.5 211.5q99 96 270 96q116 0 226 -27q-24 -71 -93 -368q-24 -118 -24 -152q0 -9 1 -13.5t7 -8
t18 -3.5q38 0 93 19zM643 1069q-42 18 -111 18q-53 0 -87 -21.5t-66 -66.5q-45 -67 -85 -181.5t-40 -184.5q0 -47 33 -47q21 0 53.5 20.5t62.5 52.5q79 83 143.5 192.5t96.5 217.5z" />
    <glyph glyph-name="guillemotleft" unicode="&#xab;" horiz-adv-x="1062" 
d="M535 150h-150l-252 393l389 375h160l-377 -386zM924 150h-148l-252 393l389 375h160l-379 -386z" />
    <glyph glyph-name="logicalnot" unicode="&#xac;" horiz-adv-x="1359" 
d="M1128 68h-124l88 452h-854l24 117h979z" />
    <glyph glyph-name="uni00AD" unicode="&#xad;" horiz-adv-x="612" 
d="M578 500h-474l27 131h471z" />
    <glyph glyph-name="registered" unicode="&#xae;" horiz-adv-x="1654" 
d="M1597 690q0 -204 -90.5 -367.5t-251.5 -256.5t-362 -93q-120 0 -228.5 35t-194.5 99.5t-149 152.5t-97 198.5t-34 231.5q0 200 91 365t252 259.5t358 94.5q150 0 282 -55.5t224.5 -151t146 -228.5t53.5 -284zM1530 692q0 186 -80.5 337.5t-227 239t-331.5 87.5
q-183 0 -329.5 -88t-227 -239.5t-80.5 -336.5t80.5 -336.5t227 -239t331.5 -87.5t331 87.5t226 238.5t80 337zM1251 293q-16 -4 -69 -4q-68 0 -102.5 17t-55.5 56q-58 114 -123 297h-45h-72l-43 -225q-6 -24 -6 -39q0 -30 41 -35l62 -6l-13 -61h-348l15 61l51 6q33 4 45 15
t18 41l109 559q6 24 6 45q0 18 -9.5 26t-35.5 11l-58 8l15 59h319q112 0 170 -20q62 -20 91.5 -68.5t29.5 -109.5q0 -184 -194 -244l-23 -6q76 -194 115 -254q25 -39 51.5 -53t71.5 -17zM797 729h71q82 0 129 16q53 19 80 67t27 108q0 83 -47 110q-38 25 -131 25h-66z" />
    <glyph glyph-name="macron" unicode="&#xaf;" horiz-adv-x="399" 
d="M451 1235h-527l23 119h526z" />
    <glyph glyph-name="degree" unicode="&#xb0;" horiz-adv-x="602" 
d="M715 1176q0 -121 -72 -199t-192 -78q-105 0 -169.5 68.5t-64.5 167.5q0 123 75 198.5t185 75.5q115 0 176.5 -65t61.5 -168zM647 1169q0 32 -9 62t-28 58t-55 44.5t-84 16.5q-88 0 -137 -58.5t-49 -140.5q0 -87 45.5 -141t126.5 -54q84 0 137 58.5t53 154.5z" />
    <glyph glyph-name="plusminus" unicode="&#xb1;" horiz-adv-x="1359" 
d="M750 289h-123l84 432h-430l22 119h432l84 428h125l-86 -428h430l-24 -119h-428zM1147 0h-985l22 117h985z" />
    <glyph glyph-name="twosuperior" unicode="&#xb2;" 
d="M166 868l12 76q174 109 340 240q80 63 130 131t50 153q0 142 -161 142q-97 0 -211 -49l12 77q114 66 254 66q129 0 191.5 -53.5t62.5 -143.5q0 -58 -19 -110.5t-57 -97.5t-77.5 -80t-96.5 -76q-125 -90 -281 -176h326q75 0 92 26q21 32 37 70l12 29l60 -5
q-5 -34 -15 -78.5t-21.5 -90t-12.5 -50.5h-627z" />
    <glyph glyph-name="threesuperior" unicode="&#xb3;" 
d="M188 895l17 90q111 -43 221 -43q42 0 80.5 8.5t73.5 27.5t56 54.5t21 83.5q0 106 -141 129q-30 6 -88 6h-31l15 80h28q39 0 105 12q58 13 98.5 52.5t40.5 101.5q0 50 -31.5 82.5t-103.5 32.5q-108 0 -215 -47l14 80q114 57 250 57q112 0 168.5 -46.5t56.5 -127.5
q0 -93 -64 -149.5t-169 -80.5q102 -4 156.5 -50t54.5 -126q0 -68 -32 -121.5t-85.5 -85t-118 -47.5t-135.5 -16q-148 0 -242 43z" />
    <glyph glyph-name="acute" unicode="&#xb4;" horiz-adv-x="399" 
d="M90 1182h-141l301 319h213z" />
    <glyph glyph-name="mu" unicode="&#xb5;" horiz-adv-x="1155" 
d="M203 -442h-170l227 962q64 268 64 332q0 33 -25.5 46.5t-112.5 14.5l15 58q66 27 140 45t122 18q31 0 43 -10.5t12 -40.5q0 -15 -29 -164q-11 -48 -40 -171t-52 -226q-43 -188 -43 -234q0 -36 13 -56.5t51 -20.5q73 0 155 94q250 294 355 803h170l-113 -480
q-22 -95 -38.5 -185t-22.5 -135.5t-6 -57.5q0 -39 43 -39q58 0 145 34l-19 -67q-167 -101 -292 -101q-58 0 -58 62q0 43 17 139q21 126 75 338q-124 -299 -262 -440q-90 -94 -166 -94q-69 0 -86 55q-10 -40 -50.5 -218.5t-61.5 -260.5z" />
    <glyph glyph-name="paragraph" unicode="&#xb6;" horiz-adv-x="1099" 
d="M356 -360l-22 71q149 65 223 147.5t105 200.5q40 147 67 299l156 803q12 70 12 84q0 25 -22 35t-89 10q-98 0 -127 -26q-22 -19 -40.5 -86.5t-61.5 -282.5q-43 -216 -43 -295q0 -41 16 -57q17 -15 50 -20t106 -5l-14 -80q-31 -4 -115 -4q-89 0 -159.5 18.5t-126 58.5
t-85.5 109.5t-30 165.5q0 128 49 257t145 212q79 68 180 98.5t244 30.5h438l-14 -75q-121 -7 -145 -31q-15 -15 -36 -122q-2 -8 -3 -13l-164 -844q-40 -211 -98 -332q-53 -111 -146 -190t-250 -137z" />
    <glyph glyph-name="periodcentered" unicode="&#xb7;" horiz-adv-x="444" 
d="M381 541q0 -58 -36.5 -95.5t-96.5 -37.5q-49 0 -81 29.5t-32 82.5q0 64 39 100.5t90 36.5q48 0 82.5 -30t34.5 -86z" />
    <glyph glyph-name="cedilla" unicode="&#xb8;" horiz-adv-x="399" 
d="M10 -539l4 62q43 8 74 16t63 21.5t52 30.5t32.5 42.5t12.5 57.5q0 48 -37.5 77t-108.5 29l88 217h68l-51 -135q90 -6 136 -52t46 -112q0 -81 -52 -137t-134 -83t-193 -34z" />
    <glyph glyph-name="onesuperior" unicode="&#xb9;" 
d="M700 868h-407l10 56l78 6q39 3 53.5 15.5t20.5 45.5l104 541q4 20 4 33q0 22 -26 22q-57 0 -119 -4l12 66l299 55q-19 -104 -39 -197l-100 -514q-2 -8 -2 -26t11 -26t38 -11l74 -6z" />
    <glyph glyph-name="ordmasculine" unicode="&#xba;" horiz-adv-x="706" 
d="M721 932q0 -95 -29.5 -186t-87.5 -154q-98 -113 -252 -113q-104 0 -169.5 53.5t-65.5 157.5q0 101 34 196.5t101 162.5q103 98 244 98q104 0 164.5 -54.5t60.5 -160.5zM588 961q0 129 -99 129q-38 0 -75 -21t-60 -55q-44 -62 -71 -163t-27 -189q0 -127 100 -127
q45 0 85.5 26.5t66.5 69.5q34 63 57 160t23 170z" />
    <glyph glyph-name="guillemotright" unicode="&#xbb;" horiz-adv-x="1062" 
d="M612 918h150l252 -394l-389 -374h-160l379 385zM223 918h148l252 -394l-390 -374h-159l379 385z" />
    <glyph glyph-name="onequarter" unicode="&#xbc;" horiz-adv-x="1644" 
d="M510 -10h-98l835 1331h94zM625 494h-408l10 55l78 6q39 3 53.5 15.5t20.5 45.5l104 541q4 20 4 33q0 22 -26 22q-57 0 -119 -4l12 66l299 55q-18 -98 -39 -196l-100 -515q-2 -8 -2 -26t11 -26t38 -11l74 -6zM1444 0h-350l12 55l45 6q41 4 54.5 15t19.5 43l22 114h-405
l12 58l528 536h117q-23 -91 -43 -196l-59 -316h133l-17 -84h-133l-18 -96q-6 -30 -6 -41q0 -17 9.5 -23.5t37.5 -9.5l51 -6zM1262 315q72 356 79 383q-68 -80 -364 -383h285z" />
    <glyph glyph-name="onehalf" unicode="&#xbd;" horiz-adv-x="1644" 
d="M481 -10h-98l836 1331h94zM606 494h-407l10 55l78 6q39 3 53 15.5t20 45.5l105 541q4 20 4 33q0 22 -27 22q-56 0 -118 -4l12 66l299 55q-18 -98 -39 -196l-100 -515q-2 -8 -2 -26t11 -26t38 -11l73 -6zM879 0l12 76q180 113 340 239q80 63 130 131.5t50 153.5
q0 141 -162 141q-97 0 -211 -49l13 78q114 66 254 66q129 0 191.5 -53.5t62.5 -143.5q0 -58 -19.5 -110.5t-57 -98t-77.5 -80.5t-96 -76q-125 -90 -281 -176h326q74 0 92 27q21 32 37 70l12 28l59 -4q-5 -34 -15 -78.5t-21.5 -90t-12.5 -50.5h-626z" />
    <glyph glyph-name="threequarters" unicode="&#xbe;" horiz-adv-x="1644" 
d="M573 -10h-98l836 1331h94zM152 520l16 90q111 -43 221 -43q42 0 80.5 8.5t74 27.5t56.5 54.5t21 83.5q0 106 -142 129q-35 7 -88 7h-31l15 79h28q33 0 105 13q59 13 99 52.5t40 100.5q0 50 -31.5 82.5t-103.5 32.5q-108 0 -215 -47l14 80q114 57 250 57
q112 0 168.5 -46.5t56.5 -127.5q0 -93 -64 -149t-169 -80q102 -4 156.5 -50t54.5 -126q0 -68 -32 -122t-85.5 -85.5t-118 -47.5t-135.5 -16q-147 0 -241 43zM1487 0h-350l12 55l45 6q41 4 54.5 15t19.5 43l22 114h-405l12 58l528 536h117q-23 -91 -43 -196l-59 -316h133
l-17 -84h-133l-18 -96q-6 -30 -6 -41q0 -17 9.5 -23.5t37.5 -9.5l51 -6zM1305 315q72 356 79 383q-68 -80 -364 -383h285z" />
    <glyph glyph-name="questiondown" unicode="&#xbf;" horiz-adv-x="858" 
d="M530 600h109q0 -49 -12 -135q-5 -39 -12 -63t-37 -62.5t-84 -75.5q-44 -31 -71.5 -52t-63 -55t-55 -65t-34 -73.5t-14.5 -88.5q0 -71 47.5 -121.5t142.5 -50.5q146 0 291 78l-22 -123q-151 -94 -338 -94q-71 0 -128.5 15t-95 40.5t-62.5 60.5t-35.5 72t-10.5 78
q0 80 23.5 145.5t70.5 118.5t101 93t131 84q28 16 48.5 31.5t35 27.5t25.5 32.5t17.5 32t13 43t9.5 47t10 60.5zM485 915q0 57 37 95.5t96 38.5q49 0 82 -30.5t33 -82.5q0 -64 -39 -100.5t-90 -36.5q-49 0 -84 30t-35 86z" />
    <glyph glyph-name="Agrave" unicode="&#xc0;" horiz-adv-x="1335" 
d="M379 0h-434l14 74l49 10q33 6 56.5 25t46.5 59l667 1216h183l190 -1218q7 -43 21 -59.5t45 -22.5l49 -8l-15 -76h-481l14 76l103 10q69 6 69 59q0 10 -6 70l-39 260h-499l-142 -264q-30 -58 -30 -82q0 -21 11.5 -30.5t41.5 -12.5l102 -12zM467 575h432q-87 581 -92 644
q-80 -155 -340 -644zM1008 1489h-150l-348 280h211z" />
    <glyph glyph-name="Aacute" unicode="&#xc1;" horiz-adv-x="1409" 
d="M379 0h-434l14 74l49 10q33 6 56.5 25t46.5 59l667 1216h183l190 -1218q7 -43 21 -59.5t45 -22.5l49 -8l-15 -76h-481l14 76l103 10q69 6 69 59q0 10 -6 70l-39 260h-499l-142 -264q-30 -58 -30 -82q0 -21 11.5 -30.5t41.5 -12.5l102 -12zM467 575h432q-87 581 -92 644
q-80 -155 -340 -644zM885 1489h-164l387 293h231z" />
    <glyph glyph-name="Acircumflex" unicode="&#xc2;" horiz-adv-x="1335" 
d="M379 0h-434l14 74l49 10q33 6 56.5 25t46.5 59l667 1216h183l190 -1218q7 -43 21 -59.5t45 -22.5l49 -8l-15 -76h-481l14 76l103 10q69 6 69 59q0 10 -6 70l-39 260h-499l-142 -264q-30 -58 -30 -82q0 -21 11.5 -30.5t41.5 -12.5l102 -12zM467 575h432q-87 581 -92 644
q-80 -155 -340 -644zM655 1489h-131l332 289h131l234 -289h-121l-189 184z" />
    <glyph glyph-name="Atilde" unicode="&#xc3;" horiz-adv-x="1331" 
d="M375 0h-434l14 74l49 10q33 6 56 24.5t46 59.5l668 1216h182l191 -1218q7 -43 21 -59.5t44 -22.5l50 -8l-15 -76h-481l14 76l103 10q69 6 69 59q0 10 -6 70l-39 260h-499l-142 -264q-30 -58 -30 -82q0 -21 11.5 -30.5t41.5 -12.5l102 -12zM463 575h432q-87 581 -92 644
q-80 -155 -340 -644zM655 1493h-98q55 244 201 244q58 0 119 -39l65 -41q41 -25 84 -25q30 0 52 27.5t42 95.5h97q-23 -127 -70 -183t-121 -56t-129 34l-70 41q-43 25 -71 25q-66 0 -101 -123z" />
    <glyph glyph-name="Adieresis" unicode="&#xc4;" horiz-adv-x="1335" 
d="M379 0h-434l14 74l49 10q33 6 56.5 25t46.5 59l667 1216h183l190 -1218q7 -43 21 -59.5t45 -22.5l49 -8l-15 -76h-481l14 76l103 10q69 6 69 59q0 10 -6 70l-39 260h-499l-142 -264q-30 -58 -30 -82q0 -21 11.5 -30.5t41.5 -12.5l102 -12zM467 575h432q-87 581 -92 644
q-80 -155 -340 -644zM805 1634q0 -46 -30.5 -77t-82.5 -31q-38 0 -65 25t-27 69q0 54 33 86.5t76 32.5q44 0 70 -26t26 -79zM1174 1634q0 -46 -30.5 -77t-82.5 -31q-38 0 -65 25t-27 69q0 54 32.5 86.5t75.5 32.5q44 0 70.5 -26t26.5 -79z" />
    <glyph glyph-name="Aring" unicode="&#xc5;" horiz-adv-x="1335" 
d="M379 0h-434l14 74l49 10q33 6 56.5 25t46.5 59l667 1216h183l190 -1218q7 -43 21 -59.5t45 -22.5l49 -8l-15 -76h-481l14 76l103 10q69 6 69 59q0 10 -6 70l-39 260h-499l-142 -264q-30 -58 -30 -82q0 -21 11.5 -30.5t41.5 -12.5l102 -12zM467 575h432q-87 581 -92 644
q-80 -155 -340 -644zM1069 1649q0 -84 -51 -137.5t-131 -53.5q-74 0 -120 45.5t-46 116.5q0 84 53.5 137t134.5 53q75 0 117.5 -43.5t42.5 -117.5zM1006 1647q0 49 -28.5 77.5t-76.5 28.5q-52 0 -83.5 -37t-31.5 -94q0 -46 27.5 -76t77.5 -30q51 0 83 37t32 94z" />
    <glyph glyph-name="AE" unicode="&#xc6;" horiz-adv-x="1955" 
d="M393 0h-450l16 76l51 8q36 6 62.5 24t64.5 62l864 1028q11 13 23 34.5t12 33.5q0 28 -47 34l-82 9l17 75h1024q2 -10 2 -55q0 -77 -31 -248l-98 -4l-4 103q-3 61 -24 82.5t-89 21.5h-320l-100 -520h445l-21 -98h-444l-90 -469q-7 -28 -7 -50q0 -27 16 -37t54 -10h319
q63 0 98.5 29.5t69.5 108.5l39 94l97 -6q-14 -92 -38.5 -189.5t-41.5 -136.5h-979l14 76l64 8q59 9 76 24.5t26 67.5l59 299h-510l-231 -285q-37 -50 -37 -71q0 -28 39 -33l107 -10zM616 575h443q12 64 73.5 377.5t67.5 333.5q-142 -187 -584 -711z" />
    <glyph glyph-name="Ccedilla" unicode="&#xc7;" horiz-adv-x="1282" 
d="M399 -555l4 63q47 8 80.5 15.5t69 21.5t57 31.5t35.5 44.5t14 62q0 46 -39 76t-110 30l90 193q-150 19 -251 92.5t-147 184t-46 255.5q0 224 82.5 422t250.5 324q203 151 496 151q96 0 191 -13t141 -32q4 -28 4 -53q0 -50 -9.5 -130.5t-19.5 -119.5l-90 -4l-8 55
q-12 87 -33 125q-41 74 -196 74q-223 0 -377 -154q-112 -113 -172 -290t-60 -351q0 -216 102.5 -330t284.5 -114q188 0 271 92q43 54 67 98l27 51l88 -10q-5 -40 -36 -134.5t-54 -135.5q-58 -21 -175.5 -41.5t-213.5 -20.5q-33 0 -47 2l-47 -100q92 -6 139 -53t47 -111
q0 -66 -31.5 -116t-89 -81t-129 -47.5t-160.5 -21.5z" />
    <glyph glyph-name="Egrave" unicode="&#xc8;" horiz-adv-x="1191" 
d="M1018 0h-979l14 76l60 8q58 9 77.5 25.5t28.5 66.5l199 1018q6 42 6 55q0 24 -19 35t-61 16l-70 9l17 75h893q4 -24 4 -55q0 -90 -31 -248l-92 -4l-8 82q-8 75 -30.5 100t-92.5 25h-313l-101 -518h445l-19 -100h-444l-90 -471q-6 -24 -6 -50t15 -35.5t52 -9.5h320
q64 0 99.5 27.5t68.5 105.5l40 99l95 -6q-12 -86 -36.5 -188.5t-41.5 -137.5zM961 1489h-150l-348 280h211z" />
    <glyph glyph-name="Eacute" unicode="&#xc9;" horiz-adv-x="1191" 
d="M1018 0h-979l14 76l60 8q58 9 77.5 25.5t28.5 66.5l199 1018q6 42 6 55q0 24 -19 35t-61 16l-70 9l17 75h893q4 -24 4 -55q0 -90 -31 -248l-92 -4l-8 82q-8 75 -30.5 100t-92.5 25h-313l-101 -518h445l-19 -100h-444l-90 -471q-6 -24 -6 -50t15 -35.5t52 -9.5h320
q64 0 99.5 27.5t68.5 105.5l40 99l95 -6q-12 -86 -36.5 -188.5t-41.5 -137.5zM829 1468h-163l387 293h231z" />
    <glyph glyph-name="Ecircumflex" unicode="&#xca;" horiz-adv-x="1191" 
d="M1018 0h-979l14 76l60 8q58 9 77.5 25.5t28.5 66.5l199 1018q6 42 6 55q0 24 -19 35t-61 16l-70 9l17 75h893q4 -24 4 -55q0 -90 -31 -248l-92 -4l-8 82q-8 75 -30.5 100t-92.5 25h-313l-101 -518h445l-19 -100h-444l-90 -471q-6 -24 -6 -50t15 -35.5t52 -9.5h320
q64 0 99.5 27.5t68.5 105.5l40 99l95 -6q-12 -86 -36.5 -188.5t-41.5 -137.5zM588 1489h-131l331 289h132l233 -289h-121l-188 184z" />
    <glyph glyph-name="Edieresis" unicode="&#xcb;" horiz-adv-x="1191" 
d="M1018 0h-979l14 76l60 8q58 9 77.5 25.5t28.5 66.5l199 1018q6 42 6 55q0 24 -19 35t-61 16l-70 9l17 75h893q4 -24 4 -55q0 -90 -31 -248l-92 -4l-8 82q-8 75 -30.5 100t-92.5 25h-313l-101 -518h445l-19 -100h-444l-90 -471q-6 -24 -6 -50t15 -35.5t52 -9.5h320
q64 0 99.5 27.5t68.5 105.5l40 99l95 -6q-12 -86 -36.5 -188.5t-41.5 -137.5zM733 1634q0 -46 -30 -77t-82 -31q-38 0 -65.5 25.5t-27.5 68.5q0 54 33 86.5t76 32.5q44 0 70 -26t26 -79zM1102 1634q0 -46 -30.5 -77t-82.5 -31q-38 0 -65 25t-27 69q0 54 33 86.5t76 32.5
q44 0 70 -26t26 -79z" />
    <glyph glyph-name="Igrave" unicode="&#xcc;" horiz-adv-x="702" 
d="M541 0h-502l14 76l58 8q59 9 79 25.5t29 64.5l199 1016q6 40 6 55q-2 24 -19.5 36.5t-60.5 18.5l-70 9l17 75h502l-17 -75l-63 -9q-57 -9 -76.5 -26t-28.5 -64l-198 -1026q0 -1 -3.5 -20t-3.5 -27q0 -23 18.5 -36t59.5 -17l74 -8zM723 1489h-150l-348 280h211z" />
    <glyph glyph-name="Iacute" unicode="&#xcd;" horiz-adv-x="702" 
d="M541 0h-502l14 76l58 8q59 9 79 25.5t29 64.5l199 1016q6 40 6 55q-2 24 -19.5 36.5t-60.5 18.5l-70 9l17 75h502l-17 -75l-63 -9q-57 -9 -76.5 -26t-28.5 -64l-198 -1026q0 -1 -3.5 -20t-3.5 -27q0 -23 18.5 -36t59.5 -17l74 -8zM571 1468h-163l387 293h231z" />
    <glyph glyph-name="Icircumflex" unicode="&#xce;" horiz-adv-x="702" 
d="M541 0h-502l14 76l58 8q59 9 79 25.5t29 64.5l199 1016q6 40 6 55q-2 24 -19.5 36.5t-60.5 18.5l-70 9l17 75h502l-17 -75l-63 -9q-57 -9 -76.5 -26t-28.5 -64l-198 -1026q0 -1 -3.5 -20t-3.5 -27q0 -23 18.5 -36t59.5 -17l74 -8zM342 1489h-131l332 289h131l233 -289
h-121l-188 184z" />
    <glyph glyph-name="Idieresis" unicode="&#xcf;" horiz-adv-x="702" 
d="M541 0h-502l14 76l58 8q59 9 79 25.5t29 64.5l199 1016q6 40 6 55q-2 24 -19.5 36.5t-60.5 18.5l-70 9l17 75h502l-17 -75l-63 -9q-57 -9 -76.5 -26t-28.5 -64l-198 -1026q0 -1 -3.5 -20t-3.5 -27q0 -23 18.5 -36t59.5 -17l74 -8zM520 1634q0 -46 -30 -77t-82 -31
q-38 0 -65.5 25.5t-27.5 68.5q0 54 33 86.5t76 32.5q44 0 70 -26t26 -79zM889 1634q0 -46 -30.5 -77t-82.5 -31q-38 0 -65 25t-27 69q0 54 33 86.5t76 32.5q44 0 70 -26t26 -79z" />
    <glyph glyph-name="Eth" unicode="&#xd0;" horiz-adv-x="1421" 
d="M39 0l14 76l60 8q58 9 77.5 25.5t28.5 64.5l94 494h-174l23 100h172l82 426q6 42 6 53q0 24 -17.5 35.5t-60.5 17.5l-70 9l17 75h399q319 0 467 -67q110 -50 177 -156.5t67 -271.5q0 -110 -15.5 -210t-50.5 -197t-89 -176.5t-135 -144t-183 -102.5q-163 -59 -469 -59
h-420zM412 201q-6 -34 -6 -51q0 -23 25.5 -36.5t70.5 -13.5h69q79 0 161.5 18t141.5 48q83 43 148.5 129t104 190t58 210.5t19.5 205.5q0 247 -219 342q-96 41 -258 41h-106l-101 -516h371l-23 -100h-366z" />
    <glyph glyph-name="Ntilde" unicode="&#xd1;" horiz-adv-x="1472" 
d="M473 0h-434l14 74l60 10q60 9 77 25.5t27 66.5l201 1032q4 28 4 39q0 26 -18.5 36t-65.5 17l-64 9l15 75h373q102 -249 192 -466.5t131.5 -317t74.5 -180t45 -111t19 -53.5q17 95 38 204t61.5 319t81.5 423q4 16 4 43q0 17 -6 29q-14 22 -84 29l-64 6l16 75h428l-14 -75
l-57 -9q-58 -7 -78 -24.5t-29 -65.5l-235 -1210h-158q-126 305 -222 540t-143.5 351t-77 189t-38.5 96t-12 30q-34 -188 -193 -1009q-8 -46 -8 -62q0 -44 92 -53l61 -8zM766 1493h-98q55 244 200 244q58 0 119 -39l66 -41q41 -25 84 -25q30 0 52 27.5t42 95.5h96
q-23 -127 -69.5 -183t-120.5 -56t-129 34l-70 41q-43 25 -72 25q-66 0 -100 -123z" />
    <glyph glyph-name="Ograve" unicode="&#xd2;" horiz-adv-x="1433" 
d="M1399 903q0 -134 -27 -267.5t-94.5 -270.5t-167.5 -226q-187 -166 -444 -166q-244 0 -377 128.5t-133 381.5q0 222 75.5 428t231.5 340q189 160 450 160q233 0 359.5 -129t126.5 -379zM1198 938q0 174 -74.5 274.5t-234.5 100.5q-173 0 -301 -137q-112 -122 -173 -328
t-61 -393q0 -84 15 -149.5t50.5 -119.5t100.5 -83t158 -29q185 0 309 145q70 80 120 217.5t70.5 265t20.5 236.5zM1055 1489h-150l-348 280h211z" />
    <glyph glyph-name="Oacute" unicode="&#xd3;" horiz-adv-x="1433" 
d="M1399 903q0 -134 -27 -267.5t-94.5 -270.5t-167.5 -226q-187 -166 -444 -166q-244 0 -377 128.5t-133 381.5q0 222 75.5 428t231.5 340q189 160 450 160q233 0 359.5 -129t126.5 -379zM1198 938q0 174 -74.5 274.5t-234.5 100.5q-173 0 -301 -137q-112 -122 -173 -328
t-61 -393q0 -84 15 -149.5t50.5 -119.5t100.5 -83t158 -29q185 0 309 145q70 80 120 217.5t70.5 265t20.5 236.5zM936 1477h-164l387 292h232z" />
    <glyph glyph-name="Ocircumflex" unicode="&#xd4;" horiz-adv-x="1433" 
d="M1399 903q0 -134 -27 -267.5t-94.5 -270.5t-167.5 -226q-187 -166 -444 -166q-244 0 -377 128.5t-133 381.5q0 222 75.5 428t231.5 340q189 160 450 160q233 0 359.5 -129t126.5 -379zM1198 938q0 174 -74.5 274.5t-234.5 100.5q-173 0 -301 -137q-112 -122 -173 -328
t-61 -393q0 -84 15 -149.5t50.5 -119.5t100.5 -83t158 -29q185 0 309 145q70 80 120 217.5t70.5 265t20.5 236.5zM719 1489h-131l332 289h131l233 -289h-121l-188 184z" />
    <glyph glyph-name="Otilde" unicode="&#xd5;" horiz-adv-x="1433" 
d="M1399 903q0 -134 -27 -267.5t-94.5 -270.5t-167.5 -226q-187 -166 -444 -166q-244 0 -377 128.5t-133 381.5q0 222 75.5 428t231.5 340q189 160 450 160q233 0 359.5 -129t126.5 -379zM1198 938q0 174 -74.5 274.5t-234.5 100.5q-173 0 -301 -137q-112 -122 -173 -328
t-61 -393q0 -84 15 -149.5t50.5 -119.5t100.5 -83t158 -29q185 0 309 145q70 80 120 217.5t70.5 265t20.5 236.5zM705 1493h-99q55 244 201 244q58 0 119 -39l65 -41q41 -25 84 -25q30 0 52 27.5t42 95.5h97q-23 -127 -70 -183t-121 -56t-129 34l-69 41q-43 25 -72 25
q-65 0 -100 -123z" />
    <glyph glyph-name="Odieresis" unicode="&#xd6;" horiz-adv-x="1433" 
d="M1399 903q0 -134 -27 -267.5t-94.5 -270.5t-167.5 -226q-187 -166 -444 -166q-244 0 -377 128.5t-133 381.5q0 222 75.5 428t231.5 340q189 160 450 160q233 0 359.5 -129t126.5 -379zM1198 938q0 174 -74.5 274.5t-234.5 100.5q-173 0 -301 -137q-112 -122 -173 -328
t-61 -393q0 -84 15 -149.5t50.5 -119.5t100.5 -83t158 -29q185 0 309 145q70 80 120 217.5t70.5 265t20.5 236.5zM874 1634q0 -46 -30 -77t-82 -31q-38 0 -65 25t-27 69q0 54 32.5 86.5t75.5 32.5q44 0 70 -26t26 -79zM1243 1634q0 -46 -30.5 -77t-82.5 -31q-38 0 -65 25
t-27 69q0 54 33 86.5t76 32.5q44 0 70 -26t26 -79z" />
    <glyph glyph-name="multiply" unicode="&#xd7;" horiz-adv-x="1359" 
d="M358 152l-75 86l381 342l-297 348l92 80l295 -346l383 346l77 -86l-387 -344l301 -342l-90 -82l-299 342z" />
    <glyph glyph-name="Oslash" unicode="&#xd8;" horiz-adv-x="1433" 
d="M227 -82l-63 49l112 146q-120 126 -120 370q0 222 75.5 428t231.5 340q189 160 450 160q177 0 299 -80l115 148l66 -49l-117 -152q123 -129 123 -375q0 -134 -27 -267.5t-94.5 -270.5t-167.5 -226q-187 -166 -444 -166q-203 0 -328 88zM1198 938q0 118 -33 197l-739 -959
q79 -102 252 -102q185 0 309 145q70 80 120 217.5t70.5 265t20.5 236.5zM354 455q0 -118 29 -201l739 958q-79 101 -233 101q-173 0 -301 -137q-112 -122 -173 -328t-61 -393z" />
    <glyph glyph-name="Ugrave" unicode="&#xd9;" horiz-adv-x="1490" 
d="M236 1309l16 75h504l-15 -75l-63 -9q-56 -7 -77 -25t-30 -65l-116 -602q-35 -181 -35 -258q0 -133 87 -202.5t226 -69.5q223 0 340 155q84 111 139 398l109 555q8 36 8 61t-18 36.5t-58 16.5l-86 9l15 75h428l-15 -75l-51 -9q-58 -9 -77 -26t-29 -72l-111 -575
q-41 -210 -78 -312t-110 -180q-147 -162 -451 -162q-72 0 -136.5 11.5t-124.5 38.5t-103 68t-69 104t-26 143q0 89 35 264l115 590q6 42 6 51q0 25 -16.5 38t-61.5 19zM1085 1489h-149l-348 280h211z" />
    <glyph glyph-name="Uacute" unicode="&#xda;" horiz-adv-x="1490" 
d="M236 1309l16 75h504l-15 -75l-63 -9q-56 -7 -77 -25t-30 -65l-116 -602q-35 -181 -35 -258q0 -133 87 -202.5t226 -69.5q223 0 340 155q84 111 139 398l109 555q8 36 8 61t-18 36.5t-58 16.5l-86 9l15 75h428l-15 -75l-51 -9q-58 -9 -77 -26t-29 -72l-111 -575
q-41 -210 -78 -312t-110 -180q-147 -162 -451 -162q-72 0 -136.5 11.5t-124.5 38.5t-103 68t-69 104t-26 143q0 89 35 264l115 590q6 42 6 51q0 25 -16.5 38t-61.5 19zM944 1468h-164l387 293h232z" />
    <glyph glyph-name="Ucircumflex" unicode="&#xdb;" horiz-adv-x="1490" 
d="M236 1309l16 75h504l-15 -75l-63 -9q-56 -7 -77 -25t-30 -65l-116 -602q-35 -181 -35 -258q0 -133 87 -202.5t226 -69.5q223 0 340 155q84 111 139 398l109 555q8 36 8 61t-18 36.5t-58 16.5l-86 9l15 75h428l-15 -75l-51 -9q-58 -9 -77 -26t-29 -72l-111 -575
q-41 -210 -78 -312t-110 -180q-147 -162 -451 -162q-72 0 -136.5 11.5t-124.5 38.5t-103 68t-69 104t-26 143q0 89 35 264l115 590q6 42 6 51q0 25 -16.5 38t-61.5 19zM743 1489h-131l332 289h131l234 -289h-121l-189 184z" />
    <glyph glyph-name="Udieresis" unicode="&#xdc;" horiz-adv-x="1490" 
d="M236 1309l16 75h504l-15 -75l-63 -9q-56 -7 -77 -25t-30 -65l-116 -602q-35 -181 -35 -258q0 -133 87 -202.5t226 -69.5q223 0 340 155q84 111 139 398l109 555q8 36 8 61t-18 36.5t-58 16.5l-86 9l15 75h428l-15 -75l-51 -9q-58 -9 -77 -26t-29 -72l-111 -575
q-41 -210 -78 -312t-110 -180q-147 -162 -451 -162q-72 0 -136.5 11.5t-124.5 38.5t-103 68t-69 104t-26 143q0 89 35 264l115 590q6 42 6 51q0 25 -16.5 38t-61.5 19zM901 1634q0 -46 -30.5 -77t-82.5 -31q-38 0 -65 25t-27 69q0 54 33 86.5t76 32.5q44 0 70 -26t26 -79z
M1270 1634q0 -46 -30.5 -77t-82.5 -31q-38 0 -65 25t-27 69q0 54 33 86.5t76 32.5q44 0 70 -26t26 -79z" />
    <glyph glyph-name="Yacute" unicode="&#xdd;" horiz-adv-x="1318" 
d="M838 0h-504l12 76l64 8q59 9 78 25t28 63l76 389l-283 658q-19 42 -34.5 59.5t-41.5 21.5l-45 9l15 75h489l-14 -75l-94 -11q-36 -5 -52 -14.5t-16 -30.5q0 -33 21 -84q158 -366 208 -495q56 79 390 493q19 24 35 53.5t16 43.5q0 17 -11.5 24t-41.5 10l-95 11l13 75h432
l-15 -75l-43 -9q-27 -6 -50 -24.5t-58 -61.5l-535 -651l-73 -368q-7 -28 -7 -54t16.5 -37.5t59.5 -17.5l72 -10zM868 1468h-163l387 293h231z" />
    <glyph glyph-name="Thorn" unicode="&#xde;" horiz-adv-x="1232" 
d="M541 0h-502l14 76l60 8q59 9 78 26.5t28 69.5l199 1012q6 40 6 55q-2 24 -19.5 37t-60.5 19l-68 8l15 73h502l-15 -73l-63 -8q-58 -9 -77 -24.5t-28 -61.5l-22 -113h155q199 0 301 -39q88 -33 134.5 -107.5t46.5 -169.5q0 -162 -77.5 -275t-232.5 -159q-128 -37 -337 -37
h-144l-24 -129q-4 -32 -4 -51q0 -24 17 -36.5t58 -16.5l74 -8zM453 412h131q155 0 243 32q96 35 146.5 126.5t50.5 205.5q0 117 -78 176q-72 52 -233 52h-146z" />
    <glyph glyph-name="germandbls" unicode="&#xdf;" horiz-adv-x="1122" 
d="M-252 -248l78 8q21 -71 39 -106q16 -33 53 -33q60 0 111 74q52 81 104 346l197 1008q29 152 74.5 232.5t117.5 135.5q47 37 122 59.5t151 22.5q132 0 208 -62t76 -165q0 -48 -13.5 -91.5t-33.5 -76.5t-55.5 -70.5t-66 -63t-79.5 -63.5q-69 -53 -95 -82t-27 -61
q0 -46 43 -84l174 -160q125 -116 125 -239q0 -153 -106 -230.5t-279 -77.5q-66 0 -123 15t-82 35q-25 74 -25 210l72 11q33 -83 35 -86q28 -57 65 -81t88 -24q85 0 142 45t57 119q0 50 -25.5 90.5t-85.5 98.5l-143 137q-88 85 -88 147q0 66 37.5 114t175.5 173
q74 67 116 130.5t42 145.5q0 70 -42 108t-118 38q-54 0 -99.5 -27t-74.5 -67q-53 -72 -88 -256q-18 -98 -104 -528.5t-101 -495.5q-68 -301 -176 -400q-46 -43 -115.5 -68.5t-136.5 -25.5q-74 0 -102 12q-19 83 -19 209z" />
    <glyph glyph-name="agrave" unicode="&#xe0;" horiz-adv-x="1130" 
d="M1057 70q-71 -42 -158 -69.5t-135 -27.5q-31 0 -44 16t-13 50q0 54 31 221t79 350q-111 -227 -272 -420q-79 -96 -169 -156.5t-157 -60.5q-129 0 -129 177q0 174 83.5 399.5t193.5 337.5q140 147 378 147q155 0 324 -39q-35 -127 -137 -594q-39 -195 -39 -247
q0 -21 8 -32t33 -11q48 0 137 28zM877 918q-74 28 -179 28q-79 0 -132 -35.5t-99 -107.5q-67 -103 -130 -290.5t-63 -307.5q0 -41 15 -61.5t37 -20.5q34 0 84.5 36.5t99.5 90.5q119 131 218 310t149 358zM864 1182h-129l-274 319h198z" />
    <glyph glyph-name="aacute" unicode="&#xe1;" horiz-adv-x="1130" 
d="M1057 70q-71 -42 -158 -69.5t-135 -27.5q-31 0 -44 16t-13 50q0 54 31 221t79 350q-111 -227 -272 -420q-79 -96 -169 -156.5t-157 -60.5q-129 0 -129 177q0 174 83.5 399.5t193.5 337.5q140 147 378 147q155 0 324 -39q-35 -127 -137 -594q-39 -195 -39 -247
q0 -21 8 -32t33 -11q48 0 137 28zM877 918q-74 28 -179 28q-79 0 -132 -35.5t-99 -107.5q-67 -103 -130 -290.5t-63 -307.5q0 -41 15 -61.5t37 -20.5q34 0 84.5 36.5t99.5 90.5q119 131 218 310t149 358zM795 1182h-142l301 319h213z" />
    <glyph glyph-name="acircumflex" unicode="&#xe2;" horiz-adv-x="1130" 
d="M1057 70q-71 -42 -158 -69.5t-135 -27.5q-31 0 -44 16t-13 50q0 54 31 221t79 350q-111 -227 -272 -420q-79 -96 -169 -156.5t-157 -60.5q-129 0 -129 177q0 174 83.5 399.5t193.5 337.5q140 147 378 147q155 0 324 -39q-35 -127 -137 -594q-39 -195 -39 -247
q0 -21 8 -32t33 -11q48 0 137 28zM877 918q-74 28 -179 28q-79 0 -132 -35.5t-99 -107.5q-67 -103 -130 -290.5t-63 -307.5q0 -41 15 -61.5t37 -20.5q34 0 84.5 36.5t99.5 90.5q119 131 218 310t149 358zM592 1180h-131l311 317h148l180 -317h-125l-148 209z" />
    <glyph glyph-name="atilde" unicode="&#xe3;" horiz-adv-x="1130" 
d="M1057 70q-71 -42 -158 -69.5t-135 -27.5q-31 0 -44 16t-13 50q0 54 31 221t79 350q-111 -227 -272 -420q-79 -96 -169 -156.5t-157 -60.5q-129 0 -129 177q0 174 83.5 399.5t193.5 337.5q140 147 378 147q155 0 324 -39q-35 -127 -137 -594q-39 -195 -39 -247
q0 -21 8 -32t33 -11q48 0 137 28zM877 918q-74 28 -179 28q-79 0 -132 -35.5t-99 -107.5q-67 -103 -130 -290.5t-63 -307.5q0 -41 15 -61.5t37 -20.5q34 0 84.5 36.5t99.5 90.5q119 131 218 310t149 358zM559 1186h-94q24 121 77.5 184.5t123.5 63.5q38 0 106 -43l49 -31
q56 -35 82 -35q34 0 59 29t46 98h94q-21 -125 -73.5 -186.5t-125.5 -61.5q-57 0 -121 43l-53 35q-46 27 -70 27q-29 0 -56 -32.5t-44 -90.5z" />
    <glyph glyph-name="adieresis" unicode="&#xe4;" horiz-adv-x="1130" 
d="M1057 70q-71 -42 -158 -69.5t-135 -27.5q-31 0 -44 16t-13 50q0 54 31 221t79 350q-111 -227 -272 -420q-79 -96 -169 -156.5t-157 -60.5q-129 0 -129 177q0 174 83.5 399.5t193.5 337.5q140 147 378 147q155 0 324 -39q-35 -127 -137 -594q-39 -195 -39 -247
q0 -21 8 -32t33 -11q48 0 137 28zM877 918q-74 28 -179 28q-79 0 -132 -35.5t-99 -107.5q-67 -103 -130 -290.5t-63 -307.5q0 -41 15 -61.5t37 -20.5q34 0 84.5 36.5t99.5 90.5q119 131 218 310t149 358zM727 1315q0 -46 -31 -77.5t-84 -31.5q-37 0 -63.5 25t-26.5 67
q0 55 32.5 87t76.5 32q43 0 69.5 -25.5t26.5 -76.5zM1075 1315q0 -46 -30 -77.5t-82 -31.5q-38 0 -65.5 25t-27.5 67q0 55 33 87t78 32q42 0 68 -25.5t26 -76.5z" />
    <glyph glyph-name="aring" unicode="&#xe5;" horiz-adv-x="1130" 
d="M1057 70q-71 -42 -158 -69.5t-135 -27.5q-31 0 -44 16t-13 50q0 54 31 221t79 350q-111 -227 -272 -420q-79 -96 -169 -156.5t-157 -60.5q-129 0 -129 177q0 174 83.5 399.5t193.5 337.5q140 147 378 147q155 0 324 -39q-35 -127 -137 -594q-39 -195 -39 -247
q0 -21 8 -32t33 -11q48 0 137 28zM877 918q-74 28 -179 28q-79 0 -132 -35.5t-99 -107.5q-67 -103 -130 -290.5t-63 -307.5q0 -41 15 -61.5t37 -20.5q34 0 84.5 36.5t99.5 90.5q119 131 218 310t149 358zM967 1356q0 -85 -51.5 -143t-139.5 -58q-78 0 -125 47.5t-47 122.5
q0 88 55.5 143.5t139.5 55.5q79 0 123.5 -45.5t44.5 -122.5zM901 1348q0 56 -28 87t-80 31q-56 0 -88.5 -39.5t-32.5 -101.5q0 -50 28 -81.5t82 -31.5t86.5 38.5t32.5 97.5z" />
    <glyph glyph-name="ae" unicode="&#xe6;" horiz-adv-x="1499" 
d="M1401 104q-85 -60 -201.5 -95.5t-214.5 -35.5q-124 0 -178.5 71.5t-54.5 207.5q0 145 53 336q-111 -240 -293 -445q-70 -81 -144.5 -125.5t-136.5 -44.5q-141 0 -141 181q0 178 88.5 408.5t200.5 336.5q139 133 315 133q132 0 219 -24l29 67h94l-47 -188q125 147 311 147
q107 0 157 -54t50 -132q0 -145 -153 -242.5t-412 -128.5q-18 -88 -18 -155q0 -42 3 -73t12 -62.5t24.5 -51t42.5 -31.5t65 -12q76 0 169.5 27.5t180.5 75.5zM879 920q-62 26 -177 26q-73 0 -124 -33t-99 -94q-66 -88 -134.5 -286.5t-68.5 -333.5q0 -34 15 -55t35 -21
q90 0 245 190q48 57 103.5 143t116.5 216.5t88 247.5zM952 528q193 41 301.5 121t108.5 195q0 55 -20.5 82.5t-79.5 27.5q-49 0 -102 -33t-97 -102q-75 -120 -111 -291z" />
    <glyph glyph-name="ccedilla" unicode="&#xe7;" horiz-adv-x="843" 
d="M174 -539l4 62q43 8 74 16t63 21.5t52 30.5t32.5 42.5t12.5 57.5q0 48 -37.5 77t-108.5 29l72 176q-120 1 -177 72t-57 195q0 353 183 606q140 188 375 188q122 0 198 -26q10 -22 10 -93q0 -92 -10 -151l-84 -8q-17 117 -41 151q-28 43 -108 43q-60 0 -120.5 -43.5
t-100.5 -120.5q-51 -99 -87 -236t-36 -255q0 -203 145 -203q158 0 334 98l-21 -92q-165 -105 -333 -121l-37 -98q90 -6 136 -52t46 -112q0 -81 -52 -137t-134 -83t-193 -34z" />
    <glyph glyph-name="egrave" unicode="&#xe8;" horiz-adv-x="856" 
d="M299 481q-18 -78 -18 -194q0 -195 143 -195q73 0 169.5 25t184.5 80l-20 -93q-198 -131 -418 -131q-236 0 -236 281q0 156 49.5 320t133.5 274q69 93 160.5 139.5t189.5 46.5q117 0 173 -50t56 -132q0 -153 -148.5 -247t-418.5 -124zM307 526q193 42 301.5 122t108.5 186
q0 120 -99 120q-50 0 -107.5 -39t-104.5 -120q-63 -110 -99 -269zM721 1182h-129l-275 319h199z" />
    <glyph glyph-name="eacute" unicode="&#xe9;" horiz-adv-x="856" 
d="M299 481q-18 -78 -18 -194q0 -195 143 -195q73 0 169.5 25t184.5 80l-20 -93q-198 -131 -418 -131q-236 0 -236 281q0 156 49.5 320t133.5 274q69 93 160.5 139.5t189.5 46.5q117 0 173 -50t56 -132q0 -153 -148.5 -247t-418.5 -124zM307 526q193 42 301.5 122t108.5 186
q0 120 -99 120q-50 0 -107.5 -39t-104.5 -120q-63 -110 -99 -269zM662 1182h-142l301 319h213z" />
    <glyph glyph-name="ecircumflex" unicode="&#xea;" horiz-adv-x="856" 
d="M299 481q-18 -78 -18 -194q0 -195 143 -195q73 0 169.5 25t184.5 80l-20 -93q-198 -131 -418 -131q-236 0 -236 281q0 156 49.5 320t133.5 274q69 93 160.5 139.5t189.5 46.5q117 0 173 -50t56 -132q0 -153 -148.5 -247t-418.5 -124zM307 526q193 42 301.5 122t108.5 186
q0 120 -99 120q-50 0 -107.5 -39t-104.5 -120q-63 -110 -99 -269zM455 1180h-131l311 317h147l181 -317h-125l-148 209z" />
    <glyph glyph-name="edieresis" unicode="&#xeb;" horiz-adv-x="856" 
d="M299 481q-18 -78 -18 -194q0 -195 143 -195q73 0 169.5 25t184.5 80l-20 -93q-198 -131 -418 -131q-236 0 -236 281q0 156 49.5 320t133.5 274q69 93 160.5 139.5t189.5 46.5q117 0 173 -50t56 -132q0 -153 -148.5 -247t-418.5 -124zM307 526q193 42 301.5 122t108.5 186
q0 120 -99 120q-50 0 -107.5 -39t-104.5 -120q-63 -110 -99 -269zM606 1315q0 -46 -30.5 -77.5t-83.5 -31.5q-37 0 -64 25t-27 67q0 55 32.5 87t76.5 32q43 0 69.5 -25.5t26.5 -76.5zM954 1315q0 -46 -30 -77.5t-82 -31.5q-37 0 -64.5 25t-27.5 67q0 55 33 87t77 32
q42 0 68 -25.5t26 -76.5z" />
    <glyph glyph-name="igrave" unicode="&#xec;" horiz-adv-x="585" 
d="M528 1182h-129l-274 319h199zM485 76q-167 -99 -290 -99q-34 0 -48 15t-14 53q0 16 21 139q17 91 100 475q35 175 35 199q0 30 -24.5 40.5t-110.5 14.5l14 60q74 26 172 44.5t166 20.5q-24 -90 -170 -772q-14 -62 -14 -114q0 -22 7.5 -31.5t28.5 -9.5q32 0 144 32z" />
    <glyph glyph-name="iacute" unicode="&#xed;" horiz-adv-x="585" 
d="M397 1182h-141l301 319h213zM485 76q-167 -99 -290 -99q-34 0 -48 15t-14 53q0 16 21 139q17 91 100 475q35 175 35 199q0 30 -24.5 40.5t-110.5 14.5l14 60q74 26 172 44.5t166 20.5q-24 -90 -170 -772q-14 -62 -14 -114q0 -22 7.5 -31.5t28.5 -9.5q32 0 144 32z" />
    <glyph glyph-name="icircumflex" unicode="&#xee;" horiz-adv-x="585" 
d="M485 76q-167 -99 -290 -99q-34 0 -48 15t-14 53q0 16 21 139q17 91 100 475q35 175 35 199q0 30 -24.5 40.5t-110.5 14.5l14 60q74 26 172 44.5t166 20.5q-24 -90 -170 -772q-14 -62 -14 -114q0 -22 7.5 -31.5t28.5 -9.5q32 0 144 32zM203 1180h-131l311 317h147
l181 -317h-125l-148 209z" />
    <glyph glyph-name="idieresis" unicode="&#xef;" horiz-adv-x="585" 
d="M352 1315q0 -46 -30.5 -77.5t-83.5 -31.5q-37 0 -64 25t-27 67q0 55 32.5 87t76.5 32q43 0 69.5 -25.5t26.5 -76.5zM700 1315q0 -46 -30 -77.5t-82 -31.5q-37 0 -64.5 25t-27.5 67q0 55 33 87t77 32q42 0 68 -25.5t26 -76.5zM485 76q-167 -99 -290 -99q-34 0 -48 15
t-14 53q0 16 21 139q17 91 100 475q35 175 35 199q0 30 -24.5 40.5t-110.5 14.5l14 60q74 26 172 44.5t166 20.5q-24 -90 -170 -772q-14 -62 -14 -114q0 -22 7.5 -31.5t28.5 -9.5q32 0 144 32z" />
    <glyph glyph-name="eth" unicode="&#xf0;" horiz-adv-x="1017" 
d="M1010 1305l-127 -64q96 -164 96 -461q0 -78 -8 -154.5t-27.5 -166.5t-59.5 -175.5t-98 -150.5q-66 -77 -153.5 -118.5t-183.5 -41.5q-166 0 -255.5 87t-89.5 255q0 146 49 294.5t140 248.5q132 150 334 150q139 0 190 -105q-10 169 -63 275l-250 -123l22 106l183 90
q-85 115 -244 154l16 90q232 -38 350 -182l199 98zM795 680q0 117 -34.5 181.5t-125.5 64.5q-118 0 -201 -113q-64 -88 -107.5 -246.5t-43.5 -265.5q0 -59 7 -102t25 -78.5t52 -53.5t84 -18q56 0 108.5 34.5t91.5 90.5q61 87 102.5 249t41.5 257z" />
    <glyph glyph-name="ntilde" unicode="&#xf1;" horiz-adv-x="1116" 
d="M274 0h-168l130 555q53 230 53 303q0 28 -25.5 41t-109.5 14l14 58q49 23 132.5 43t135.5 20q30 0 40.5 -10t10.5 -37q0 -45 -30 -170q-54 -223 -95 -375q61 150 145.5 273t176.5 203q134 116 236 116q50 0 74 -22.5t24 -81.5q0 -58 -29 -203l-90 -434q-20 -97 -20 -141
q0 -22 6.5 -31.5t29.5 -9.5q43 0 144 32l-17 -65q-70 -46 -152.5 -73.5t-133.5 -27.5q-36 0 -51 15t-15 53q0 28 25 150l90 430q35 165 35 206q0 22 -9 32.5t-32 10.5q-72 0 -170 -106q-40 -44 -67 -77.5t-72 -103.5t-78.5 -144.5t-71.5 -191t-66 -251.5zM496 1186h-95
q24 121 77.5 184.5t123.5 63.5q39 0 107 -43l49 -31q56 -35 82 -35q34 0 58.5 28.5t45.5 98.5h94q-21 -125 -73 -186.5t-125 -61.5q-57 0 -121 43l-53 35q-46 27 -70 27q-29 0 -56 -32.5t-44 -90.5z" />
    <glyph glyph-name="ograve" unicode="&#xf2;" horiz-adv-x="1019" 
d="M969 696q0 -148 -43.5 -292.5t-126.5 -249.5q-147 -181 -367 -181q-149 0 -239.5 82.5t-90.5 247.5q0 158 49.5 311.5t147.5 262.5q144 157 348 157q151 0 236.5 -85.5t85.5 -252.5zM791 733q0 45 -5.5 80t-21 68.5t-47 52t-78.5 18.5q-59 0 -116.5 -35t-94.5 -92
q-67 -99 -108 -257.5t-41 -303.5q0 -98 40.5 -154.5t120.5 -56.5q70 0 133.5 45t102.5 119q50 98 82.5 246.5t32.5 269.5zM760 1182h-129l-275 319h199z" />
    <glyph glyph-name="oacute" unicode="&#xf3;" horiz-adv-x="1019" 
d="M969 696q0 -148 -43.5 -292.5t-126.5 -249.5q-147 -181 -367 -181q-149 0 -239.5 82.5t-90.5 247.5q0 158 49.5 311.5t147.5 262.5q144 157 348 157q151 0 236.5 -85.5t85.5 -252.5zM791 733q0 45 -5.5 80t-21 68.5t-47 52t-78.5 18.5q-59 0 -116.5 -35t-94.5 -92
q-67 -99 -108 -257.5t-41 -303.5q0 -98 40.5 -154.5t120.5 -56.5q70 0 133.5 45t102.5 119q50 98 82.5 246.5t32.5 269.5zM698 1182h-141l301 319h213z" />
    <glyph glyph-name="ocircumflex" unicode="&#xf4;" horiz-adv-x="1019" 
d="M969 696q0 -148 -43.5 -292.5t-126.5 -249.5q-147 -181 -367 -181q-149 0 -239.5 82.5t-90.5 247.5q0 158 49.5 311.5t147.5 262.5q144 157 348 157q151 0 236.5 -85.5t85.5 -252.5zM791 733q0 45 -5.5 80t-21 68.5t-47 52t-78.5 18.5q-59 0 -116.5 -35t-94.5 -92
q-67 -99 -108 -257.5t-41 -303.5q0 -98 40.5 -154.5t120.5 -56.5q70 0 133.5 45t102.5 119q50 98 82.5 246.5t32.5 269.5zM492 1180h-132l312 317h147l180 -317h-125l-147 209z" />
    <glyph glyph-name="otilde" unicode="&#xf5;" horiz-adv-x="1019" 
d="M969 696q0 -148 -43.5 -292.5t-126.5 -249.5q-147 -181 -367 -181q-149 0 -239.5 82.5t-90.5 247.5q0 158 49.5 311.5t147.5 262.5q144 157 348 157q151 0 236.5 -85.5t85.5 -252.5zM791 733q0 45 -5.5 80t-21 68.5t-47 52t-78.5 18.5q-59 0 -116.5 -35t-94.5 -92
q-67 -99 -108 -257.5t-41 -303.5q0 -98 40.5 -154.5t120.5 -56.5q70 0 133.5 45t102.5 119q50 98 82.5 246.5t32.5 269.5zM481 1186h-94q24 121 77.5 184.5t123.5 63.5q38 0 106 -43l49 -31q56 -35 82 -35q34 0 59 29t46 98h94q-21 -125 -73.5 -186.5t-125.5 -61.5
q-56 0 -120 43l-54 35q-46 27 -69 27q-29 0 -56.5 -32.5t-44.5 -90.5z" />
    <glyph glyph-name="odieresis" unicode="&#xf6;" horiz-adv-x="1019" 
d="M969 696q0 -148 -43.5 -292.5t-126.5 -249.5q-147 -181 -367 -181q-149 0 -239.5 82.5t-90.5 247.5q0 158 49.5 311.5t147.5 262.5q144 157 348 157q151 0 236.5 -85.5t85.5 -252.5zM791 733q0 45 -5.5 80t-21 68.5t-47 52t-78.5 18.5q-59 0 -116.5 -35t-94.5 -92
q-67 -99 -108 -257.5t-41 -303.5q0 -98 40.5 -154.5t120.5 -56.5q70 0 133.5 45t102.5 119q50 98 82.5 246.5t32.5 269.5zM633 1315q0 -46 -31 -77.5t-84 -31.5q-37 0 -63.5 25t-26.5 67q0 55 32.5 87t76.5 32q43 0 69.5 -25.5t26.5 -76.5zM981 1315q0 -46 -30.5 -77.5
t-82.5 -31.5q-37 0 -64.5 25t-27.5 67q0 55 33 87t78 32q42 0 68 -25.5t26 -76.5z" />
    <glyph glyph-name="divide" unicode="&#xf7;" horiz-adv-x="1359" 
d="M905 907q0 -47 -27 -78.5t-77 -31.5q-36 0 -62 24t-26 66q0 46 29 77t77 31q39 0 62.5 -21.5t23.5 -66.5zM1227 518h-985l24 121h985zM782 268q0 -47 -28 -77.5t-80 -30.5q-36 0 -61 23.5t-25 66.5q0 46 29.5 77t78.5 31q38 0 62 -22.5t24 -67.5z" />
    <glyph glyph-name="oslash" unicode="&#xf8;" horiz-adv-x="1019" 
d="M125 -82l-59 47l96 125q-60 86 -60 213q0 158 49.5 311.5t147.5 262.5q144 157 348 157q120 0 197 -53l102 131l62 -47l-107 -137q68 -87 68 -232q0 -148 -43.5 -292.5t-126.5 -249.5q-147 -181 -365 -181q-134 0 -219 64zM791 733q0 26 -3 47l-489 -635q41 -96 143 -96
q74 0 134 45.5t100 122.5q51 97 83 245t32 271zM279 264v-22l487 635q-38 75 -127 75q-59 0 -116.5 -35t-94.5 -92q-67 -99 -108 -257.5t-41 -303.5z" />
    <glyph glyph-name="ugrave" unicode="&#xf9;" horiz-adv-x="1122" 
d="M1053 78q-167 -101 -295 -101q-58 0 -58 62q0 45 19 156q36 182 88 383q-152 -335 -334 -496q-53 -46 -119.5 -77.5t-120.5 -31.5q-50 0 -75 21.5t-25 75.5q0 57 41 235l84 363q29 136 29 184q0 34 -24 47t-111 14l14 58q66 27 140 45t122 18q31 0 43 -10.5t12 -40.5
q0 -40 -28 -166l-119 -512q-25 -118 -25 -149q0 -39 37 -39q75 0 166 94q274 289 379 797h168l-111 -480q-22 -95 -38.5 -185t-22.5 -135.5t-6 -57.5q0 -39 43 -39q58 0 145 34zM784 1182h-129l-274 319h199z" />
    <glyph glyph-name="uacute" unicode="&#xfa;" horiz-adv-x="1122" 
d="M1053 78q-167 -101 -295 -101q-58 0 -58 62q0 45 19 156q36 182 88 383q-152 -335 -334 -496q-53 -46 -119.5 -77.5t-120.5 -31.5q-50 0 -75 21.5t-25 75.5q0 57 41 235l84 363q29 136 29 184q0 34 -24 47t-111 14l14 58q66 27 140 45t122 18q31 0 43 -10.5t12 -40.5
q0 -40 -28 -166l-119 -512q-25 -118 -25 -149q0 -39 37 -39q75 0 166 94q274 289 379 797h168l-111 -480q-22 -95 -38.5 -185t-22.5 -135.5t-6 -57.5q0 -39 43 -39q58 0 145 34zM711 1182h-142l301 319h213z" />
    <glyph glyph-name="ucircumflex" unicode="&#xfb;" horiz-adv-x="1122" 
d="M1053 78q-167 -101 -295 -101q-58 0 -58 62q0 45 19 156q36 182 88 383q-152 -335 -334 -496q-53 -46 -119.5 -77.5t-120.5 -31.5q-50 0 -75 21.5t-25 75.5q0 57 41 235l84 363q29 136 29 184q0 34 -24 47t-111 14l14 58q66 27 140 45t122 18q31 0 43 -10.5t12 -40.5
q0 -40 -28 -166l-119 -512q-25 -118 -25 -149q0 -39 37 -39q75 0 166 94q274 289 379 797h168l-111 -480q-22 -95 -38.5 -185t-22.5 -135.5t-6 -57.5q0 -39 43 -39q58 0 145 34zM516 1180h-131l311 317h148l180 -317h-125l-147 209z" />
    <glyph glyph-name="udieresis" unicode="&#xfc;" horiz-adv-x="1122" 
d="M1053 78q-167 -101 -295 -101q-58 0 -58 62q0 45 19 156q36 182 88 383q-152 -335 -334 -496q-53 -46 -119.5 -77.5t-120.5 -31.5q-50 0 -75 21.5t-25 75.5q0 57 41 235l84 363q29 136 29 184q0 34 -24 47t-111 14l14 58q66 27 140 45t122 18q31 0 43 -10.5t12 -40.5
q0 -40 -28 -166l-119 -512q-25 -118 -25 -149q0 -39 37 -39q75 0 166 94q274 289 379 797h168l-111 -480q-22 -95 -38.5 -185t-22.5 -135.5t-6 -57.5q0 -39 43 -39q58 0 145 34zM662 1315q0 -46 -31 -77.5t-84 -31.5q-37 0 -63.5 25t-26.5 67q0 56 32 87.5t76 31.5
q43 0 70 -25.5t27 -76.5zM1010 1315q0 -46 -30.5 -77.5t-82.5 -31.5q-37 0 -64.5 25t-27.5 67q0 55 33 87t77 32q42 0 68.5 -25.5t26.5 -76.5z" />
    <glyph glyph-name="yacute" unicode="&#xfd;" horiz-adv-x="1105" 
d="M70 -199l84 6q20 -110 45 -149q30 -43 120 -43q69 0 131 34t99 91q62 93 121 311q75 283 137 531q-139 -330 -334 -500q-53 -46 -119.5 -77.5t-120.5 -31.5q-49 0 -74.5 22t-25.5 75q0 56 35 211l92 407q27 113 27 160q0 36 -24.5 50t-110.5 15l14 58q155 63 260 63
q31 0 43 -11.5t12 -43.5q0 -43 -26 -160l-115 -491q-29 -126 -29 -172q0 -39 37 -39q33 0 78.5 24t89.5 72q276 305 379 799h168l-115 -516q-93 -407 -108 -457q-51 -179 -104.5 -266.5t-141.5 -147.5q-66 -45 -156 -69.5t-170 -24.5q-120 0 -194 29q-13 29 -13 82
q0 99 9 159zM705 1182h-142l301 319h213z" />
    <glyph glyph-name="thorn" unicode="&#xfe;" horiz-adv-x="1083" 
d="M348 -442h-473l19 69l47 8q49 9 66.5 24.5t27.5 61.5l297 1385q39 182 39 215q0 19 -7.5 29t-37 17t-86.5 7l14 60q49 21 137.5 41t140.5 20q30 0 41 -7t11 -30q0 -38 -72 -338l-147 -633q113 238 278 406q60 61 130 101t128 40q73 0 106 -42.5t33 -151.5
q0 -161 -59.5 -360.5t-140.5 -307.5q-74 -98 -168.5 -148.5t-233.5 -50.5q-103 0 -176 23l-49 -250q-6 -42 -6 -53q0 -27 16 -38.5t58 -16.5l84 -11zM287 102q54 -34 198 -34t224 159q56 106 102.5 278t46.5 286q0 63 -16 84.5t-47 21.5q-29 0 -76.5 -32t-93.5 -83
q-36 -41 -58 -68.5t-67 -94t-77.5 -132t-70.5 -168.5t-65 -217z" />
    <glyph glyph-name="ydieresis" unicode="&#xff;" horiz-adv-x="1105" 
d="M70 -199l84 6q20 -110 45 -149q30 -43 120 -43q69 0 131 34t99 91q62 93 121 311q75 283 137 531q-139 -330 -334 -500q-53 -46 -119.5 -77.5t-120.5 -31.5q-49 0 -74.5 22t-25.5 75q0 56 35 211l92 407q27 113 27 160q0 36 -24.5 50t-110.5 15l14 58q155 63 260 63
q31 0 43 -11.5t12 -43.5q0 -43 -26 -160l-115 -491q-29 -126 -29 -172q0 -39 37 -39q33 0 78.5 24t89.5 72q276 305 379 799h168l-115 -516q-93 -407 -108 -457q-51 -179 -104.5 -266.5t-141.5 -147.5q-66 -45 -156 -69.5t-170 -24.5q-120 0 -194 29q-13 29 -13 82
q0 99 9 159zM641 1315q0 -46 -31 -77.5t-84 -31.5q-37 0 -63.5 25t-26.5 67q0 55 32.5 87t76.5 32q43 0 69.5 -25.5t26.5 -76.5zM989 1315q0 -46 -30 -77.5t-82 -31.5q-38 0 -65.5 25t-27.5 67q0 55 33 87t78 32q42 0 68 -25.5t26 -76.5z" />
    <glyph glyph-name="Amacron" unicode="&#x100;" horiz-adv-x="1335" 
d="M379 0h-434l14 74l49 10q33 6 56.5 25t46.5 59l667 1216h183l190 -1218q7 -43 21 -59.5t45 -22.5l49 -8l-15 -76h-481l14 76l103 10q69 6 69 59q0 10 -6 70l-39 260h-499l-142 -264q-30 -58 -30 -82q0 -21 11.5 -30.5t41.5 -12.5l102 -12zM467 575h432q-87 581 -92 644
q-80 -155 -340 -644zM1169 1534h-577l22 117h578z" />
    <glyph glyph-name="amacron" unicode="&#x101;" horiz-adv-x="1130" 
d="M1057 70q-71 -42 -158 -69.5t-135 -27.5q-31 0 -44 16t-13 50q0 54 31 221t79 350q-111 -227 -272 -420q-79 -96 -169 -156.5t-157 -60.5q-129 0 -129 177q0 174 83.5 399.5t193.5 337.5q140 147 378 147q155 0 324 -39q-35 -127 -137 -594q-39 -195 -39 -247
q0 -21 8 -32t33 -11q48 0 137 28zM877 918q-74 28 -179 28q-79 0 -132 -35.5t-99 -107.5q-67 -103 -130 -290.5t-63 -307.5q0 -41 15 -61.5t37 -20.5q34 0 84.5 36.5t99.5 90.5q119 131 218 310t149 358zM1044 1235h-526l23 119h526z" />
    <glyph glyph-name="Abreve" unicode="&#x102;" horiz-adv-x="1335" 
d="M379 0h-434l14 74l49 10q33 6 56.5 25t46.5 59l667 1216h183l190 -1218q7 -43 21 -59.5t45 -22.5l49 -8l-15 -76h-481l14 76l103 10q69 6 69 59q0 10 -6 70l-39 260h-499l-142 -264q-30 -58 -30 -82q0 -21 11.5 -30.5t41.5 -12.5l102 -12zM467 575h432q-87 581 -92 644
q-80 -155 -340 -644zM1180 1767q-19 -141 -98.5 -213.5t-215.5 -72.5q-119 0 -182 60.5t-63 166.5q0 23 4 59h92v-14q0 -154 157 -154q181 0 213 168h93z" />
    <glyph glyph-name="abreve" unicode="&#x103;" horiz-adv-x="1130" 
d="M1057 70q-71 -42 -158 -69.5t-135 -27.5q-31 0 -44 16t-13 50q0 54 31 221t79 350q-111 -227 -272 -420q-79 -96 -169 -156.5t-157 -60.5q-129 0 -129 177q0 174 83.5 399.5t193.5 337.5q140 147 378 147q155 0 324 -39q-35 -127 -137 -594q-39 -195 -39 -247
q0 -21 8 -32t33 -11q48 0 137 28zM877 918q-74 28 -179 28q-79 0 -132 -35.5t-99 -107.5q-67 -103 -130 -290.5t-63 -307.5q0 -41 15 -61.5t37 -20.5q34 0 84.5 36.5t99.5 90.5q119 131 218 310t149 358zM1087 1479q-19 -154 -91 -233t-210 -79q-119 0 -180 63.5t-61 178.5
q0 38 6 68h86q-2 -8 -2 -27q0 -79 35 -120.5t127 -41.5q52 0 88 13.5t58 42t34 58.5t24 77h86z" />
    <glyph glyph-name="Aogonek" unicode="&#x104;" horiz-adv-x="1335" 
d="M379 0h-434l14 74l49 10q33 6 56.5 25t46.5 59l667 1216h183l190 -1218q7 -43 21 -59.5t45 -22.5l49 -8l-15 -76h-211q-89 -89 -124 -151t-35 -121q0 -53 34 -86t93 -33q66 0 131 26l16 -51q-39 -29 -99 -48t-118 -19q-88 0 -137 50t-49 128q0 81 53.5 154.5t175.5 150.5
h-211l14 76l103 10q69 6 69 59q0 10 -6 70l-39 260h-499l-142 -264q-30 -58 -30 -82q0 -21 11.5 -30.5t41.5 -12.5l102 -12zM467 575h432q-87 581 -92 644q-80 -155 -340 -644z" />
    <glyph glyph-name="aogonek" unicode="&#x105;" horiz-adv-x="1130" 
d="M1057 70q-92 -54 -199 -82q-90 -85 -126 -144.5t-36 -115.5q0 -50 33.5 -79.5t85.5 -29.5q66 0 131 21l12 -46q-39 -28 -98 -46.5t-115 -18.5q-83 0 -128.5 46t-45.5 118q0 75 47 142t154 138h-8q-31 0 -44 16t-13 50q0 54 31 221t79 350q-111 -227 -272 -420
q-79 -96 -169 -156.5t-157 -60.5q-129 0 -129 177q0 174 83.5 399.5t193.5 337.5q140 147 378 147q155 0 324 -39q-35 -127 -137 -594q-39 -195 -39 -247q0 -21 8 -32t33 -11q48 0 137 28zM877 918q-74 28 -179 28q-79 0 -132 -35.5t-99 -107.5q-67 -103 -130 -290.5
t-63 -307.5q0 -41 15 -61.5t37 -20.5q34 0 84.5 36.5t99.5 90.5q119 131 218 310t149 358z" />
    <glyph glyph-name="Cacute" unicode="&#x106;" horiz-adv-x="1282" 
d="M1106 35q-58 -21 -175.5 -41.5t-213.5 -20.5q-143 0 -251.5 40t-175.5 113t-100.5 170.5t-33.5 217.5q0 224 82.5 422t250.5 324q203 151 496 151q96 0 191 -13t141 -32q4 -28 4 -53q0 -50 -9.5 -130.5t-19.5 -119.5l-90 -4l-8 55q-12 87 -33 125q-41 74 -196 74
q-223 0 -377 -154q-112 -113 -172 -290t-60 -351q0 -216 102.5 -330t284.5 -114q188 0 271 92q43 54 67 98l27 51l88 -10q-5 -40 -36 -134.5t-54 -135.5zM973 1483h-164l387 293h231z" />
    <glyph glyph-name="cacute" unicode="&#x107;" horiz-adv-x="843" 
d="M741 98q-199 -125 -401 -125q-120 0 -178 71.5t-58 195.5q0 353 183 606q140 188 375 188q122 0 198 -26q10 -22 10 -93q0 -92 -10 -151l-84 -8q-17 117 -41 151q-28 43 -108 43q-60 0 -120.5 -43.5t-100.5 -120.5q-51 -99 -87 -236t-36 -255q0 -203 145 -203
q158 0 334 98zM666 1182h-142l301 319h213z" />
    <glyph glyph-name="Ccircumflex" unicode="&#x108;" horiz-adv-x="1282" 
d="M1106 35q-58 -21 -175.5 -41.5t-213.5 -20.5q-143 0 -251.5 40t-175.5 113t-100.5 170.5t-33.5 217.5q0 224 82.5 422t250.5 324q203 151 496 151q96 0 191 -13t141 -32q4 -28 4 -53q0 -50 -9.5 -130.5t-19.5 -119.5l-90 -4l-8 55q-12 87 -33 125q-41 74 -196 74
q-223 0 -377 -154q-112 -113 -172 -290t-60 -351q0 -216 102.5 -330t284.5 -114q188 0 271 92q43 54 67 98l27 51l88 -10q-5 -40 -36 -134.5t-54 -135.5zM725 1489h-131l332 289h131l233 -289h-121l-188 184z" />
    <glyph glyph-name="ccircumflex" unicode="&#x109;" horiz-adv-x="843" 
d="M741 98q-199 -125 -401 -125q-120 0 -178 71.5t-58 195.5q0 353 183 606q140 188 375 188q122 0 198 -26q10 -22 10 -93q0 -92 -10 -151l-84 -8q-17 117 -41 151q-28 43 -108 43q-60 0 -120.5 -43.5t-100.5 -120.5q-51 -99 -87 -236t-36 -255q0 -203 145 -203
q158 0 334 98zM473 1180h-131l311 317h148l180 -317h-125l-147 209z" />
    <glyph glyph-name="Cdotaccent" unicode="&#x10a;" horiz-adv-x="1282" 
d="M1106 35q-58 -21 -175.5 -41.5t-213.5 -20.5q-143 0 -251.5 40t-175.5 113t-100.5 170.5t-33.5 217.5q0 224 82.5 422t250.5 324q203 151 496 151q96 0 191 -13t141 -32q4 -28 4 -53q0 -50 -9.5 -130.5t-19.5 -119.5l-90 -4l-8 55q-12 87 -33 125q-41 74 -196 74
q-223 0 -377 -154q-112 -113 -172 -290t-60 -351q0 -216 102.5 -330t284.5 -114q188 0 271 92q43 54 67 98l27 51l88 -10q-5 -40 -36 -134.5t-54 -135.5zM1085 1651q0 -53 -31 -90t-85 -37q-46 0 -76.5 29.5t-30.5 76.5q0 52 35.5 88.5t89.5 36.5q43 0 70.5 -27.5
t27.5 -76.5z" />
    <glyph glyph-name="cdotaccent" unicode="&#x10b;" horiz-adv-x="843" 
d="M741 98q-199 -125 -401 -125q-120 0 -178 71.5t-58 195.5q0 353 183 606q140 188 375 188q122 0 198 -26q10 -22 10 -93q0 -92 -10 -151l-84 -8q-17 117 -41 151q-28 43 -108 43q-60 0 -120.5 -43.5t-100.5 -120.5q-51 -99 -87 -236t-36 -255q0 -203 145 -203
q158 0 334 98zM799 1337q0 -53 -31.5 -90t-85.5 -37q-46 0 -76.5 30t-30.5 77q0 52 35.5 88.5t89.5 36.5q43 0 71 -28t28 -77z" />
    <glyph glyph-name="Ccaron" unicode="&#x10c;" horiz-adv-x="1282" 
d="M1106 35q-58 -21 -175.5 -41.5t-213.5 -20.5q-143 0 -251.5 40t-175.5 113t-100.5 170.5t-33.5 217.5q0 224 82.5 422t250.5 324q203 151 496 151q96 0 191 -13t141 -32q4 -28 4 -53q0 -50 -9.5 -130.5t-19.5 -119.5l-90 -4l-8 55q-12 87 -33 125q-41 74 -196 74
q-223 0 -377 -154q-112 -113 -172 -290t-60 -351q0 -216 102.5 -330t284.5 -114q188 0 271 92q43 54 67 98l27 51l88 -10q-5 -40 -36 -134.5t-54 -135.5zM1210 1780h142l-334 -291h-139l-236 291h129l186 -181z" />
    <glyph glyph-name="ccaron" unicode="&#x10d;" horiz-adv-x="843" 
d="M741 98q-199 -125 -401 -125q-120 0 -178 71.5t-58 195.5q0 353 183 606q140 188 375 188q122 0 198 -26q10 -22 10 -93q0 -92 -10 -151l-84 -8q-17 117 -41 151q-28 43 -108 43q-60 0 -120.5 -43.5t-100.5 -120.5q-51 -99 -87 -236t-36 -255q0 -203 145 -203
q158 0 334 98zM889 1497h133l-313 -317h-148l-178 317h125l145 -207z" />
    <glyph glyph-name="Dcaron" unicode="&#x10e;" horiz-adv-x="1421" 
d="M39 0l14 76l60 8q58 9 77.5 25.5t28.5 64.5l197 1020q6 42 6 53q0 24 -17.5 35.5t-60.5 17.5l-70 9l17 75h399q319 0 467 -67q110 -50 177 -156.5t67 -271.5q0 -110 -15.5 -210t-50.5 -197t-89 -176.5t-135 -144t-183 -102.5q-163 -59 -469 -59h-420zM412 201
q-6 -34 -6 -51q0 -23 25.5 -36.5t70.5 -13.5h69q79 0 161.5 18t141.5 48q83 43 148.5 129t104 190t58 210.5t19.5 205.5q0 247 -219 342q-96 41 -258 41h-106zM1092 1780h141l-334 -291h-139l-236 291h129l187 -181z" />
    <glyph glyph-name="dcaron" unicode="&#x10f;" horiz-adv-x="1144" 
d="M1057 70q-68 -41 -155.5 -69t-133.5 -28q-34 0 -47.5 15t-13.5 49q0 54 29 212t79 363q-126 -261 -272 -430q-82 -95 -170.5 -152t-155.5 -57q-127 0 -127 174q0 176 83 402t194 340q139 145 364 145q103 0 168 -18l25 104q34 162 34 201q0 19 -7 29t-36 17t-86 7l15 60
q50 21 137 41t139 20q29 0 39 -6.5t10 -28.5q0 -26 -71 -321q-93 -383 -170 -740q-37 -169 -37 -245q0 -21 8 -32t33 -11q50 0 139 28zM874 920q-76 26 -178 26q-76 0 -126.5 -35t-98.5 -104q-67 -100 -131 -289t-64 -313q0 -42 14 -62t36 -20q35 0 89.5 39t106.5 98
q112 127 207 303t145 357zM1290 1065l-78 29q123 184 156 389h145q-16 -110 -82 -228t-141 -190z" />
    <glyph glyph-name="Dcroat" unicode="&#x110;" horiz-adv-x="1421" 
d="M39 0l14 76l60 8q58 9 77.5 25.5t28.5 64.5l94 494h-174l23 100h172l82 426q6 42 6 53q0 24 -17.5 35.5t-60.5 17.5l-70 9l17 75h399q319 0 467 -67q110 -50 177 -156.5t67 -271.5q0 -110 -15.5 -210t-50.5 -197t-89 -176.5t-135 -144t-183 -102.5q-163 -59 -469 -59
h-420zM412 201q-6 -34 -6 -51q0 -23 25.5 -36.5t70.5 -13.5h69q79 0 161.5 18t141.5 48q83 43 148.5 129t104 190t58 210.5t19.5 205.5q0 247 -219 342q-96 41 -258 41h-106l-101 -516h371l-23 -100h-366z" />
    <glyph glyph-name="dcroat" unicode="&#x111;" horiz-adv-x="1144" 
d="M1057 70q-68 -41 -155.5 -69t-133.5 -28q-34 0 -47.5 15t-13.5 49q0 54 29 212t79 363q-126 -261 -272 -430q-82 -95 -170.5 -152t-155.5 -57q-127 0 -127 174q0 176 83 402t194 340q139 145 364 145q103 0 168 -18l23 100h-220l23 92h217q16 98 16 113q0 19 -7 29
t-36 17t-86 7l15 60q50 21 137 41t139 20q29 0 39 -6.5t10 -28.5q0 -18 -55 -252h143l-20 -92h-145q-88 -362 -164 -717q-37 -169 -37 -245q0 -21 8 -32t33 -11q50 0 139 28zM874 920q-76 26 -178 26q-76 0 -126.5 -35t-98.5 -104q-67 -100 -131 -289t-64 -313q0 -42 14 -62
t36 -20q35 0 89.5 39t106.5 98q112 127 207 303t145 357z" />
    <glyph glyph-name="Emacron" unicode="&#x112;" horiz-adv-x="1191" 
d="M1018 0h-979l14 76l60 8q58 9 77.5 25.5t28.5 66.5l199 1018q6 42 6 55q0 24 -19 35t-61 16l-70 9l17 75h893q4 -24 4 -55q0 -90 -31 -248l-92 -4l-8 82q-8 75 -30.5 100t-92.5 25h-313l-101 -518h445l-19 -100h-444l-90 -471q-6 -24 -6 -50t15 -35.5t52 -9.5h320
q64 0 99.5 27.5t68.5 105.5l40 99l95 -6q-12 -86 -36.5 -188.5t-41.5 -137.5zM1098 1534h-578l23 117h577z" />
    <glyph glyph-name="emacron" unicode="&#x113;" horiz-adv-x="856" 
d="M299 481q-18 -78 -18 -194q0 -195 143 -195q73 0 169.5 25t184.5 80l-20 -93q-198 -131 -418 -131q-236 0 -236 281q0 156 49.5 320t133.5 274q69 93 160.5 139.5t189.5 46.5q117 0 173 -50t56 -132q0 -153 -148.5 -247t-418.5 -124zM307 526q193 42 301.5 122t108.5 186
q0 120 -99 120q-50 0 -107.5 -39t-104.5 -120q-63 -110 -99 -269zM928 1235h-527l23 119h526z" />
    <glyph glyph-name="Ebreve" unicode="&#x114;" horiz-adv-x="1191" 
d="M1018 0h-979l14 76l60 8q58 9 77.5 25.5t28.5 66.5l199 1018q6 42 6 55q0 24 -19 35t-61 16l-70 9l17 75h893q4 -24 4 -55q0 -90 -31 -248l-92 -4l-8 82q-8 75 -30.5 100t-92.5 25h-313l-101 -518h445l-19 -100h-444l-90 -471q-6 -24 -6 -50t15 -35.5t52 -9.5h320
q64 0 99.5 27.5t68.5 105.5l40 99l95 -6q-12 -86 -36.5 -188.5t-41.5 -137.5zM1110 1767q-38 -286 -313 -286q-119 0 -182.5 60.5t-63.5 166.5q0 23 4 59h92v-14q0 -154 158 -154q181 0 213 168h92z" />
    <glyph glyph-name="ebreve" unicode="&#x115;" horiz-adv-x="856" 
d="M299 481q-18 -78 -18 -194q0 -195 143 -195q73 0 169.5 25t184.5 80l-20 -93q-198 -131 -418 -131q-236 0 -236 281q0 156 49.5 320t133.5 274q69 93 160.5 139.5t189.5 46.5q117 0 173 -50t56 -132q0 -153 -148.5 -247t-418.5 -124zM307 526q193 42 301.5 122t108.5 186
q0 120 -99 120q-50 0 -107.5 -39t-104.5 -120q-63 -110 -99 -269zM958 1479q-19 -154 -91 -233t-210 -79q-119 0 -180 63.5t-61 178.5q0 38 6 68h86q-2 -8 -2 -27q0 -79 35 -120.5t127 -41.5q52 0 88 13.5t58 42t34 58.5t24 77h86z" />
    <glyph glyph-name="Edotaccent" unicode="&#x116;" horiz-adv-x="1191" 
d="M1018 0h-979l14 76l60 8q58 9 77.5 25.5t28.5 66.5l199 1018q6 42 6 55q0 24 -19 35t-61 16l-70 9l17 75h893q4 -24 4 -55q0 -90 -31 -248l-92 -4l-8 82q-8 75 -30.5 100t-92.5 25h-313l-101 -518h445l-19 -100h-444l-90 -471q-6 -24 -6 -50t15 -35.5t52 -9.5h320
q64 0 99.5 27.5t68.5 105.5l40 99l95 -6q-12 -86 -36.5 -188.5t-41.5 -137.5zM928 1651q0 -53 -31.5 -90t-85.5 -37q-46 0 -76 29.5t-30 76.5q0 52 35 88.5t89 36.5q43 0 71 -27.5t28 -76.5z" />
    <glyph glyph-name="edotaccent" unicode="&#x117;" horiz-adv-x="856" 
d="M299 481q-18 -78 -18 -194q0 -195 143 -195q73 0 169.5 25t184.5 80l-20 -93q-198 -131 -418 -131q-236 0 -236 281q0 156 49.5 320t133.5 274q69 93 160.5 139.5t189.5 46.5q117 0 173 -50t56 -132q0 -153 -148.5 -247t-418.5 -124zM307 526q193 42 301.5 122t108.5 186
q0 120 -99 120q-50 0 -107.5 -39t-104.5 -120q-63 -110 -99 -269zM780 1337q0 -53 -31 -90t-85 -37q-46 0 -76.5 30t-30.5 77q0 52 35.5 88.5t89.5 36.5q43 0 70.5 -28t27.5 -77z" />
    <glyph glyph-name="Eogonek" unicode="&#x118;" horiz-adv-x="1191" 
d="M1018 0h-64q-89 -89 -124 -151t-35 -121q0 -53 34 -86t93 -33q66 0 131 26l16 -51q-39 -29 -99 -48t-118 -19q-88 0 -137 50t-49 128q0 81 53.5 154.5t175.5 150.5h-856l14 76l60 8q58 9 77.5 25.5t28.5 66.5l199 1018q6 42 6 55q0 24 -19 35t-61 16l-70 9l17 75h893
q4 -24 4 -55q0 -90 -31 -248l-92 -4l-8 82q-8 75 -30.5 100t-92.5 25h-313l-101 -518h445l-19 -100h-444l-90 -471q-6 -24 -6 -50t15 -35.5t52 -9.5h320q64 0 99.5 27.5t68.5 105.5l40 99l95 -6q-12 -86 -36.5 -188.5t-41.5 -137.5z" />
    <glyph glyph-name="eogonek" unicode="&#x119;" horiz-adv-x="856" 
d="M299 481q-18 -78 -18 -194q0 -195 143 -195q73 0 169.5 25t184.5 80l-20 -93q-138 -92 -279 -116q-89 -84 -124.5 -144t-35.5 -116q0 -50 33.5 -79.5t85.5 -29.5q66 0 131 21l13 -46q-39 -28 -98 -46.5t-115 -18.5q-83 0 -128.5 46t-45.5 118q0 75 47 142.5t155 139.5
q-20 -2 -57 -2q-236 0 -236 281q0 156 49.5 320t133.5 274q69 93 160.5 139.5t189.5 46.5q117 0 173 -50t56 -132q0 -153 -148.5 -247t-418.5 -124zM307 526q193 42 301.5 122t108.5 186q0 120 -99 120q-50 0 -107.5 -39t-104.5 -120q-63 -110 -99 -269z" />
    <glyph glyph-name="Ecaron" unicode="&#x11a;" horiz-adv-x="1191" 
d="M1018 0h-979l14 76l60 8q58 9 77.5 25.5t28.5 66.5l199 1018q6 42 6 55q0 24 -19 35t-61 16l-70 9l17 75h893q4 -24 4 -55q0 -90 -31 -248l-92 -4l-8 82q-8 75 -30.5 100t-92.5 25h-313l-101 -518h445l-19 -100h-444l-90 -471q-6 -24 -6 -50t15 -35.5t52 -9.5h320
q64 0 99.5 27.5t68.5 105.5l40 99l95 -6q-12 -86 -36.5 -188.5t-41.5 -137.5zM1049 1780h141l-334 -291h-139l-236 291h129l187 -181z" />
    <glyph glyph-name="ecaron" unicode="&#x11b;" horiz-adv-x="856" 
d="M299 481q-18 -78 -18 -194q0 -195 143 -195q73 0 169.5 25t184.5 80l-20 -93q-198 -131 -418 -131q-236 0 -236 281q0 156 49.5 320t133.5 274q69 93 160.5 139.5t189.5 46.5q117 0 173 -50t56 -132q0 -153 -148.5 -247t-418.5 -124zM307 526q193 42 301.5 122t108.5 186
q0 120 -99 120q-50 0 -107.5 -39t-104.5 -120q-63 -110 -99 -269zM889 1501h133l-313 -317h-148l-178 317h125l145 -207z" />
    <glyph glyph-name="Gcircumflex" unicode="&#x11c;" horiz-adv-x="1415" 
d="M1178 47q-58 -28 -194 -51t-255 -23q-148 0 -259 39.5t-179 112.5t-101.5 169.5t-33.5 217.5q0 222 77 413t230 314q213 172 536 172q103 0 210.5 -13.5t152.5 -33.5q4 -28 4 -55q0 -111 -27 -244l-98 -4l-4 51q-9 94 -35 135q-25 37 -79 51.5t-162 14.5
q-243 0 -394 -174q-102 -116 -156.5 -283.5t-54.5 -345.5q0 -206 103 -321t289 -115q68 0 144.5 16t115.5 33l63 326q8 46 8 69q0 31 -16 44t-57 18l-82 8l16 84h477l-16 -82l-49 -10q-48 -9 -64.5 -27t-25.5 -66zM748 1489h-132l332 289h131l234 -289h-121l-188 184z" />
    <glyph glyph-name="gcircumflex" unicode="&#x11d;" horiz-adv-x="956" 
d="M715 784q0 170 -131 170q-94 0 -150 -71q-41 -52 -66.5 -132t-25.5 -145q0 -101 33.5 -144.5t103.5 -43.5q95 0 156 90q34 48 57 130t23 146zM393 -389q53 0 105.5 10.5t102.5 32.5t81 63t31 95q0 106 -131 141q-187 51 -238 51q-32 0 -68 -18q-178 -67 -178 -195
q0 -73 73.5 -126.5t221.5 -53.5zM991 889h-135q35 -44 35 -139q0 -73 -33 -160t-94 -144q-109 -106 -293 -106q-71 0 -121 16q-31 -19 -52.5 -48.5t-21.5 -61.5q0 -26 22 -48.5t71 -33.5q24 -6 129.5 -28t187.5 -42q107 -25 161 -75.5t54 -143.5q0 -87 -45.5 -155
t-121.5 -108t-165 -60.5t-184 -20.5q-210 0 -322 67.5t-112 172.5q0 28 7 54.5t28.5 58.5t55.5 58.5t92.5 51t135.5 39.5q-125 43 -125 145q0 128 160 199q-137 59 -137 235q0 94 34.5 180.5t102.5 145.5q56 48 124 72t165 24q48 0 103 -13t79 -28h238zM430 1180h-131
l311 317h148l180 -317h-125l-147 209z" />
    <glyph glyph-name="Gbreve" unicode="&#x11e;" horiz-adv-x="1415" 
d="M1178 47q-58 -28 -194 -51t-255 -23q-148 0 -259 39.5t-179 112.5t-101.5 169.5t-33.5 217.5q0 222 77 413t230 314q213 172 536 172q103 0 210.5 -13.5t152.5 -33.5q4 -28 4 -55q0 -111 -27 -244l-98 -4l-4 51q-9 94 -35 135q-25 37 -79 51.5t-162 14.5
q-243 0 -394 -174q-102 -116 -156.5 -283.5t-54.5 -345.5q0 -206 103 -321t289 -115q68 0 144.5 16t115.5 33l63 326q8 46 8 69q0 31 -16 44t-57 18l-82 8l16 84h477l-16 -82l-49 -10q-48 -9 -64.5 -27t-25.5 -66zM1278 1767q-38 -286 -313 -286q-119 0 -182.5 60.5
t-63.5 166.5q0 23 4 59h92v-14q0 -154 158 -154q181 0 213 168h92z" />
    <glyph glyph-name="gbreve" unicode="&#x11f;" horiz-adv-x="956" 
d="M715 784q0 170 -131 170q-94 0 -150 -71q-41 -52 -66.5 -132t-25.5 -145q0 -101 33.5 -144.5t103.5 -43.5q95 0 156 90q34 48 57 130t23 146zM393 -389q53 0 105.5 10.5t102.5 32.5t81 63t31 95q0 106 -131 141q-187 51 -238 51q-32 0 -68 -18q-178 -67 -178 -195
q0 -73 73.5 -126.5t221.5 -53.5zM991 889h-135q35 -44 35 -139q0 -73 -33 -160t-94 -144q-109 -106 -293 -106q-71 0 -121 16q-31 -19 -52.5 -48.5t-21.5 -61.5q0 -26 22 -48.5t71 -33.5q24 -6 129.5 -28t187.5 -42q107 -25 161 -75.5t54 -143.5q0 -87 -45.5 -155
t-121.5 -108t-165 -60.5t-184 -20.5q-210 0 -322 67.5t-112 172.5q0 28 7 54.5t28.5 58.5t55.5 58.5t92.5 51t135.5 39.5q-125 43 -125 145q0 128 160 199q-137 59 -137 235q0 94 34.5 180.5t102.5 145.5q56 48 124 72t165 24q48 0 103 -13t79 -28h238zM932 1479
q-19 -154 -91 -233t-210 -79q-119 0 -180.5 63.5t-61.5 178.5q0 38 6 68h86q-2 -8 -2 -27q0 -79 35 -120.5t127 -41.5q52 0 88 13.5t58.5 42t34.5 58.5t24 77h86z" />
    <glyph glyph-name="Gdotaccent" unicode="&#x120;" horiz-adv-x="1415" 
d="M1178 47q-58 -28 -194 -51t-255 -23q-148 0 -259 39.5t-179 112.5t-101.5 169.5t-33.5 217.5q0 222 77 413t230 314q213 172 536 172q103 0 210.5 -13.5t152.5 -33.5q4 -28 4 -55q0 -111 -27 -244l-98 -4l-4 51q-9 94 -35 135q-25 37 -79 51.5t-162 14.5
q-243 0 -394 -174q-102 -116 -156.5 -283.5t-54.5 -345.5q0 -206 103 -321t289 -115q68 0 144.5 16t115.5 33l63 326q8 46 8 69q0 31 -16 44t-57 18l-82 8l16 84h477l-16 -82l-49 -10q-48 -9 -64.5 -27t-25.5 -66zM1087 1651q0 -53 -31 -90t-85 -37q-46 0 -76.5 29.5
t-30.5 76.5q0 52 35.5 88.5t89.5 36.5q43 0 70.5 -27.5t27.5 -76.5z" />
    <glyph glyph-name="gdotaccent" unicode="&#x121;" horiz-adv-x="956" 
d="M715 784q0 170 -131 170q-94 0 -150 -71q-41 -52 -66.5 -132t-25.5 -145q0 -101 33.5 -144.5t103.5 -43.5q95 0 156 90q34 48 57 130t23 146zM393 -389q53 0 105.5 10.5t102.5 32.5t81 63t31 95q0 106 -131 141q-187 51 -238 51q-32 0 -68 -18q-178 -67 -178 -195
q0 -73 73.5 -126.5t221.5 -53.5zM991 889h-135q35 -44 35 -139q0 -73 -33 -160t-94 -144q-109 -106 -293 -106q-71 0 -121 16q-31 -19 -52.5 -48.5t-21.5 -61.5q0 -26 22 -48.5t71 -33.5q24 -6 129.5 -28t187.5 -42q107 -25 161 -75.5t54 -143.5q0 -87 -45.5 -155
t-121.5 -108t-165 -60.5t-184 -20.5q-210 0 -322 67.5t-112 172.5q0 28 7 54.5t28.5 58.5t55.5 58.5t92.5 51t135.5 39.5q-125 43 -125 145q0 128 160 199q-137 59 -137 235q0 94 34.5 180.5t102.5 145.5q56 48 124 72t165 24q48 0 103 -13t79 -28h238zM750 1337
q0 -53 -31.5 -90t-85.5 -37q-46 0 -76.5 30t-30.5 77q0 52 35.5 88.5t89.5 36.5q43 0 71 -28t28 -77z" />
    <glyph glyph-name="Gcommaaccent" unicode="&#x122;" horiz-adv-x="1415" 
d="M1178 47q-58 -28 -194 -51t-255 -23q-148 0 -259 39.5t-179 112.5t-101.5 169.5t-33.5 217.5q0 222 77 413t230 314q213 172 536 172q103 0 210.5 -13.5t152.5 -33.5q4 -28 4 -55q0 -111 -27 -244l-98 -4l-4 51q-9 94 -35 135q-25 37 -79 51.5t-162 14.5
q-243 0 -394 -174q-102 -116 -156.5 -283.5t-54.5 -345.5q0 -206 103 -321t289 -115q68 0 144.5 16t115.5 33l63 326q8 46 8 69q0 31 -16 44t-57 18l-82 8l16 84h477l-16 -82l-49 -10q-48 -9 -64.5 -27t-25.5 -66zM547 -535l-78 27q123 184 156 389h145q-16 -109 -82 -225.5
t-141 -190.5z" />
    <glyph glyph-name="gcommaaccent" unicode="&#x123;" horiz-adv-x="956" 
d="M750 1563l77 -27q-123 -184 -153 -385h-137q16 108 78.5 224t134.5 188zM715 784q0 170 -131 170q-94 0 -150 -71q-41 -52 -66.5 -132t-25.5 -145q0 -101 33.5 -144.5t103.5 -43.5q95 0 156 90q34 48 57 130t23 146zM393 -389q53 0 105.5 10.5t102.5 32.5t81 63t31 95
q0 106 -131 141q-187 51 -238 51q-32 0 -68 -18q-178 -67 -178 -195q0 -73 73.5 -126.5t221.5 -53.5zM991 889h-135q35 -44 35 -139q0 -73 -33 -160t-94 -144q-109 -106 -293 -106q-71 0 -121 16q-31 -19 -52.5 -48.5t-21.5 -61.5q0 -26 22 -48.5t71 -33.5q24 -6 129.5 -28
t187.5 -42q107 -25 161 -75.5t54 -143.5q0 -87 -45.5 -155t-121.5 -108t-165 -60.5t-184 -20.5q-210 0 -322 67.5t-112 172.5q0 28 7 54.5t28.5 58.5t55.5 58.5t92.5 51t135.5 39.5q-125 43 -125 145q0 128 160 199q-137 59 -137 235q0 94 34.5 180.5t102.5 145.5
q56 48 124 72t165 24q48 0 103 -13t79 -28h238z" />
    <glyph glyph-name="Hcircumflex" unicode="&#x124;" horiz-adv-x="1515" 
d="M573 0h-497l14 76l57 8q60 9 80 26t29 64l199 1016q6 41 6 55q-2 24 -19.5 36.5t-60.5 18.5l-70 9l17 75h499l-16 -75l-63 -11q-56 -9 -75 -25.5t-28 -62.5l-88 -444h627l82 424q8 36 8 55q-2 24 -18 36.5t-56 18.5l-72 9l17 75h497l-16 -75l-63 -9q-57 -9 -77 -27.5
t-28 -62.5l-201 -1026q-4 -28 -4 -47q0 -44 76 -53l74 -8l-12 -76h-498l12 76l62 8q57 9 74 25t26 65l96 492h-624l-93 -482q-6 -42 -6 -47q0 -24 17 -36.5t57 -16.5l74 -8zM774 1489h-131l332 289h131l233 -289h-120l-189 184z" />
    <glyph glyph-name="hcircumflex" unicode="&#x125;" horiz-adv-x="1112" 
d="M270 0h-168l250 1106q39 163 39 215q0 19 -7 29t-36 17t-86 7l14 60q49 21 139 41t142 20q28 0 37.5 -7t9.5 -30q0 -34 -84 -373q-83 -347 -168 -653q62 149 149.5 277.5t178.5 208.5q53 48 117 82t118 34q50 0 74.5 -22.5t24.5 -81.5q0 -48 -31 -203l-88 -434
q-21 -102 -21 -141q0 -21 7 -31t30 -10q44 0 142 32l-15 -65q-70 -46 -152.5 -73.5t-133.5 -27.5q-37 0 -51.5 15t-14.5 53q0 28 25 150l90 430q35 165 35 206q0 23 -9.5 33t-33.5 10q-72 0 -170 -106q-40 -44 -67 -77.5t-72 -103.5t-78.5 -144.5t-71 -191t-64.5 -251.5z
M352 1526h-131l332 289h131l234 -289h-121l-189 184z" />
    <glyph glyph-name="Hbar" unicode="&#x126;" horiz-adv-x="1515" 
d="M537 0h-498l14 76l58 8q59 9 79 25.5t29 64.5l146 746h-168l18 100h168l35 170q6 40 6 55q-2 24 -19.5 36.5t-60.5 18.5l-70 9l17 75h500l-17 -75l-63 -11q-56 -9 -75 -25.5t-28 -62.5l-39 -190h627l33 170q8 36 8 55q-2 24 -18 36.5t-56 18.5l-71 9l16 75h498l-17 -75
l-63 -9q-57 -9 -77 -27.5t-28 -62.5l-39 -190h168l-20 -100h-166l-143 -736q-4 -28 -4 -47q0 -45 75 -53l74 -8l-12 -76h-498l12 76l62 8q57 9 74 25t26 65l96 492h-624l-92 -482q0 -1 -3.5 -20t-3.5 -27q0 -24 17 -36.5t57 -16.5l74 -8zM520 766h627l29 154h-625z" />
    <glyph glyph-name="hbar" unicode="&#x127;" horiz-adv-x="1112" 
d="M270 0h-168l250 1106q0 1 1 4.5t1 5.5h-155l22 92h154q16 85 16 113q0 19 -7 29t-36 17t-86 7l14 60q49 21 139 41t142 20q28 0 37.5 -7t9.5 -30q0 -32 -55 -250h219l-23 -92h-219l-6 -31q-83 -347 -168 -653q62 149 149.5 277.5t178.5 208.5q53 48 117 82t118 34
q50 0 74.5 -22.5t24.5 -81.5q0 -48 -31 -203l-88 -434q-21 -102 -21 -141q0 -21 7 -31t30 -10q44 0 142 32l-15 -65q-70 -46 -152.5 -73.5t-133.5 -27.5q-37 0 -51.5 15t-14.5 53q0 28 25 150l90 430q35 165 35 206q0 23 -9.5 33t-33.5 10q-72 0 -170 -106
q-40 -44 -67 -77.5t-72 -103.5t-78.5 -144.5t-71 -191t-64.5 -251.5z" />
    <glyph glyph-name="Itilde" unicode="&#x128;" horiz-adv-x="702" 
d="M541 0h-502l14 76l58 8q59 9 79 25.5t29 64.5l199 1016q6 40 6 55q-2 24 -19.5 36.5t-60.5 18.5l-70 9l17 75h502l-17 -75l-63 -9q-57 -9 -76.5 -26t-28.5 -64l-198 -1026q0 -1 -3.5 -20t-3.5 -27q0 -23 18.5 -36t59.5 -17l74 -8zM332 1493h-99q55 244 201 244
q58 0 119 -39l65 -41q41 -25 84 -25q31 0 53 27.5t42 95.5h96q-23 -127 -70 -183t-121 -56t-129 34l-69 41q-43 25 -72 25q-66 0 -100 -123z" />
    <glyph glyph-name="itilde" unicode="&#x129;" horiz-adv-x="585" 
d="M195 1186h-95q24 121 77.5 184.5t123.5 63.5q39 0 107 -43l49 -31q56 -35 82 -35q34 0 58.5 28.5t45.5 98.5h94q-21 -125 -73 -186.5t-125 -61.5q-57 0 -121 43l-53 35q-46 27 -70 27q-29 0 -56 -32.5t-44 -90.5zM485 76q-167 -99 -290 -99q-34 0 -48 15t-14 53
q0 16 21 139q17 91 100 475q35 175 35 199q0 30 -24.5 40.5t-110.5 14.5l14 60q74 26 172 44.5t166 20.5q-24 -90 -170 -772q-14 -62 -14 -114q0 -22 7.5 -31.5t28.5 -9.5q32 0 144 32z" />
    <glyph glyph-name="Imacron" unicode="&#x12a;" horiz-adv-x="702" 
d="M541 0h-502l14 76l58 8q59 9 79 25.5t29 64.5l199 1016q6 40 6 55q-2 24 -19.5 36.5t-60.5 18.5l-70 9l17 75h502l-17 -75l-63 -9q-57 -9 -76.5 -26t-28.5 -64l-198 -1026q0 -1 -3.5 -20t-3.5 -27q0 -23 18.5 -36t59.5 -17l74 -8zM848 1534h-578l23 117h577z" />
    <glyph glyph-name="imacron" unicode="&#x12b;" horiz-adv-x="585" 
d="M668 1235h-527l23 119h526zM485 76q-167 -99 -290 -99q-34 0 -48 15t-14 53q0 16 21 139q17 91 100 475q35 175 35 199q0 30 -24.5 40.5t-110.5 14.5l14 60q74 26 172 44.5t166 20.5q-24 -90 -170 -772q-14 -62 -14 -114q0 -22 7.5 -31.5t28.5 -9.5q32 0 144 32z" />
    <glyph glyph-name="Ibreve" unicode="&#x12c;" horiz-adv-x="702" 
d="M541 0h-502l14 76l58 8q59 9 79 25.5t29 64.5l199 1016q6 40 6 55q-2 24 -19.5 36.5t-60.5 18.5l-70 9l17 75h502l-17 -75l-63 -9q-57 -9 -76.5 -26t-28.5 -64l-198 -1026q0 -1 -3.5 -20t-3.5 -27q0 -23 18.5 -36t59.5 -17l74 -8zM870 1767q-38 -286 -313 -286
q-119 0 -182.5 60.5t-63.5 166.5q0 23 4 59h93v-14q0 -154 157 -154q181 0 213 168h92z" />
    <glyph glyph-name="ibreve" unicode="&#x12d;" horiz-adv-x="585" 
d="M709 1479q-19 -154 -91 -233t-210 -79q-119 0 -180.5 63.5t-61.5 178.5q0 38 6 68h86q-2 -8 -2 -27q0 -79 35 -120.5t127 -41.5q52 0 88 13.5t58.5 42t34.5 58.5t24 77h86zM485 76q-167 -99 -290 -99q-34 0 -48 15t-14 53q0 16 21 139q17 91 100 475q35 175 35 199
q0 30 -24.5 40.5t-110.5 14.5l14 60q74 26 172 44.5t166 20.5q-24 -90 -170 -772q-14 -62 -14 -114q0 -22 7.5 -31.5t28.5 -9.5q32 0 144 32z" />
    <glyph glyph-name="Iogonek" unicode="&#x12e;" horiz-adv-x="702" 
d="M541 0h-236q-90 -90 -125 -151.5t-35 -120.5q0 -53 34 -86t93 -33q66 0 131 26l17 -51q-39 -29 -99 -48t-118 -19q-88 0 -137.5 50t-49.5 128q0 81 53.5 154.5t176.5 150.5h-207l14 76l58 8q59 9 79 25.5t29 64.5l199 1016q6 40 6 55q-2 24 -19.5 36.5t-60.5 18.5l-70 9
l17 75h502l-17 -75l-63 -9q-57 -9 -76.5 -26t-28.5 -64l-198 -1026q0 -1 -3.5 -20t-3.5 -27q0 -23 18.5 -36t59.5 -17l74 -8z" />
    <glyph glyph-name="iogonek" unicode="&#x12f;" horiz-adv-x="585" 
d="M485 76q-109 -64 -204 -86q-90 -84 -126 -144.5t-36 -117.5q0 -50 33.5 -79.5t85.5 -29.5q66 0 131 21l12 -46q-39 -28 -98 -46.5t-115 -18.5q-83 0 -128.5 46t-45.5 118q0 75 48.5 143.5t158.5 140.5h-6q-35 0 -48.5 15t-13.5 53q0 44 21 143l100 469q35 161 35 201
q0 30 -24.5 40.5t-110.5 14.5l14 60q74 26 172 44.5t166 20.5q-22 -75 -72 -309l-96 -453q-16 -73 -16 -124q0 -22 7.5 -31.5t28.5 -9.5q32 0 144 32zM545 1339q0 -53 -31.5 -90t-85.5 -37q-46 0 -76 30t-30 77q0 52 35 88.5t89 36.5q43 0 71 -28t28 -77z" />
    <glyph glyph-name="Idotaccent" unicode="&#x130;" horiz-adv-x="702" 
d="M541 0h-502l14 76l58 8q59 9 79 25.5t29 64.5l199 1016q6 40 6 55q-2 24 -19.5 36.5t-60.5 18.5l-70 9l17 75h502l-17 -75l-63 -9q-57 -9 -76.5 -26t-28.5 -64l-198 -1026q0 -1 -3.5 -20t-3.5 -27q0 -23 18.5 -36t59.5 -17l74 -8zM686 1651q0 -53 -31.5 -90t-85.5 -37
q-46 0 -76 29.5t-30 76.5q0 52 35.5 88.5t89.5 36.5q43 0 70.5 -27.5t27.5 -76.5z" />
    <glyph glyph-name="dotlessi" unicode="&#x131;" horiz-adv-x="585" 
d="M485 76q-167 -99 -290 -99q-34 0 -48 15t-14 53q0 16 21 139q17 91 100 475q35 175 35 199q0 30 -24.5 40.5t-110.5 14.5l14 60q74 26 172 44.5t166 20.5q-24 -90 -170 -772q-14 -62 -14 -114q0 -22 7.5 -31.5t28.5 -9.5q32 0 144 32z" />
    <glyph glyph-name="IJ" unicode="&#x132;" horiz-adv-x="1382" 
d="M541 0h-502l14 76l58 8q59 9 79 25.5t29 64.5l199 1016q6 40 6 55q-2 24 -19.5 36.5t-60.5 18.5l-70 9l17 75h502l-17 -75l-63 -9q-57 -9 -76.5 -26t-28.5 -64l-198 -1026q0 -1 -3.5 -20t-3.5 -27q0 -23 18.5 -36t59.5 -17l74 -8zM582 -252l4 84q54 8 91 17.5t79.5 31.5
t71 55.5t54 89.5t40.5 132l198 1030q8 46 8 59q-2 24 -18.5 36.5t-56.5 16.5l-74 9l14 75h498l-14 -75l-64 -9q-53 -7 -72 -24t-28 -64l-197 -1026q-20 -107 -53 -180t-92.5 -131.5t-155 -89t-233.5 -37.5z" />
    <glyph glyph-name="ij" unicode="&#x133;" horiz-adv-x="1155" 
d="M485 76q-167 -99 -290 -99q-35 0 -48.5 15t-13.5 53q0 44 21 143l100 469q35 161 35 201q0 30 -24.5 40.5t-110.5 14.5l14 60q74 26 172 44.5t166 20.5q-22 -75 -72 -309l-96 -453q-16 -73 -16 -124q0 -22 7.5 -31.5t28.5 -9.5q32 0 144 32zM545 1339q0 -53 -31.5 -90
t-85.5 -37q-46 0 -76 30t-30 77q0 52 35 88.5t89 36.5q43 0 71 -28t28 -77zM340 -250l78 10q14 -59 39 -106q16 -33 53 -33q65 0 111 74q49 73 100 346l117 627q26 150 26 188q0 30 -24.5 41.5t-112.5 15.5l14 60q76 26 174 44.5t164 20.5q-2 -11 -11.5 -66.5t-28 -154
t-40.5 -213.5l-106 -561q-27 -142 -73.5 -253t-102.5 -163q-47 -44 -117 -70t-139 -26q-75 0 -103 12q-18 78 -18 207zM1120 1339q0 -53 -31.5 -90t-87.5 -37q-45 0 -74.5 30t-29.5 77q0 52 34.5 88.5t88.5 36.5q43 0 71.5 -28t28.5 -77z" />
    <glyph glyph-name="Jcircumflex" unicode="&#x134;" horiz-adv-x="677" 
d="M-121 -252l4 84q54 8 91 17.5t79.5 31.5t71 55.5t54 89.5t40.5 132l199 1030q8 46 8 59q-2 24 -19 36.5t-57 16.5l-74 9l15 75h497l-14 -75l-63 -9q-53 -7 -72.5 -24.5t-28.5 -63.5l-196 -1026q-20 -107 -53 -180t-93 -131.5t-155.5 -89t-233.5 -37.5zM322 1489h-132
l332 289h131l234 -289h-121l-188 184z" />
    <glyph glyph-name="jcircumflex" unicode="&#x135;" horiz-adv-x="575" 
d="M-180 -453l14 84q139 19 205 109q53 74 84 237q87 456 127 676q31 174 31 203q0 30 -25 41.5t-113 15.5l15 60q76 26 174 44.5t164 20.5q-6 -26 -25.5 -132.5t-66 -355.5t-99.5 -527q-26 -138 -61.5 -220.5t-89.5 -136.5q-104 -107 -334 -119zM184 1180h-131l312 317h147
l180 -317h-125l-147 209z" />
    <glyph glyph-name="Kcommaaccent" unicode="&#x136;" horiz-adv-x="1347" 
d="M1276 0q-58 -10 -154 -10q-83 0 -131.5 26t-87.5 86q-120 174 -360 611l415 393q115 109 115 156q0 22 -22 32.5t-86 14.5l16 75h442l-14 -75q-37 -2 -84 -25q-50 -21 -133 -96l-467 -426q173 -312 367 -578q42 -56 86 -80.5t112 -27.5zM541 0h-502l14 76l58 8
q59 9 79 25.5t29 64.5l197 1012q8 50 8 61q-2 24 -19 35.5t-61 17.5l-70 11l17 73h502l-17 -73l-63 -11q-56 -7 -76 -24.5t-29 -63.5l-198 -1028q0 -1 -3.5 -20t-3.5 -27q0 -23 18.5 -36t59.5 -17l74 -8zM512 -535l-78 27q123 184 156 389h145q-16 -109 -82 -225.5
t-141 -190.5z" />
    <glyph glyph-name="kcommaaccent" unicode="&#x137;" horiz-adv-x="1024" 
d="M270 0h-168l250 1106q39 163 39 215q0 19 -7.5 29t-37 17t-86.5 7l14 60q52 21 140.5 41t138.5 20q31 0 41 -6.5t10 -30.5q0 -30 -69 -317q-12 -51 -168 -678q54 123 151.5 246.5t198.5 203.5q157 121 270 121q27 0 35 -2q8 -16 8 -53q0 -60 -16 -92q-31 8 -72 8
q-190 0 -344 -193q35 -115 94.5 -268t91.5 -215q30 -59 53 -84.5t58 -25.5q53 0 123 28l-14 -67q-153 -93 -238 -93q-61 0 -96 72q-50 102 -106.5 258.5t-82.5 265.5q-57 -71 -112.5 -218.5t-98.5 -354.5zM332 -535l-78 27q123 184 156 389h145q-16 -109 -82 -225.5
t-141 -190.5z" />
    <glyph glyph-name="kgreenlandic" unicode="&#x138;" horiz-adv-x="1024" 
d="M274 0h-168l148 645q37 154 37 213q0 29 -26.5 41.5t-110.5 13.5l14 58q49 23 135.5 43t142.5 20q29 0 39.5 -6.5t10.5 -28.5t-33 -172q-11 -41 -42 -168t-56 -221q53 128 154.5 264t199.5 213q145 119 274 119q27 0 35 -2q8 -16 8 -53q0 -60 -16 -92q-31 8 -72 8
q-31 0 -66 -8t-81.5 -28.5t-98.5 -64.5t-100 -106q35 -111 93 -256.5t91 -212.5q29 -58 54 -84t61 -26q53 0 123 28l-14 -67q-153 -93 -238 -93q-63 0 -98 72q-51 108 -107 256.5t-84 253.5q-114 -147 -209 -559z" />
    <glyph glyph-name="Lacute" unicode="&#x139;" horiz-adv-x="1202" 
d="M1114 0h-979l15 76l61 8q58 9 76.5 25.5t27.5 66.5l199 1018q6 27 6 51q-2 24 -19.5 36.5t-60.5 18.5l-69 9l16 75h504l-17 -75l-65 -9q-57 -7 -76 -24t-28 -66l-197 -1015q-6 -24 -6 -50t15 -35.5t52 -9.5h322q63 0 97.5 27.5t68.5 105.5l41 99l94 -6
q-12 -86 -36.5 -188.5t-41.5 -137.5zM713 1470h-164l387 293h231z" />
    <glyph glyph-name="lacute" unicode="&#x13a;" horiz-adv-x="571" 
d="M481 76q-173 -99 -284 -99q-34 0 -50 16.5t-16 55.5q0 38 21 141l196 914q39 182 39 217q0 19 -7.5 29t-37 17t-86.5 7l14 60q53 22 138 41.5t135 19.5q31 0 41 -6.5t10 -30.5q0 -10 -11 -60t-31.5 -136.5t-29.5 -124.5l-186 -840q-23 -97 -23 -143q0 -22 8 -31.5
t31 -9.5q49 0 144 30zM516 1556h-164l387 293h232z" />
    <glyph glyph-name="Lcommaaccent" unicode="&#x13b;" horiz-adv-x="1202" 
d="M1018 0h-979l14 76l62 8q58 9 76.5 25.5t27.5 66.5l199 1018q6 27 6 51q-2 24 -19.5 36.5t-60.5 18.5l-70 9l17 75h504l-17 -75l-65 -9q-57 -7 -76.5 -24.5t-28.5 -65.5l-196 -1015q-6 -24 -6 -50t15 -35.5t52 -9.5h322q63 0 97.5 27.5t68.5 105.5l40 99l95 -6
q-12 -86 -36.5 -188.5t-41.5 -137.5zM410 -535l-78 27q122 182 155 389h146q-16 -109 -82 -225.5t-141 -190.5z" />
    <glyph glyph-name="lcommaaccent" unicode="&#x13c;" horiz-adv-x="571" 
d="M481 76q-173 -99 -284 -99q-34 0 -50 16.5t-16 55.5q0 38 21 141l196 914q39 182 39 217q0 19 -7.5 29t-37 17t-86.5 7l14 60q53 22 138 41.5t135 19.5q31 0 41 -6.5t10 -30.5q0 -10 -11 -60t-31.5 -136.5t-29.5 -124.5l-186 -840q-23 -97 -23 -143q0 -22 8 -31.5
t31 -9.5q49 0 144 30zM88 -535l-78 27q123 184 156 389h145q-16 -109 -82 -225.5t-141 -190.5z" />
    <glyph glyph-name="Lcaron" unicode="&#x13d;" horiz-adv-x="1202" 
d="M1018 0h-979l14 76l62 8q58 9 76.5 25.5t27.5 66.5l199 1018q6 27 6 51q-2 24 -19.5 36.5t-60.5 18.5l-70 9l17 75h504l-17 -75l-65 -9q-57 -7 -76.5 -24.5t-28.5 -65.5l-196 -1015q-6 -24 -6 -50t15 -35.5t52 -9.5h322q63 0 97.5 27.5t68.5 105.5l40 99l95 -6
q-12 -86 -36.5 -188.5t-41.5 -137.5zM885 971l-78 28q123 184 156 390h145q-16 -110 -82 -228t-141 -190z" />
    <glyph glyph-name="lcaron" unicode="&#x13e;" horiz-adv-x="571" 
d="M481 76q-173 -99 -284 -99q-34 0 -50 16.5t-16 55.5q0 38 21 141l196 914q39 182 39 217q0 19 -7.5 29t-37 17t-86.5 7l14 60q53 22 138 41.5t135 19.5q31 0 41 -6.5t10 -30.5q0 -10 -11 -60t-31.5 -136.5t-29.5 -124.5l-186 -840q-23 -97 -23 -143q0 -22 8 -31.5
t31 -9.5q49 0 144 30zM690 1061l-78 29q123 184 156 389h145q-16 -110 -82 -228t-141 -190z" />
    <glyph glyph-name="Ldot" unicode="&#x13f;" horiz-adv-x="1202" 
d="M1116 696q0 -55 -35 -92t-92 -37q-48 0 -79 29t-31 80q0 62 38 97.5t89 35.5q45 0 77.5 -29t32.5 -84zM1018 0h-979l14 76l62 8q58 9 76.5 25.5t27.5 66.5l199 1018q6 27 6 51q-2 24 -19.5 36.5t-60.5 18.5l-70 9l17 75h504l-17 -75l-65 -9q-57 -7 -76.5 -24.5
t-28.5 -65.5l-196 -1015q-6 -24 -6 -50t15 -35.5t52 -9.5h322q63 0 97.5 27.5t68.5 105.5l40 99l95 -6q-12 -86 -36.5 -188.5t-41.5 -137.5z" />
    <glyph glyph-name="ldot" unicode="&#x140;" horiz-adv-x="757" 
d="M483 76q-173 -99 -288 -99q-36 0 -52 16.5t-16 55.5q0 53 18 141l205 916q37 173 37 215q0 19 -7 29t-36 17t-86 7l14 60q49 21 138 41t141 20q29 0 39 -6.5t10 -30.5q0 -10 -10.5 -58t-31.5 -136t-30 -127l-190 -846q-23 -109 -23 -137q0 -22 9 -31.5t30 -9.5
q52 0 146 30zM836 713q0 -54 -34.5 -89.5t-90.5 -35.5q-45 0 -75 27.5t-30 76.5q0 61 36.5 96t84.5 35q44 0 76.5 -28.5t32.5 -81.5z" />
    <glyph glyph-name="Lslash" unicode="&#x141;" horiz-adv-x="1202" 
d="M1018 0h-979l14 76l62 8q58 9 76.5 25.5t27.5 66.5l72 367l-185 -103l23 119l184 100l105 535q6 27 6 51q-2 24 -19.5 36.5t-60.5 18.5l-70 9l17 75h504l-17 -75l-65 -9q-57 -7 -76.5 -24.5t-28.5 -65.5l-84 -434l297 164l-24 -117l-295 -164l-90 -464q-6 -24 -6 -50
t15 -35.5t52 -9.5h322q63 0 97.5 27.5t68.5 105.5l40 99l95 -6q-12 -86 -36.5 -188.5t-41.5 -137.5z" />
    <glyph glyph-name="lslash" unicode="&#x142;" horiz-adv-x="571" 
d="M481 76q-173 -99 -284 -99q-34 0 -50 16.5t-16 55.5q0 38 21 141l92 433l-164 -95l22 113l166 94l80 369q39 182 39 217q0 19 -7.5 29t-37 17t-86.5 7l14 60q53 22 138 41.5t135 19.5q31 0 41 -6.5t10 -30.5q0 -10 -11 -60t-31.5 -136.5t-29.5 -124.5l-65 -293l161 92
l-22 -113l-164 -94l-96 -432q-23 -97 -23 -143q0 -22 8 -31.5t31 -9.5q49 0 144 30z" />
    <glyph glyph-name="Nacute" unicode="&#x143;" horiz-adv-x="1472" 
d="M473 0h-434l14 74l60 10q60 9 77 25.5t27 66.5l201 1032q4 28 4 39q0 26 -18.5 36t-65.5 17l-64 9l15 75h373q102 -249 192 -466.5t131.5 -317t74.5 -180t45 -111t19 -53.5q17 95 38 204t61.5 319t81.5 423q4 16 4 43q0 17 -6 29q-14 22 -84 29l-64 6l16 75h428l-14 -75
l-57 -9q-58 -7 -78 -24.5t-29 -65.5l-235 -1210h-158q-126 305 -222 540t-143.5 351t-77 189t-38.5 96t-12 30q-34 -188 -193 -1009q-8 -46 -8 -62q0 -44 92 -53l61 -8zM987 1470h-164l387 293h232z" />
    <glyph glyph-name="nacute" unicode="&#x144;" horiz-adv-x="1116" 
d="M274 0h-168l130 555q53 230 53 303q0 28 -25.5 41t-109.5 14l14 58q49 23 132.5 43t135.5 20q30 0 40.5 -10t10.5 -37q0 -45 -30 -170q-54 -223 -95 -375q61 150 145.5 273t176.5 203q134 116 236 116q50 0 74 -22.5t24 -81.5q0 -58 -29 -203l-90 -434q-20 -97 -20 -141
q0 -22 6.5 -31.5t29.5 -9.5q43 0 144 32l-17 -65q-70 -46 -152.5 -73.5t-133.5 -27.5q-36 0 -51 15t-15 53q0 28 25 150l90 430q35 165 35 206q0 22 -9 32.5t-32 10.5q-72 0 -170 -106q-40 -44 -67 -77.5t-72 -103.5t-78.5 -144.5t-71.5 -191t-66 -251.5zM705 1182h-142
l301 319h213z" />
    <glyph glyph-name="Ncommaaccent" unicode="&#x145;" horiz-adv-x="1472" 
d="M473 0h-434l14 74l60 10q60 9 77 25.5t27 66.5l201 1032q4 28 4 39q0 26 -18.5 36t-65.5 17l-64 9l15 75h373q102 -249 192 -466.5t131.5 -317t74.5 -180t45 -111t19 -53.5q17 95 38 204t61.5 319t81.5 423q4 16 4 43q0 17 -6 29q-14 22 -84 29l-64 6l16 75h428l-14 -75
l-57 -9q-58 -7 -78 -24.5t-29 -65.5l-235 -1210h-158q-126 305 -222 540t-143.5 351t-77 189t-38.5 96t-12 30q-34 -188 -193 -1009q-8 -46 -8 -62q0 -44 92 -53l61 -8zM567 -535l-78 27q123 184 156 389h146q-16 -109 -82.5 -225.5t-141.5 -190.5z" />
    <glyph glyph-name="ncommaaccent" unicode="&#x146;" horiz-adv-x="1116" 
d="M274 0h-168l130 555q53 230 53 303q0 28 -25.5 41t-109.5 14l14 58q49 23 132.5 43t135.5 20q30 0 40.5 -10t10.5 -37q0 -45 -30 -170q-54 -223 -95 -375q61 150 145.5 273t176.5 203q134 116 236 116q50 0 74 -22.5t24 -81.5q0 -58 -29 -203l-90 -434q-20 -97 -20 -141
q0 -22 6.5 -31.5t29.5 -9.5q43 0 144 32l-17 -65q-70 -46 -152.5 -73.5t-133.5 -27.5q-36 0 -51 15t-15 53q0 28 25 150l90 430q35 165 35 206q0 22 -9 32.5t-32 10.5q-72 0 -170 -106q-40 -44 -67 -77.5t-72 -103.5t-78.5 -144.5t-71.5 -191t-66 -251.5zM338 -535l-78 27
q123 184 156 389h145q-16 -109 -82 -225.5t-141 -190.5z" />
    <glyph glyph-name="Ncaron" unicode="&#x147;" horiz-adv-x="1472" 
d="M473 0h-434l14 74l60 10q60 9 77 25.5t27 66.5l201 1032q4 28 4 39q0 26 -18.5 36t-65.5 17l-64 9l15 75h373q102 -249 192 -466.5t131.5 -317t74.5 -180t45 -111t19 -53.5q17 95 38 204t61.5 319t81.5 423q4 16 4 43q0 17 -6 29q-14 22 -84 29l-64 6l16 75h428l-14 -75
l-57 -9q-58 -7 -78 -24.5t-29 -65.5l-235 -1210h-158q-126 305 -222 540t-143.5 351t-77 189t-38.5 96t-12 30q-34 -188 -193 -1009q-8 -46 -8 -62q0 -44 92 -53l61 -8zM1212 1780h142l-334 -291h-139l-236 291h129l187 -181z" />
    <glyph glyph-name="ncaron" unicode="&#x148;" horiz-adv-x="1116" 
d="M274 0h-168l130 555q53 230 53 303q0 28 -25.5 41t-109.5 14l14 58q49 23 132.5 43t135.5 20q30 0 40.5 -10t10.5 -37q0 -45 -30 -170q-54 -223 -95 -375q61 150 145.5 273t176.5 203q134 116 236 116q50 0 74 -22.5t24 -81.5q0 -58 -29 -203l-90 -434q-20 -97 -20 -141
q0 -22 6.5 -31.5t29.5 -9.5q43 0 144 32l-17 -65q-70 -46 -152.5 -73.5t-133.5 -27.5q-36 0 -51 15t-15 53q0 28 25 150l90 430q35 165 35 206q0 22 -9 32.5t-32 10.5q-72 0 -170 -106q-40 -44 -67 -77.5t-72 -103.5t-78.5 -144.5t-71.5 -191t-66 -251.5zM934 1497h133
l-313 -317h-148l-178 317h125l145 -207z" />
    <glyph glyph-name="napostrophe" unicode="&#x149;" horiz-adv-x="1116" 
d="M274 0h-168l130 555q53 230 53 303q0 28 -25.5 41t-109.5 14l14 58q49 23 132.5 43t135.5 20q30 0 40.5 -10t10.5 -37q0 -45 -30 -170q-54 -223 -95 -375q61 150 145.5 273t176.5 203q134 116 236 116q50 0 74 -22.5t24 -81.5q0 -58 -29 -203l-90 -434q-20 -97 -20 -141
q0 -22 6.5 -31.5t29.5 -9.5q43 0 144 32l-17 -65q-70 -46 -152.5 -73.5t-133.5 -27.5q-36 0 -51 15t-15 53q0 28 25 150l90 430q35 165 35 206q0 22 -9 32.5t-32 10.5q-72 0 -170 -106q-40 -44 -67 -77.5t-72 -103.5t-78.5 -144.5t-71.5 -191t-66 -251.5zM285 1128l-78 27
q122 182 155 389h146q-16 -109 -82 -225.5t-141 -190.5z" />
    <glyph glyph-name="Eng" unicode="&#x14a;" horiz-adv-x="1472" 
d="M473 0h-434l14 74l62 10q59 9 76.5 26t27.5 66l199 1032q4 28 4 39q0 26 -18.5 36t-65.5 17l-64 9l15 75h375q27 -73 141.5 -345t216.5 -513t106 -254q9 50 177 930q4 16 4 43q0 17 -6 29q-12 20 -72 26l-76 9l16 75h428l-14 -75l-61 -9q-56 -9 -75 -25.5t-28 -64.5
l-252 -1302q-15 -81 -38 -141t-62 -111.5t-95 -84.5t-136.5 -53.5t-188.5 -25.5l17 100q56 7 97 16.5t86 30t76 51t56.5 80.5t38.5 117l20 107q-36 94 -160 392t-232.5 555.5t-112.5 268.5q-44 -243 -193 -1013q-6 -35 -6 -62q0 -26 24 -36.5t68 -16.5l59 -8z" />
    <glyph glyph-name="eng" unicode="&#x14b;" horiz-adv-x="1116" 
d="M274 0h-168l130 555q53 230 53 303q0 28 -25.5 41t-109.5 14l14 58q49 23 132.5 43t135.5 20q30 0 40.5 -10t10.5 -37q0 -45 -30 -170q-32 -139 -99 -381q62 146 148.5 272t177.5 212q52 48 116 81t120 33q51 0 75.5 -22t24.5 -80q0 -23 -6.5 -69t-24.5 -137.5t-35 -176
t-51 -255t-61 -304.5q-16 -81 -35 -137.5t-55 -114t-86 -94.5t-129.5 -63t-184.5 -34l15 95q92 13 143 40t89.5 92.5t68.5 190.5q20 75 125 592q47 217 47 274q0 22 -9 32.5t-32 10.5q-34 0 -79.5 -28t-90.5 -78q-38 -43 -65.5 -78t-72 -105.5t-78.5 -145t-72 -190
t-67 -249.5z" />
    <glyph glyph-name="Omacron" unicode="&#x14c;" horiz-adv-x="1433" 
d="M1399 903q0 -134 -27 -267.5t-94.5 -270.5t-167.5 -226q-187 -166 -444 -166q-244 0 -377 128.5t-133 381.5q0 222 75.5 428t231.5 340q189 160 450 160q233 0 359.5 -129t126.5 -379zM1198 938q0 174 -74.5 274.5t-234.5 100.5q-173 0 -301 -137q-112 -122 -173 -328
t-61 -393q0 -84 15 -149.5t50.5 -119.5t100.5 -83t158 -29q185 0 309 145q70 80 120 217.5t70.5 265t20.5 236.5zM1219 1534h-578l23 117h577z" />
    <glyph glyph-name="omacron" unicode="&#x14d;" horiz-adv-x="1019" 
d="M969 696q0 -148 -43.5 -292.5t-126.5 -249.5q-147 -181 -367 -181q-149 0 -239.5 82.5t-90.5 247.5q0 158 49.5 311.5t147.5 262.5q144 157 348 157q151 0 236.5 -85.5t85.5 -252.5zM791 733q0 45 -5.5 80t-21 68.5t-47 52t-78.5 18.5q-59 0 -116.5 -35t-94.5 -92
q-67 -99 -108 -257.5t-41 -303.5q0 -98 40.5 -154.5t120.5 -56.5q70 0 133.5 45t102.5 119q50 98 82.5 246.5t32.5 269.5zM961 1235h-527l23 119h526z" />
    <glyph glyph-name="Obreve" unicode="&#x14e;" horiz-adv-x="1433" 
d="M1399 903q0 -134 -27 -267.5t-94.5 -270.5t-167.5 -226q-187 -166 -444 -166q-244 0 -377 128.5t-133 381.5q0 222 75.5 428t231.5 340q189 160 450 160q233 0 359.5 -129t126.5 -379zM1198 938q0 174 -74.5 274.5t-234.5 100.5q-173 0 -301 -137q-112 -122 -173 -328
t-61 -393q0 -84 15 -149.5t50.5 -119.5t100.5 -83t158 -29q185 0 309 145q70 80 120 217.5t70.5 265t20.5 236.5zM1253 1767q-38 -286 -313 -286q-119 0 -182.5 60.5t-63.5 166.5q0 23 4 59h93v-14q0 -154 157 -154q181 0 213 168h92z" />
    <glyph glyph-name="obreve" unicode="&#x14f;" horiz-adv-x="1019" 
d="M969 696q0 -148 -43.5 -292.5t-126.5 -249.5q-147 -181 -367 -181q-149 0 -239.5 82.5t-90.5 247.5q0 158 49.5 311.5t147.5 262.5q144 157 348 157q151 0 236.5 -85.5t85.5 -252.5zM791 733q0 45 -5.5 80t-21 68.5t-47 52t-78.5 18.5q-59 0 -116.5 -35t-94.5 -92
q-67 -99 -108 -257.5t-41 -303.5q0 -98 40.5 -154.5t120.5 -56.5q70 0 133.5 45t102.5 119q50 98 82.5 246.5t32.5 269.5zM989 1479q-19 -154 -91 -233t-210 -79q-119 0 -180.5 63.5t-61.5 178.5q0 33 7 68h86q-2 -8 -2 -27q0 -80 34.5 -121t126.5 -41q52 0 88 13.5t58.5 42
t34.5 58.5t24 77h86z" />
    <glyph glyph-name="Ohungarumlaut" unicode="&#x150;" horiz-adv-x="1433" 
d="M1399 903q0 -134 -27 -267.5t-94.5 -270.5t-167.5 -226q-187 -166 -444 -166q-244 0 -377 128.5t-133 381.5q0 222 75.5 428t231.5 340q189 160 450 160q233 0 359.5 -129t126.5 -379zM1198 938q0 174 -74.5 274.5t-234.5 100.5q-173 0 -301 -137q-112 -122 -173 -328
t-61 -393q0 -84 15 -149.5t50.5 -119.5t100.5 -83t158 -29q185 0 309 145q70 80 120 217.5t70.5 265t20.5 236.5zM758 1489h-144l332 293h211zM1114 1489h-141l332 293h208z" />
    <glyph glyph-name="ohungarumlaut" unicode="&#x151;" horiz-adv-x="1019" 
d="M969 696q0 -148 -43.5 -292.5t-126.5 -249.5q-147 -181 -367 -181q-149 0 -239.5 82.5t-90.5 247.5q0 158 49.5 311.5t147.5 262.5q144 157 348 157q151 0 236.5 -85.5t85.5 -252.5zM791 733q0 45 -5.5 80t-21 68.5t-47 52t-78.5 18.5q-59 0 -116.5 -35t-94.5 -92
q-67 -99 -108 -257.5t-41 -303.5q0 -98 40.5 -154.5t120.5 -56.5q70 0 133.5 45t102.5 119q50 98 82.5 246.5t32.5 269.5zM532 1182h-120l262 319h192zM844 1182h-121l262 319h193z" />
    <glyph glyph-name="OE" unicode="&#x152;" horiz-adv-x="1961" 
d="M999 262l170 875q11 57 11 84q0 88 -215 88q-211 0 -349 -123q-126 -115 -192 -311.5t-66 -393.5q0 -194 89 -297.5t262 -103.5q170 0 229 45q40 30 61 137zM1788 0h-832q-152 -20 -274 -20q-135 0 -237.5 39t-164.5 110.5t-93 165.5t-31 209q0 221 79 420t244 331
q187 150 512 150q118 0 246 -21h717q2 -12 2 -55q0 -96 -31 -248l-96 -4l-6 105q-3 61 -24 81.5t-91 20.5h-317l-101 -520h443l-19 -98h-444l-90 -471q-6 -24 -6 -50t15 -35.5t54 -9.5h320q63 0 99 27.5t69 105.5l38 99l97 -6q-11 -81 -36.5 -185t-41.5 -141z" />
    <glyph glyph-name="oe" unicode="&#x153;" horiz-adv-x="1490" 
d="M1393 104q-115 -77 -212.5 -104t-197.5 -27q-93 0 -146 50.5t-67 140.5q-56 -90 -146.5 -140.5t-189.5 -50.5q-151 0 -240.5 83t-89.5 247q0 159 50 312t149 262q144 157 346 157q226 0 260 -227q61 95 156.5 161t206.5 66q117 0 172 -50t55 -132q0 -153 -147.5 -248
t-417.5 -125q-19 -83 -19 -192q3 -195 146 -195q73 0 168.5 25t183.5 80zM793 733q0 47 -5.5 81.5t-20.5 68t-46.5 51.5t-79.5 18q-57 0 -114.5 -35t-96.5 -92q-66 -99 -106.5 -257.5t-40.5 -303.5q0 -99 39.5 -157t119.5 -58q75 0 136 46t100 122q50 98 82.5 246.5
t32.5 269.5zM942 528q194 42 303 121t109 185q0 59 -19.5 89.5t-81.5 30.5q-46 0 -106 -40t-107 -119q-57 -100 -98 -267z" />
    <glyph glyph-name="Racute" unicode="&#x154;" horiz-adv-x="1318" 
d="M1243 0q-16 -8 -96 -8q-93 0 -150 30t-88 93q-97 192 -204 501q-31 -2 -89 -2h-124l-82 -428q-7 -28 -7 -45q0 -27 16 -39t60 -18l76 -8l-14 -76h-502l14 76l64 10q56 7 73.5 23t26.5 63l201 1024q6 24 6 47q0 25 -17 38t-59 17l-74 11l17 75h491q192 0 285 -36
q182 -71 182 -275q0 -147 -77 -257t-230 -161q-38 -11 -61 -16q129 -316 204 -446q37 -64 76 -88t96 -29zM510 713h129q135 0 219 35q91 36 142 123.5t51 193.5q0 54 -22 99.5t-58 70.5q-67 49 -213 49h-135zM834 1470h-164l387 293h231z" />
    <glyph glyph-name="racute" unicode="&#x155;" horiz-adv-x="819" 
d="M274 0h-168l123 530q60 264 60 332q0 26 -27.5 38t-107.5 13l14 58q50 23 129 43t131 20q32 0 43.5 -10t11.5 -37q0 -30 -28 -158q-16 -80 -80 -329q121 296 223 422q94 112 199 112q35 0 51 -6q8 -20 8 -45q0 -58 -27 -117q-28 4 -57 4q-99 0 -164 -67
q-86 -91 -176.5 -292.5t-157.5 -510.5zM596 1182h-141l301 319h213z" />
    <glyph glyph-name="Rcommaaccent" unicode="&#x156;" horiz-adv-x="1318" 
d="M1243 0q-16 -8 -96 -8q-93 0 -150 30t-88 93q-97 192 -204 501q-31 -2 -89 -2h-124l-82 -428q-7 -28 -7 -45q0 -27 16 -39t60 -18l76 -8l-14 -76h-502l14 76l64 10q56 7 73.5 23t26.5 63l201 1024q6 24 6 47q0 25 -17 38t-59 17l-74 11l17 75h491q192 0 285 -36
q182 -71 182 -275q0 -147 -77 -257t-230 -161q-38 -11 -61 -16q129 -316 204 -446q37 -64 76 -88t96 -29zM510 713h129q135 0 219 35q91 36 142 123.5t51 193.5q0 54 -22 99.5t-58 70.5q-67 49 -213 49h-135zM498 -535l-78 27q122 182 155 389h146q-16 -109 -82 -225.5
t-141 -190.5z" />
    <glyph glyph-name="rcommaaccent" unicode="&#x157;" horiz-adv-x="819" 
d="M274 0h-168l123 530q60 264 60 332q0 26 -27.5 38t-107.5 13l14 58q50 23 129 43t131 20q32 0 43.5 -10t11.5 -37q0 -30 -28 -158q-16 -80 -80 -329q121 296 223 422q94 112 199 112q35 0 51 -6q8 -20 8 -45q0 -58 -27 -117q-28 4 -57 4q-99 0 -164 -67
q-86 -91 -176.5 -292.5t-157.5 -510.5zM25 -535l-78 27q122 182 155 389h146q-16 -109 -82 -225.5t-141 -190.5z" />
    <glyph glyph-name="Rcaron" unicode="&#x158;" horiz-adv-x="1318" 
d="M1243 0q-16 -8 -96 -8q-93 0 -150 30t-88 93q-97 192 -204 501q-31 -2 -89 -2h-124l-82 -428q-7 -28 -7 -45q0 -27 16 -39t60 -18l76 -8l-14 -76h-502l14 76l64 10q56 7 73.5 23t26.5 63l201 1024q6 24 6 47q0 25 -17 38t-59 17l-74 11l17 75h491q192 0 285 -36
q182 -71 182 -275q0 -147 -77 -257t-230 -161q-38 -11 -61 -16q129 -316 204 -446q37 -64 76 -88t96 -29zM510 713h129q135 0 219 35q91 36 142 123.5t51 193.5q0 54 -22 99.5t-58 70.5q-67 49 -213 49h-135zM1038 1780h142l-334 -291h-139l-236 291h129l186 -181z" />
    <glyph glyph-name="rcaron" unicode="&#x159;" horiz-adv-x="819" 
d="M274 0h-168l123 530q60 264 60 332q0 26 -27.5 38t-107.5 13l14 58q50 23 129 43t131 20q32 0 43.5 -10t11.5 -37q0 -30 -28 -158q-16 -80 -80 -329q121 296 223 422q94 112 199 112q35 0 51 -6q8 -20 8 -45q0 -58 -27 -117q-28 4 -57 4q-99 0 -164 -67
q-86 -91 -176.5 -292.5t-157.5 -510.5zM819 1497h133l-313 -317h-147l-179 317h125l146 -207z" />
    <glyph glyph-name="Sacute" unicode="&#x15a;" horiz-adv-x="1124" 
d="M127 373l92 10l17 -68q19 -79 43 -122t75 -70q79 -47 193 -47q143 0 227 64.5t84 193.5q0 66 -43 124.5t-164 129.5l-131 78q-123 71 -176 152t-53 181q0 134 71 228.5t190 139t275 44.5q164 0 299 -53q7 -42 7 -53q-5 -131 -27 -240l-86 -4l-8 49q-12 71 -22 101t-34 53
q-25 23 -80 35t-102 12q-145 0 -229 -65.5t-84 -190.5q0 -68 38.5 -121t151.5 -121l146 -86q121 -71 177 -153.5t56 -184.5q0 -136 -70.5 -231.5t-186 -140t-263.5 -44.5q-212 0 -365 95q-18 95 -18 305zM844 1470h-164l387 293h231z" />
    <glyph glyph-name="sacute" unicode="&#x15b;" horiz-adv-x="798" 
d="M80 262l82 8q19 -75 39 -116q48 -97 168 -97q86 0 137 43t51 117q0 53 -33 96.5t-123 112.5l-65 51q-90 70 -119 130t-29 134q0 42 11 81t39.5 78.5t71.5 68.5t112.5 47t157.5 18q42 0 100 -10t88 -23q10 -29 10 -86q0 -89 -8 -155l-84 -8q-17 97 -35 137q-31 57 -129 57
q-85 0 -132.5 -41t-47.5 -108q0 -55 26.5 -97t98.5 -98l72 -55q100 -78 137 -141t37 -130q0 -138 -99.5 -220.5t-281.5 -82.5q-73 0 -139.5 17t-94.5 37q-18 61 -18 235zM588 1182h-142l302 319h213z" />
    <glyph glyph-name="Scircumflex" unicode="&#x15c;" horiz-adv-x="1124" 
d="M127 373l92 10l17 -68q19 -79 43 -122t75 -70q79 -47 193 -47q143 0 227 64.5t84 193.5q0 66 -43 124.5t-164 129.5l-131 78q-123 71 -176 152t-53 181q0 134 71 228.5t190 139t275 44.5q164 0 299 -53q7 -42 7 -53q-5 -131 -27 -240l-86 -4l-8 49q-12 71 -22 101t-34 53
q-25 23 -80 35t-102 12q-145 0 -229 -65.5t-84 -190.5q0 -68 38.5 -121t151.5 -121l146 -86q121 -71 177 -153.5t56 -184.5q0 -136 -70.5 -231.5t-186 -140t-263.5 -44.5q-212 0 -365 95q-18 95 -18 305zM588 1489h-131l331 289h132l233 -289h-121l-188 184z" />
    <glyph glyph-name="scircumflex" unicode="&#x15d;" horiz-adv-x="798" 
d="M80 262l82 8q19 -75 39 -116q48 -97 168 -97q86 0 137 43t51 117q0 53 -33 96.5t-123 112.5l-65 51q-90 70 -119 130t-29 134q0 42 11 81t39.5 78.5t71.5 68.5t112.5 47t157.5 18q42 0 100 -10t88 -23q10 -29 10 -86q0 -89 -8 -155l-84 -8q-17 97 -35 137q-31 57 -129 57
q-85 0 -132.5 -41t-47.5 -108q0 -55 26.5 -97t98.5 -98l72 -55q100 -78 137 -141t37 -130q0 -138 -99.5 -220.5t-281.5 -82.5q-73 0 -139.5 17t-94.5 37q-18 61 -18 235zM393 1180h-131l311 317h148l180 -317h-125l-147 209z" />
    <glyph glyph-name="Scedilla" unicode="&#x15e;" horiz-adv-x="1124" 
d="M283 -555l4 63q47 8 80.5 15.5t69 21.5t57 31.5t35.5 44.5t14 62q0 46 -39.5 76t-110.5 30l86 184q-194 6 -334 95q-18 95 -18 305l92 10l17 -68q19 -79 43 -122t75 -70q79 -47 193 -47q143 0 227 64.5t84 193.5q0 66 -43 124.5t-164 129.5l-131 78q-123 71 -176 152
t-53 181q0 134 71 228.5t190 139t275 44.5q164 0 299 -53q7 -42 7 -53q-5 -131 -27 -240l-86 -4l-8 49q-12 71 -22 101t-34 53q-25 23 -80 35t-102 12q-145 0 -229 -65.5t-84 -190.5q0 -68 38.5 -121t151.5 -121l146 -86q121 -71 177 -153.5t56 -184.5q0 -97 -36.5 -174.5
t-101.5 -128t-151 -78.5t-188 -33l-47 -100q92 -6 139 -53t47 -111q0 -66 -31.5 -116t-88.5 -81t-128.5 -47.5t-160.5 -21.5z" />
    <glyph glyph-name="scedilla" unicode="&#x15f;" horiz-adv-x="798" 
d="M145 -539l5 62q54 10 91 21t72 29.5t52.5 48t17.5 69.5q0 48 -37 77t-108 29l71 176q-67 3 -125 19.5t-86 34.5q-18 61 -18 235l82 8q19 -75 39 -116q48 -97 168 -97q86 0 137 43t51 117q0 53 -33 96.5t-123 112.5l-65 51q-90 70 -119 130t-29 134q0 42 11 81t39.5 78.5
t71.5 68.5t112.5 47t157.5 18q42 0 100 -10t88 -23q10 -29 10 -86q0 -89 -8 -155l-84 -8q-17 97 -35 137q-31 57 -129 57q-85 0 -132.5 -41t-47.5 -108q0 -55 26.5 -97t98.5 -98l72 -55q100 -78 137 -141t37 -130q0 -130 -87 -210.5t-249 -90.5l-35 -96q90 -6 136 -52
t46 -112q0 -81 -52 -137t-134 -83t-193 -34z" />
    <glyph glyph-name="Scaron" unicode="&#x160;" horiz-adv-x="1124" 
d="M127 373l92 10l17 -68q19 -79 43 -122t75 -70q79 -47 193 -47q143 0 227 64.5t84 193.5q0 66 -43 124.5t-164 129.5l-131 78q-123 71 -176 152t-53 181q0 134 71 228.5t190 139t275 44.5q164 0 299 -53q7 -42 7 -53q-5 -131 -27 -240l-86 -4l-8 49q-12 71 -22 101t-34 53
q-25 23 -80 35t-102 12q-145 0 -229 -65.5t-84 -190.5q0 -68 38.5 -121t151.5 -121l146 -86q121 -71 177 -153.5t56 -184.5q0 -136 -70.5 -231.5t-186 -140t-263.5 -44.5q-212 0 -365 95q-18 95 -18 305zM1044 1780h142l-334 -291h-139l-236 291h129l187 -181z" />
    <glyph glyph-name="scaron" unicode="&#x161;" horiz-adv-x="798" 
d="M80 262l82 8q19 -75 39 -116q48 -97 168 -97q86 0 137 43t51 117q0 53 -33 96.5t-123 112.5l-65 51q-90 70 -119 130t-29 134q0 42 11 81t39.5 78.5t71.5 68.5t112.5 47t157.5 18q42 0 100 -10t88 -23q10 -29 10 -86q0 -89 -8 -155l-84 -8q-17 97 -35 137q-31 57 -129 57
q-85 0 -132.5 -41t-47.5 -108q0 -55 26.5 -97t98.5 -98l72 -55q100 -78 137 -141t37 -130q0 -138 -99.5 -220.5t-281.5 -82.5q-73 0 -139.5 17t-94.5 37q-18 61 -18 235zM791 1497h133l-314 -317h-147l-178 317h125l145 -207z" />
    <glyph glyph-name="uni0162" unicode="&#x162;" horiz-adv-x="1304" 
d="M326 -555l4 63q47 8 80.5 15.5t69 21.5t57 31.5t35.5 44.5t14 62q0 46 -39.5 76t-110.5 30l99 211h-201l14 76l64 8q56 7 76.5 24.5t29.5 65.5l215 1108h-227q-65 0 -94.5 -21t-53.5 -79l-45 -111l-90 6q47 259 76 307h1092q2 -8 2 -38q0 -96 -37 -271l-90 -4l-4 98
q-3 66 -24.5 89.5t-94.5 23.5h-217l-211 -1079q-8 -36 -8 -62q0 -27 15.5 -39t59.5 -18l74 -8l-14 -76h-236l-57 -125q92 -6 139 -53t47 -111q0 -66 -31.5 -116t-88.5 -81t-128.5 -47.5t-160.5 -21.5z" />
    <glyph glyph-name="uni0163" unicode="&#x163;" horiz-adv-x="638" 
d="M72 -539l4 62q54 10 91 21t72 29.5t52.5 48t17.5 69.5q0 48 -37 77t-108 29l74 183q-78 7 -78 90q0 66 20 161l144 658h-150l19 78l55 14q86 20 117 49q32 30 75 141l29 70h96l-57 -248h201l-23 -104h-197l-135 -627q-14 -67 -14 -117q0 -43 55 -43q19 0 73 11.5
t105 29.5l-16 -73q-141 -79 -252 -90l-37 -101q90 -6 136.5 -52t46.5 -112q0 -81 -52 -137t-134 -83t-193 -34z" />
    <glyph glyph-name="Tcaron" unicode="&#x164;" horiz-adv-x="1304" 
d="M842 0h-508l14 76l64 8q56 7 76.5 24.5t29.5 65.5l215 1108h-227q-65 0 -94.5 -21t-53.5 -79l-45 -111l-90 6q47 259 76 307h1092q2 -8 2 -38q0 -96 -37 -271l-90 -4l-4 98q-3 66 -24.5 89.5t-94.5 23.5h-217l-211 -1079q-8 -36 -8 -62q0 -27 15.5 -39t59.5 -18l74 -8z
M1100 1780h141l-334 -291h-139l-236 291h130l186 -181z" />
    <glyph glyph-name="tcaron" unicode="&#x165;" horiz-adv-x="638" 
d="M557 70q-164 -93 -299 -93q-98 0 -98 93q0 66 20 161l144 658h-150l19 78l55 14q86 20 117 49q32 30 75 141l29 70h96l-57 -248h201l-23 -104h-197l-135 -627q-14 -67 -14 -117q0 -43 55 -43q19 0 73 11.5t105 29.5zM686 1057l-78 28q123 184 156 390h145
q-16 -110 -82 -228t-141 -190z" />
    <glyph glyph-name="Tbar" unicode="&#x166;" horiz-adv-x="1304" 
d="M842 0h-508l14 76l64 8q56 7 76.5 24.5t29.5 65.5l105 541h-283l20 100h281l92 467h-227q-65 0 -94.5 -21t-53.5 -79l-45 -111l-90 6q47 259 76 307h1092q2 -8 2 -38q0 -96 -37 -271l-90 -4l-4 98q-3 66 -24.5 89.5t-94.5 23.5h-217l-92 -467h286l-20 -100h-285
l-100 -512q-8 -36 -8 -62q0 -27 15.5 -39t59.5 -18l74 -8z" />
    <glyph glyph-name="tbar" unicode="&#x167;" horiz-adv-x="638" 
d="M551 70q-164 -93 -299 -93q-98 0 -98 93q0 66 20 161l72 334h-127l18 92h129l51 232h-149l18 78l56 14q85 20 116 49q34 31 76 141l29 70h96l-57 -248h200l-22 -104h-197l-51 -232h209l-20 -92h-207l-66 -303q-14 -67 -14 -117q0 -43 55 -43q19 0 73 11.5t105 29.5z" />
    <glyph glyph-name="Utilde" unicode="&#x168;" horiz-adv-x="1490" 
d="M236 1309l16 75h504l-15 -75l-63 -9q-56 -7 -77 -25t-30 -65l-116 -602q-35 -181 -35 -258q0 -133 87 -202.5t226 -69.5q223 0 340 155q84 111 139 398l109 555q8 36 8 61t-18 36.5t-58 16.5l-86 9l15 75h428l-15 -75l-51 -9q-58 -9 -77 -26t-29 -72l-111 -575
q-41 -210 -78 -312t-110 -180q-147 -162 -451 -162q-72 0 -136.5 11.5t-124.5 38.5t-103 68t-69 104t-26 143q0 89 35 264l115 590q6 42 6 51q0 25 -16.5 38t-61.5 19zM754 1493h-99q55 244 201 244q58 0 119 -39l65 -41q41 -25 84 -25q31 0 53 27.5t42 95.5h96
q-23 -127 -70 -183t-121 -56t-129 34l-69 41q-43 25 -72 25q-66 0 -100 -123z" />
    <glyph glyph-name="utilde" unicode="&#x169;" horiz-adv-x="1122" 
d="M1053 78q-167 -101 -295 -101q-58 0 -58 62q0 45 19 156q36 182 88 383q-152 -335 -334 -496q-53 -46 -119.5 -77.5t-120.5 -31.5q-50 0 -75 21.5t-25 75.5q0 57 41 235l84 363q29 136 29 184q0 34 -24 47t-111 14l14 58q66 27 140 45t122 18q31 0 43 -10.5t12 -40.5
q0 -40 -28 -166l-119 -512q-25 -118 -25 -149q0 -39 37 -39q75 0 166 94q274 289 379 797h168l-111 -480q-22 -95 -38.5 -185t-22.5 -135.5t-6 -57.5q0 -39 43 -39q58 0 145 34zM494 1186h-95q24 121 77.5 184.5t123.5 63.5q39 0 107 -43l49 -31q56 -35 82 -35
q34 0 58.5 28.5t45.5 98.5h94q-21 -125 -73 -186.5t-125 -61.5q-57 0 -121 43l-53 35q-46 27 -70 27q-29 0 -56 -32.5t-44 -90.5z" />
    <glyph glyph-name="Umacron" unicode="&#x16a;" horiz-adv-x="1490" 
d="M236 1309l16 75h504l-15 -75l-63 -9q-56 -7 -77 -25t-30 -65l-116 -602q-35 -181 -35 -258q0 -133 87 -202.5t226 -69.5q223 0 340 155q84 111 139 398l109 555q8 36 8 61t-18 36.5t-58 16.5l-86 9l15 75h428l-15 -75l-51 -9q-58 -9 -77 -26t-29 -72l-111 -575
q-41 -210 -78 -312t-110 -180q-147 -162 -451 -162q-72 0 -136.5 11.5t-124.5 38.5t-103 68t-69 104t-26 143q0 89 35 264l115 590q6 42 6 51q0 25 -16.5 38t-61.5 19zM1253 1534h-577l22 117h578z" />
    <glyph glyph-name="umacron" unicode="&#x16b;" horiz-adv-x="1122" 
d="M1053 78q-167 -101 -295 -101q-58 0 -58 62q0 45 19 156q36 182 88 383q-152 -335 -334 -496q-53 -46 -119.5 -77.5t-120.5 -31.5q-50 0 -75 21.5t-25 75.5q0 57 41 235l84 363q29 136 29 184q0 34 -24 47t-111 14l14 58q66 27 140 45t122 18q31 0 43 -10.5t12 -40.5
q0 -40 -28 -166l-119 -512q-25 -118 -25 -149q0 -39 37 -39q75 0 166 94q274 289 379 797h168l-111 -480q-22 -95 -38.5 -185t-22.5 -135.5t-6 -57.5q0 -39 43 -39q58 0 145 34zM967 1235h-527l23 119h526z" />
    <glyph glyph-name="Ubreve" unicode="&#x16c;" horiz-adv-x="1490" 
d="M236 1309l16 75h504l-15 -75l-63 -9q-56 -7 -77 -25t-30 -65l-116 -602q-35 -181 -35 -258q0 -133 87 -202.5t226 -69.5q223 0 340 155q84 111 139 398l109 555q8 36 8 61t-18 36.5t-58 16.5l-86 9l15 75h428l-15 -75l-51 -9q-58 -9 -77 -26t-29 -72l-111 -575
q-41 -210 -78 -312t-110 -180q-147 -162 -451 -162q-72 0 -136.5 11.5t-124.5 38.5t-103 68t-69 104t-26 143q0 89 35 264l115 590q6 42 6 51q0 25 -16.5 38t-61.5 19zM1276 1767q-38 -286 -313 -286q-119 0 -182.5 60.5t-63.5 166.5q0 23 4 59h92v-14q0 -154 158 -154
q181 0 213 168h92z" />
    <glyph glyph-name="ubreve" unicode="&#x16d;" horiz-adv-x="1122" 
d="M1053 78q-167 -101 -295 -101q-58 0 -58 62q0 45 19 156q36 182 88 383q-152 -335 -334 -496q-53 -46 -119.5 -77.5t-120.5 -31.5q-50 0 -75 21.5t-25 75.5q0 57 41 235l84 363q29 136 29 184q0 34 -24 47t-111 14l14 58q66 27 140 45t122 18q31 0 43 -10.5t12 -40.5
q0 -40 -28 -166l-119 -512q-25 -118 -25 -149q0 -39 37 -39q75 0 166 94q274 289 379 797h168l-111 -480q-22 -95 -38.5 -185t-22.5 -135.5t-6 -57.5q0 -39 43 -39q58 0 145 34zM1004 1479q-19 -153 -91.5 -232.5t-210.5 -79.5q-119 0 -180 63.5t-61 178.5q0 38 6 68h86
q-2 -8 -2 -27q0 -79 35 -120.5t127 -41.5q52 0 88 13.5t58.5 42t34.5 58.5t24 77h86z" />
    <glyph glyph-name="Uring" unicode="&#x16e;" horiz-adv-x="1490" 
d="M236 1309l16 75h504l-15 -75l-63 -9q-56 -7 -77 -25t-30 -65l-116 -602q-35 -181 -35 -258q0 -133 87 -202.5t226 -69.5q223 0 340 155q84 111 139 398l109 555q8 36 8 61t-18 36.5t-58 16.5l-86 9l15 75h428l-15 -75l-51 -9q-58 -9 -77 -26t-29 -72l-111 -575
q-41 -210 -78 -312t-110 -180q-147 -162 -451 -162q-72 0 -136.5 11.5t-124.5 38.5t-103 68t-69 104t-26 143q0 89 35 264l115 590q6 42 6 51q0 25 -16.5 38t-61.5 19zM1139 1649q0 -84 -51.5 -137.5t-131.5 -53.5q-74 0 -119.5 45.5t-45.5 116.5q0 84 53.5 137t134.5 53
q75 0 117.5 -43.5t42.5 -117.5zM1075 1647q0 49 -28 77.5t-76 28.5q-52 0 -83.5 -37t-31.5 -94q0 -46 27.5 -76t77.5 -30q51 0 82.5 37t31.5 94z" />
    <glyph glyph-name="uring" unicode="&#x16f;" horiz-adv-x="1122" 
d="M1053 78q-167 -101 -295 -101q-58 0 -58 62q0 45 19 156q36 182 88 383q-152 -335 -334 -496q-53 -46 -119.5 -77.5t-120.5 -31.5q-50 0 -75 21.5t-25 75.5q0 57 41 235l84 363q29 136 29 184q0 34 -24 47t-111 14l14 58q66 27 140 45t122 18q31 0 43 -10.5t12 -40.5
q0 -40 -28 -166l-119 -512q-25 -118 -25 -149q0 -39 37 -39q75 0 166 94q274 289 379 797h168l-111 -480q-22 -95 -38.5 -185t-22.5 -135.5t-6 -57.5q0 -39 43 -39q58 0 145 34zM895 1356q0 -85 -51 -143t-139 -58q-78 0 -125.5 47.5t-47.5 122.5q0 88 55.5 143.5
t139.5 55.5q79 0 123.5 -45.5t44.5 -122.5zM829 1348q0 56 -28 87t-80 31q-56 0 -88.5 -39.5t-32.5 -101.5q0 -50 28 -81.5t83 -31.5q54 0 86 38.5t32 97.5z" />
    <glyph glyph-name="Uhungarumlaut" unicode="&#x170;" horiz-adv-x="1490" 
d="M236 1309l16 75h504l-15 -75l-63 -9q-56 -7 -77 -25t-30 -65l-116 -602q-35 -181 -35 -258q0 -133 87 -202.5t226 -69.5q223 0 340 155q84 111 139 398l109 555q8 36 8 61t-18 36.5t-58 16.5l-86 9l15 75h428l-15 -75l-51 -9q-58 -9 -77 -26t-29 -72l-111 -575
q-41 -210 -78 -312t-110 -180q-147 -162 -451 -162q-72 0 -136.5 11.5t-124.5 38.5t-103 68t-69 104t-26 143q0 89 35 264l115 590q6 42 6 51q0 25 -16.5 38t-61.5 19zM780 1489h-143l332 293h211zM1137 1489h-142l332 293h209z" />
    <glyph glyph-name="uhungarumlaut" unicode="&#x171;" horiz-adv-x="1122" 
d="M1053 78q-167 -101 -295 -101q-58 0 -58 62q0 45 19 156q36 182 88 383q-152 -335 -334 -496q-53 -46 -119.5 -77.5t-120.5 -31.5q-50 0 -75 21.5t-25 75.5q0 57 41 235l84 363q29 136 29 184q0 34 -24 47t-111 14l14 58q66 27 140 45t122 18q31 0 43 -10.5t12 -40.5
q0 -40 -28 -166l-119 -512q-25 -118 -25 -149q0 -39 37 -39q75 0 166 94q274 289 379 797h168l-111 -480q-22 -95 -38.5 -185t-22.5 -135.5t-6 -57.5q0 -39 43 -39q58 0 145 34zM573 1182h-120l262 319h192zM885 1182h-121l262 319h193z" />
    <glyph glyph-name="Uogonek" unicode="&#x172;" horiz-adv-x="1490" 
d="M236 1309l16 75h504l-15 -75l-63 -9q-56 -7 -77 -25t-30 -65l-116 -602q-35 -181 -35 -258q0 -133 87 -202.5t226 -69.5q223 0 340 155q84 111 139 398l109 555q8 36 8 61t-18 36.5t-58 16.5l-86 9l15 75h428l-15 -75l-51 -9q-58 -9 -77 -26t-29 -72l-111 -575
q-41 -210 -78 -312t-110 -180q-141 -156 -434 -162q-74 -77 -104 -133.5t-30 -111.5q0 -53 34 -86t93 -33q66 0 131 26l17 -51q-39 -29 -99 -48t-118 -19q-88 0 -137.5 50t-49.5 128q0 74 45 142t148 138q-84 6 -154 28t-128 63t-91 110.5t-33 161.5q0 89 35 264l115 590
q6 42 6 51q0 25 -16.5 38t-61.5 19z" />
    <glyph glyph-name="uogonek" unicode="&#x173;" horiz-adv-x="1122" 
d="M1053 78q-128 -77 -242 -96q-86 -81 -120 -140t-34 -114q0 -50 33.5 -79.5t85.5 -29.5q66 0 131 21l13 -46q-39 -28 -98 -46.5t-115 -18.5q-83 0 -129 46t-46 118q0 77 48.5 145t158.5 142q-39 5 -39 59q0 45 19 156q36 182 88 383q-152 -335 -334 -496
q-53 -46 -119.5 -77.5t-120.5 -31.5q-50 0 -75 21.5t-25 75.5q0 57 41 235l84 363q29 136 29 184q0 34 -24 47t-111 14l14 58q66 27 140 45t122 18q31 0 43 -10.5t12 -40.5q0 -40 -28 -166l-119 -512q-25 -118 -25 -149q0 -39 37 -39q75 0 166 94q274 289 379 797h168
l-111 -480q-22 -95 -38.5 -185t-22.5 -135.5t-6 -57.5q0 -39 43 -39q58 0 145 34z" />
    <glyph glyph-name="Wcircumflex" unicode="&#x174;" horiz-adv-x="1955" 
d="M582 0h-172l-84 1219q-3 43 -18.5 58.5t-51.5 22.5l-53 9l14 75h481l-14 -75l-90 -11q-38 -3 -54.5 -16t-17.5 -43q0 -37 2 -68q43 -685 54 -958q28 70 117.5 256t420.5 862h164q125 -959 135 -1118q31 89 404 958q24 56 24 93q0 17 -9.5 24t-37.5 10l-98 11l16 75h420
l-16 -75l-50 -9q-38 -6 -59 -23.5t-41 -62.5l-543 -1214h-176q-81 658 -101.5 841.5t-23.5 266.5q-98 -209 -542 -1108zM981 1489h-131l332 289h131l233 -289h-121l-188 184z" />
    <glyph glyph-name="wcircumflex" unicode="&#x175;" horiz-adv-x="1495" 
d="M125 913l14 58q66 28 138.5 45.5t119.5 17.5q31 0 43.5 -11.5t12.5 -43.5q0 -28 -31 -205l-84 -459q-19 -103 -19 -155q0 -49 31 -49q35 0 69 20t87 72q113 110 190.5 315t91.5 400l164 16q-59 -442 -59 -688q0 -70 11.5 -102.5t41.5 -32.5q59 0 170 114
q102 102 167 273.5t65 355.5q0 71 -25 131q23 20 69 34.5t83 14.5q16 -53 16 -123q0 -242 -112 -467t-292 -364q-139 -107 -245 -107q-42 0 -65 22t-32 68q-12 52 -12 156q0 58 21 291q-47 -136 -134.5 -262t-179.5 -193q-116 -82 -211 -82q-43 0 -63.5 25.5t-20.5 81.5
q0 73 23 201l74 428q20 123 20 149q0 27 -27.5 40.5t-109.5 14.5zM702 1180h-131l312 317h147l180 -317h-125l-147 209z" />
    <glyph glyph-name="Ycircumflex" unicode="&#x176;" horiz-adv-x="1318" 
d="M838 0h-504l12 76l64 8q59 9 78 25t28 63l76 389l-283 658q-19 42 -34.5 59.5t-41.5 21.5l-45 9l15 75h489l-14 -75l-94 -11q-36 -5 -52 -14.5t-16 -30.5q0 -33 21 -84q158 -366 208 -495q56 79 390 493q19 24 35 53.5t16 43.5q0 17 -11.5 24t-41.5 10l-95 11l13 75h432
l-15 -75l-43 -9q-27 -6 -50 -24.5t-58 -61.5l-535 -651l-73 -368q-7 -28 -7 -54t16.5 -37.5t59.5 -17.5l72 -10zM645 1489h-131l332 289h131l233 -289h-120l-189 184z" />
    <glyph glyph-name="ycircumflex" unicode="&#x177;" horiz-adv-x="1105" 
d="M70 -199l84 6q20 -110 45 -149q30 -43 120 -43q69 0 131 34t99 91q62 93 121 311q75 283 137 531q-139 -330 -334 -500q-53 -46 -119.5 -77.5t-120.5 -31.5q-49 0 -74.5 22t-25.5 75q0 56 35 211l92 407q27 113 27 160q0 36 -24.5 50t-110.5 15l14 58q155 63 260 63
q31 0 43 -11.5t12 -43.5q0 -43 -26 -160l-115 -491q-29 -126 -29 -172q0 -39 37 -39q33 0 78.5 24t89.5 72q276 305 379 799h168l-115 -516q-93 -407 -108 -457q-51 -179 -104.5 -266.5t-141.5 -147.5q-66 -45 -156 -69.5t-170 -24.5q-120 0 -194 29q-13 29 -13 82
q0 99 9 159zM500 1180h-131l311 317h147l181 -317h-125l-148 209z" />
    <glyph glyph-name="Ydieresis" unicode="&#x178;" horiz-adv-x="1318" 
d="M838 0h-504l12 76l64 8q59 9 78 25t28 63l76 389l-283 658q-19 42 -34.5 59.5t-41.5 21.5l-45 9l15 75h489l-14 -75l-94 -11q-36 -5 -52 -14.5t-16 -30.5q0 -33 21 -84q158 -366 208 -495q56 79 390 493q19 24 35 53.5t16 43.5q0 17 -11.5 24t-41.5 10l-95 11l13 75h432
l-15 -75l-43 -9q-27 -6 -50 -24.5t-58 -61.5l-535 -651l-73 -368q-7 -28 -7 -54t16.5 -37.5t59.5 -17.5l72 -10zM803 1634q0 -46 -30.5 -77t-82.5 -31q-38 0 -65 25t-27 69q0 54 33 86.5t76 32.5q44 0 70 -26t26 -79zM1171 1634q0 -46 -30 -77t-82 -31q-38 0 -65 25t-27 69
q0 54 32.5 86.5t75.5 32.5q44 0 70 -26t26 -79z" />
    <glyph glyph-name="Zacute" unicode="&#x179;" horiz-adv-x="1218" 
d="M1090 0h-1088l14 90q788 929 1018 1192h-512q-71 0 -106.5 -34.5t-73.5 -131.5l-18 -49l-95 6q41 221 84 311h983l-16 -88q-303 -357 -532 -625.5t-342.5 -401t-143.5 -167.5h594q79 0 118 32t85 140l24 58l88 -8q-13 -80 -36.5 -179t-44.5 -145zM850 1470h-164l387 293
h232z" />
    <glyph glyph-name="zacute" unicode="&#x17a;" horiz-adv-x="903" 
d="M10 -6l-49 45q356 383 766 815q-49 -2 -362 -2q-36 0 -62.5 -15.5t-50.5 -56.5q-20 -37 -43 -106l-68 8q19 196 39 260q11 38 33 57t63 19q88 0 299.5 -10.5t292.5 -12.5l54 52l51 -46q-396 -442 -762 -808q25 -3 128.5 -17t181.5 -22.5t114 -8.5q37 0 60 8.5t42 32.5
q25 32 74 127l63 -14q-33 -159 -73 -256q-26 -63 -117 -63q-131 0 -608 77zM618 1182h-141l301 319h213z" />
    <glyph glyph-name="Zdotaccent" unicode="&#x17b;" horiz-adv-x="1218" 
d="M1090 0h-1088l14 90q788 929 1018 1192h-512q-71 0 -106.5 -34.5t-73.5 -131.5l-18 -49l-95 6q41 221 84 311h983l-16 -88q-303 -357 -532 -625.5t-342.5 -401t-143.5 -167.5h594q79 0 118 32t85 140l24 58l88 -8q-13 -80 -36.5 -179t-44.5 -145zM922 1651
q0 -53 -31.5 -90t-85.5 -37q-46 0 -76.5 29.5t-30.5 76.5q0 52 35.5 88.5t89.5 36.5q43 0 71 -27.5t28 -76.5z" />
    <glyph glyph-name="zdotaccent" unicode="&#x17c;" horiz-adv-x="903" 
d="M10 -6l-49 45q356 383 766 815q-49 -2 -362 -2q-36 0 -62.5 -15.5t-50.5 -56.5q-20 -37 -43 -106l-68 8q19 196 39 260q11 38 33 57t63 19q88 0 299.5 -10.5t292.5 -12.5l54 52l51 -46q-396 -442 -762 -808q25 -3 128.5 -17t181.5 -22.5t114 -8.5q37 0 60 8.5t42 32.5
q25 32 74 127l63 -14q-33 -159 -73 -256q-26 -63 -117 -63q-131 0 -608 77zM719 1337q0 -53 -31.5 -90t-85.5 -37q-46 0 -76 30t-30 77q0 52 35.5 88.5t89.5 36.5q43 0 70.5 -28t27.5 -77z" />
    <glyph glyph-name="Zcaron" unicode="&#x17d;" horiz-adv-x="1218" 
d="M1090 0h-1088l14 90q788 929 1018 1192h-512q-71 0 -106.5 -34.5t-73.5 -131.5l-18 -49l-95 6q41 221 84 311h983l-16 -88q-303 -357 -532 -625.5t-342.5 -401t-143.5 -167.5h594q79 0 118 32t85 140l24 58l88 -8q-13 -80 -36.5 -179t-44.5 -145zM1042 1780h142
l-334 -291h-139l-236 291h129l187 -181z" />
    <glyph glyph-name="zcaron" unicode="&#x17e;" horiz-adv-x="903" 
d="M10 -6l-49 45q356 383 766 815q-49 -2 -362 -2q-36 0 -62.5 -15.5t-50.5 -56.5q-20 -37 -43 -106l-68 8q19 196 39 260q11 38 33 57t63 19q88 0 299.5 -10.5t292.5 -12.5l54 52l51 -46q-396 -442 -762 -808q25 -3 128.5 -17t181.5 -22.5t114 -8.5q37 0 60 8.5t42 32.5
q25 32 74 127l63 -14q-33 -159 -73 -256q-26 -63 -117 -63q-131 0 -608 77zM829 1497h134l-314 -317h-147l-178 317h125l145 -207z" />
    <glyph glyph-name="longs" unicode="&#x17f;" horiz-adv-x="555" 
d="M-260 -248l78 8q21 -71 39 -106q16 -33 53 -33q67 0 113 74q50 77 102 346l192 1003q31 162 84.5 260.5t137.5 145.5q88 49 204 49q68 0 121 -20q8 -24 8 -70q0 -54 -4 -160l-84 -6q-18 98 -34 129q-12 23 -28 31t-46 8q-32 0 -61 -22.5t-48 -59.5q-30 -66 -73 -289
l-193 -968q-67 -336 -188 -447q-47 -43 -116.5 -68.5t-135.5 -25.5q-75 0 -103 12q-18 78 -18 209z" />
    <glyph glyph-name="florin" unicode="&#x192;" horiz-adv-x="1067" 
d="M948 729h-262l-125 -608q-33 -166 -86 -246q-101 -147 -305 -147q-112 0 -188 36q-5 35 -5 54q0 88 15 205l90 6l8 -62q10 -90 45 -125q19 -16 53 -16q92 0 138 82q27 63 47 160l131 661h-207l14 88h211l29 146q32 155 86 233q103 152 319 152q119 0 209 -33q6 -35 6 -76
q0 -93 -14 -188l-92 -9l-6 50q-14 104 -45 135q-19 22 -70 22q-101 0 -149 -86q-30 -52 -50 -145l-40 -201h258z" />
    <glyph glyph-name="Aringacute" unicode="&#x1fa;" horiz-adv-x="1335" 
d="M379 0h-434l14 74l49 10q33 6 56.5 25t46.5 59l667 1216h183l190 -1218q7 -43 21 -59.5t45 -22.5l49 -8l-15 -76h-481l14 76l103 10q69 6 69 59q0 10 -6 70l-39 260h-499l-142 -264q-30 -58 -30 -82q0 -21 11.5 -30.5t41.5 -12.5l102 -12zM467 575h432q-87 581 -92 644
q-80 -155 -340 -644zM1059 1599q0 -70 -47.5 -118.5t-122.5 -48.5q-67 0 -109.5 42t-42.5 107q0 57 31.5 99.5t83.5 60.5l240 196h174l-283 -200q76 -36 76 -138zM997 1597q0 45 -24.5 73t-69.5 28q-46 0 -75 -34t-29 -83q0 -41 24.5 -67.5t69.5 -26.5q46 0 75 30.5t29 79.5
z" />
    <glyph glyph-name="aringacute" unicode="&#x1fb;" horiz-adv-x="1130" 
d="M1057 70q-71 -42 -158 -69.5t-135 -27.5q-31 0 -44 16t-13 50q0 54 31 221t79 350q-111 -227 -272 -420q-79 -96 -169 -156.5t-157 -60.5q-129 0 -129 177q0 174 83.5 399.5t193.5 337.5q140 147 378 147q155 0 324 -39q-35 -127 -137 -594q-39 -195 -39 -247
q0 -21 8 -32t33 -11q48 0 137 28zM877 918q-74 28 -179 28q-79 0 -132 -35.5t-99 -107.5q-67 -103 -130 -290.5t-63 -307.5q0 -41 15 -61.5t37 -20.5q34 0 84.5 36.5t99.5 90.5q119 131 218 310t149 358zM967 1356q0 -83 -52.5 -142t-138.5 -59q-78 0 -125 48.5t-47 123.5
q0 61 30 108.5t79 69.5l268 273h193l-312 -267q51 -15 78 -55.5t27 -99.5zM901 1350q0 55 -28.5 85.5t-81.5 30.5q-56 0 -88.5 -39t-32.5 -102q0 -50 28 -81.5t82 -31.5q56 0 88.5 39t32.5 99z" />
    <glyph glyph-name="AEacute" unicode="&#x1fc;" horiz-adv-x="1955" 
d="M393 0h-450l16 76l51 8q36 6 62.5 24t64.5 62l864 1028q11 13 23 34.5t12 33.5q0 28 -47 34l-82 9l17 75h1024q2 -10 2 -55q0 -77 -31 -248l-98 -4l-4 103q-3 61 -24 82.5t-89 21.5h-320l-100 -520h445l-21 -98h-444l-90 -469q-7 -28 -7 -50q0 -27 16 -37t54 -10h319
q63 0 98.5 29.5t69.5 108.5l39 94l97 -6q-14 -92 -38.5 -189.5t-41.5 -136.5h-979l14 76l64 8q59 9 76 24.5t26 67.5l59 299h-510l-231 -285q-37 -50 -37 -71q0 -28 39 -33l107 -10zM616 575h443q12 64 73.5 377.5t67.5 333.5q-142 -187 -584 -711zM1501 1470h-164l387 293
h232z" />
    <glyph glyph-name="aeacute" unicode="&#x1fd;" horiz-adv-x="1499" 
d="M1401 104q-85 -60 -201.5 -95.5t-214.5 -35.5q-124 0 -178.5 71.5t-54.5 207.5q0 145 53 336q-111 -240 -293 -445q-70 -81 -144.5 -125.5t-136.5 -44.5q-141 0 -141 181q0 178 88.5 408.5t200.5 336.5q139 133 315 133q132 0 219 -24l29 67h94l-47 -188q125 147 311 147
q107 0 157 -54t50 -132q0 -145 -153 -242.5t-412 -128.5q-18 -88 -18 -155q0 -42 3 -73t12 -62.5t24.5 -51t42.5 -31.5t65 -12q76 0 169.5 27.5t180.5 75.5zM879 920q-62 26 -177 26q-73 0 -124 -33t-99 -94q-66 -88 -134.5 -286.5t-68.5 -333.5q0 -34 15 -55t35 -21
q90 0 245 190q48 57 103.5 143t116.5 216.5t88 247.5zM952 528q193 41 301.5 121t108.5 195q0 55 -20.5 82.5t-79.5 27.5q-49 0 -102 -33t-97 -102q-75 -120 -111 -291zM1022 1182h-141l301 319h213z" />
    <glyph glyph-name="Oslashacute" unicode="&#x1fe;" horiz-adv-x="1433" 
d="M227 -82l-63 49l112 146q-120 126 -120 370q0 222 75.5 428t231.5 340q189 160 450 160q177 0 299 -80l115 148l66 -49l-117 -152q123 -129 123 -375q0 -134 -27 -267.5t-94.5 -270.5t-167.5 -226q-187 -166 -444 -166q-203 0 -328 88zM1198 938q0 118 -33 197l-739 -959
q79 -102 252 -102q185 0 309 145q70 80 120 217.5t70.5 265t20.5 236.5zM354 455q0 -118 29 -201l739 958q-79 101 -233 101q-173 0 -301 -137q-112 -122 -173 -328t-61 -393zM973 1470h-164l387 293h231z" />
    <glyph glyph-name="oslashacute" unicode="&#x1ff;" horiz-adv-x="1019" 
d="M1001 705q0 -153 -50 -303.5t-142 -256.5q-149 -172 -356 -172q-168 0 -256 87t-88 255q0 167 57 326t168 268q147 144 342 144q325 0 325 -348zM815 727q0 52 -7 91.5t-24 73t-49.5 51.5t-79.5 18q-58 0 -116 -34t-97 -89q-68 -93 -107.5 -247.5t-39.5 -301.5
q0 -108 42.5 -167t127.5 -59q70 0 135.5 47.5t106.5 122.5q50 92 79 233t29 261zM811 -80l-59 47l901 1155l59 -47zM715 1184h-131l301 317h200z" />
    <glyph glyph-name="uni0218" unicode="&#x218;" horiz-adv-x="1124" 
d="M127 373l92 10l17 -68q19 -79 43 -122t75 -70q79 -47 193 -47q143 0 227 64.5t84 193.5q0 66 -43 124.5t-164 129.5l-131 78q-123 71 -176 152t-53 181q0 134 71 228.5t190 139t275 44.5q164 0 299 -53q7 -42 7 -53q-5 -131 -27 -240l-86 -4l-8 49q-12 71 -22 101t-34 53
q-25 23 -80 35t-102 12q-145 0 -229 -65.5t-84 -190.5q0 -68 38.5 -121t151.5 -121l146 -86q121 -71 177 -153.5t56 -184.5q0 -136 -70.5 -231.5t-186 -140t-263.5 -44.5q-212 0 -365 95q-18 95 -18 305zM383 -535l-78 27q123 184 156 389h145q-16 -109 -82 -225.5
t-141 -190.5z" />
    <glyph glyph-name="uni0219" unicode="&#x219;" horiz-adv-x="798" 
d="M74 262l82 8q19 -75 39 -116q48 -97 167 -97q86 0 137.5 43t51.5 117q0 53 -33 96.5t-123 112.5l-65 51q-90 70 -119 130t-29 134q0 42 11 81t39 78.5t71 68.5t112.5 47t157.5 18q42 0 100.5 -10t88.5 -23q10 -29 10 -86q0 -89 -8 -155l-84 -8q-17 97 -35 137
q-31 57 -129 57q-85 0 -132.5 -41t-47.5 -108q0 -55 26.5 -97t98.5 -98l71 -55q100 -78 137.5 -141.5t37.5 -129.5q0 -138 -99.5 -220.5t-281.5 -82.5q-73 0 -139.5 17t-94.5 37q-18 61 -18 235zM211 -535l-78 27q123 184 156 389h145q-16 -109 -82 -225.5t-141 -190.5z" />
    <glyph glyph-name="uni021A" unicode="&#x21a;" horiz-adv-x="1304" 
d="M842 0h-508l14 76l64 8q56 7 76.5 24.5t29.5 65.5l215 1108h-227q-65 0 -94.5 -21t-53.5 -79l-45 -111l-90 6q47 259 76 307h1092q2 -8 2 -38q0 -96 -37 -271l-90 -4l-4 98q-3 66 -24.5 89.5t-94.5 23.5h-217l-211 -1079q-8 -36 -8 -62q0 -27 15.5 -39t59.5 -18l74 -8z
M416 -535l-78 27q123 184 156 389h145q-16 -109 -82 -225.5t-141 -190.5z" />
    <glyph glyph-name="uni021B" unicode="&#x21b;" horiz-adv-x="638" 
d="M551 70q-164 -93 -299 -93q-98 0 -98 93q0 66 20 161l143 658h-149l18 78l56 14q85 20 116 49q34 31 76 141l29 70h96l-57 -248h200l-22 -104h-197l-135 -627q-14 -67 -14 -117q0 -43 55 -43q19 0 73 11.5t105 29.5zM127 -535l-78 27q123 184 156 389h145
q-16 -109 -82 -225.5t-141 -190.5z" />
    <glyph glyph-name="circumflex" unicode="&#x2c6;" horiz-adv-x="399" 
d="M12 1180h-131l312 317h147l180 -317h-125l-147 209z" />
    <glyph glyph-name="caron" unicode="&#x2c7;" horiz-adv-x="399" 
d="M387 1497h133l-313 -317h-148l-178 317h125l146 -207z" />
    <glyph glyph-name="breve" unicode="&#x2d8;" horiz-adv-x="399" 
d="M471 1479q-19 -154 -91 -233t-210 -79q-119 0 -180.5 63.5t-61.5 178.5q0 38 6 68h86q-2 -8 -2 -27q0 -79 35 -120.5t127 -41.5q52 0 88 13.5t58.5 42t34.5 58.5t24 77h86z" />
    <glyph glyph-name="dotaccent" unicode="&#x2d9;" horiz-adv-x="399" 
d="M309 1337q0 -53 -31 -90t-85 -37q-46 0 -76.5 30t-30.5 77q0 52 35.5 88.5t89.5 36.5q43 0 70.5 -28t27.5 -77z" />
    <glyph glyph-name="ring" unicode="&#x2da;" horiz-adv-x="399" 
d="M381 1356q0 -85 -51.5 -143t-139.5 -58q-78 0 -125 47.5t-47 122.5q0 88 55.5 143.5t139.5 55.5q79 0 123.5 -45.5t44.5 -122.5zM315 1348q0 56 -28 87t-80 31q-56 0 -88.5 -39.5t-32.5 -101.5q0 -50 28 -81.5t83 -31.5q54 0 86 38.5t32 97.5z" />
    <glyph glyph-name="ogonek" unicode="&#x2db;" horiz-adv-x="399" 
d="M299 27h43q-115 -100 -160 -168.5t-45 -130.5q0 -50 33.5 -79.5t85.5 -29.5q66 0 131 21l12 -46q-39 -28 -98 -46.5t-115 -18.5q-83 0 -128.5 46t-45.5 118q0 88 66.5 166.5t220.5 167.5z" />
    <glyph glyph-name="tilde" unicode="&#x2dc;" horiz-adv-x="399" 
d="M-25 1186h-94q24 121 77.5 184.5t123.5 63.5q38 0 106 -43l50 -31q56 -35 81 -35q34 0 59 29t46 98h94q-21 -125 -73.5 -186.5t-125.5 -61.5q-56 0 -120 43l-54 35q-46 27 -69 27q-29 0 -56.5 -32.5t-44.5 -90.5z" />
    <glyph glyph-name="hungarumlaut" unicode="&#x2dd;" horiz-adv-x="399" 
d="M-57 1182h-121l262 319h192zM254 1182h-121l262 319h193z" />
    <glyph glyph-name="uni0394" unicode="&#x394;" horiz-adv-x="1396" 
d="M1319 0h-1331l848 1384h178zM1098 152l-219 1065l-629 -1065h848z" />
    <glyph glyph-name="uni03A9" unicode="&#x3a9;" horiz-adv-x="1499" 
d="M662 0h-525q-6 38 -6 86q0 98 19 223l90 6l6 -63q9 -74 36.5 -96.5t100.5 -22.5h174q-145 73 -223 207t-78 307q0 167 58.5 320t177.5 266q184 178 456 178q230 0 362 -122.5t132 -356.5q0 -304 -144 -508q-135 -191 -362 -291h184q70 0 105 22.5t69 96.5l29 63l90 -6
q-32 -168 -82 -309h-532l18 121q101 54 181 122.5t137 168.5q122 213 122 514q0 200 -87.5 294.5t-229.5 94.5q-201 0 -336 -164q-88 -105 -133 -252t-45 -301q0 -95 22.5 -177t60 -140t80.5 -97.5t91 -62.5z" />
    <glyph glyph-name="uni03BC" unicode="&#x3bc;" horiz-adv-x="1155" 
d="M203 -442h-170l227 962q64 268 64 332q0 33 -25.5 46.5t-112.5 14.5l15 58q66 27 140 45t122 18q31 0 43 -10.5t12 -40.5q0 -15 -29 -164q-11 -48 -40 -171t-52 -226q-43 -188 -43 -234q0 -36 13 -56.5t51 -20.5q73 0 155 94q250 294 355 803h170l-113 -480
q-22 -95 -38.5 -185t-22.5 -135.5t-6 -57.5q0 -39 43 -39q58 0 145 34l-19 -67q-167 -101 -292 -101q-58 0 -58 62q0 43 17 139q21 126 75 338q-124 -299 -262 -440q-90 -94 -166 -94q-69 0 -86 55q-10 -40 -50.5 -218.5t-61.5 -260.5z" />
    <glyph glyph-name="pi" unicode="&#x3c0;" horiz-adv-x="1376" 
d="M414 0h-164q134 308 244 874q-107 -3 -211 -86l-39 80q71 69 151.5 104.5t216.5 35.5h772l-28 -134h-174l-105 -542q-20 -105 -20 -162q0 -35 18.5 -55.5t54.5 -20.5q62 0 105 17l20 -78q-103 -58 -196 -58q-77 0 -122.5 36.5t-45.5 115.5q0 66 27 211l104 536h-379
q-59 -301 -120.5 -532t-108.5 -342z" />
    <glyph glyph-name="Wgrave" unicode="&#x1e80;" horiz-adv-x="1955" 
d="M582 0h-172l-84 1219q-3 43 -18.5 58.5t-51.5 22.5l-53 9l14 75h481l-14 -75l-90 -11q-38 -3 -54.5 -16t-17.5 -43q0 -37 2 -68q43 -685 54 -958q28 70 117.5 256t420.5 862h164q125 -959 135 -1118q31 89 404 958q24 56 24 93q0 17 -9.5 24t-37.5 10l-98 11l16 75h420
l-16 -75l-50 -9q-38 -6 -59 -23.5t-41 -62.5l-543 -1214h-176q-81 658 -101.5 841.5t-23.5 266.5q-98 -209 -542 -1108zM1329 1489h-149l-349 280h211z" />
    <glyph glyph-name="wgrave" unicode="&#x1e81;" horiz-adv-x="1495" 
d="M125 913l14 58q66 28 138.5 45.5t119.5 17.5q31 0 43.5 -11.5t12.5 -43.5q0 -28 -31 -205l-84 -459q-19 -103 -19 -155q0 -49 31 -49q35 0 69 20t87 72q113 110 190.5 315t91.5 400l164 16q-59 -442 -59 -688q0 -70 11.5 -102.5t41.5 -32.5q59 0 170 114
q102 102 167 273.5t65 355.5q0 71 -25 131q23 20 69 34.5t83 14.5q16 -53 16 -123q0 -242 -112 -467t-292 -364q-139 -107 -245 -107q-42 0 -65 22t-32 68q-12 52 -12 156q0 58 21 291q-47 -136 -134.5 -262t-179.5 -193q-116 -82 -211 -82q-43 0 -63.5 25.5t-20.5 81.5
q0 73 23 201l74 428q20 123 20 149q0 27 -27.5 40.5t-109.5 14.5zM997 1182h-129l-274 319h199z" />
    <glyph glyph-name="Wacute" unicode="&#x1e82;" horiz-adv-x="1955" 
d="M582 0h-172l-84 1219q-3 43 -18.5 58.5t-51.5 22.5l-53 9l14 75h481l-14 -75l-90 -11q-38 -3 -54.5 -16t-17.5 -43q0 -37 2 -68q43 -685 54 -958q28 70 117.5 256t420.5 862h164q125 -959 135 -1118q31 89 404 958q24 56 24 93q0 17 -9.5 24t-37.5 10l-98 11l16 75h420
l-16 -75l-50 -9q-38 -6 -59 -23.5t-41 -62.5l-543 -1214h-176q-81 658 -101.5 841.5t-23.5 266.5q-98 -209 -542 -1108zM1270 1470h-164l387 293h231z" />
    <glyph glyph-name="wacute" unicode="&#x1e83;" horiz-adv-x="1495" 
d="M125 913l14 58q66 28 138.5 45.5t119.5 17.5q31 0 43.5 -11.5t12.5 -43.5q0 -28 -31 -205l-84 -459q-19 -103 -19 -155q0 -49 31 -49q35 0 69 20t87 72q113 110 190.5 315t91.5 400l164 16q-59 -442 -59 -688q0 -70 11.5 -102.5t41.5 -32.5q59 0 170 114
q102 102 167 273.5t65 355.5q0 71 -25 131q23 20 69 34.5t83 14.5q16 -53 16 -123q0 -242 -112 -467t-292 -364q-139 -107 -245 -107q-42 0 -65 22t-32 68q-12 52 -12 156q0 58 21 291q-47 -136 -134.5 -262t-179.5 -193q-116 -82 -211 -82q-43 0 -63.5 25.5t-20.5 81.5
q0 73 23 201l74 428q20 123 20 149q0 27 -27.5 40.5t-109.5 14.5zM913 1182h-141l301 319h213z" />
    <glyph glyph-name="Wdieresis" unicode="&#x1e84;" horiz-adv-x="1955" 
d="M582 0h-172l-84 1219q-3 43 -18.5 58.5t-51.5 22.5l-53 9l14 75h481l-14 -75l-90 -11q-38 -3 -54.5 -16t-17.5 -43q0 -37 2 -68q43 -685 54 -958q28 70 117.5 256t420.5 862h164q125 -959 135 -1118q31 89 404 958q24 56 24 93q0 17 -9.5 24t-37.5 10l-98 11l16 75h420
l-16 -75l-50 -9q-38 -6 -59 -23.5t-41 -62.5l-543 -1214h-176q-81 658 -101.5 841.5t-23.5 266.5q-98 -209 -542 -1108zM1143 1634q0 -46 -30.5 -77t-82.5 -31q-38 0 -65 25t-27 69q0 54 33 86.5t76 32.5q44 0 70 -26t26 -79zM1511 1634q0 -46 -30 -77t-82 -31q-38 0 -65 25
t-27 69q0 54 32.5 86.5t75.5 32.5q44 0 70 -26t26 -79z" />
    <glyph glyph-name="wdieresis" unicode="&#x1e85;" horiz-adv-x="1495" 
d="M125 913l14 58q66 28 138.5 45.5t119.5 17.5q31 0 43.5 -11.5t12.5 -43.5q0 -28 -31 -205l-84 -459q-19 -103 -19 -155q0 -49 31 -49q35 0 69 20t87 72q113 110 190.5 315t91.5 400l164 16q-59 -442 -59 -688q0 -70 11.5 -102.5t41.5 -32.5q59 0 170 114
q102 102 167 273.5t65 355.5q0 71 -25 131q23 20 69 34.5t83 14.5q16 -53 16 -123q0 -242 -112 -467t-292 -364q-139 -107 -245 -107q-42 0 -65 22t-32 68q-12 52 -12 156q0 58 21 291q-47 -136 -134.5 -262t-179.5 -193q-116 -82 -211 -82q-43 0 -63.5 25.5t-20.5 81.5
q0 73 23 201l74 428q20 123 20 149q0 27 -27.5 40.5t-109.5 14.5zM850 1315q0 -46 -31 -77.5t-84 -31.5q-37 0 -63.5 25t-26.5 67q0 55 32.5 87t76.5 32q43 0 69.5 -25.5t26.5 -76.5zM1198 1315q0 -46 -30.5 -77.5t-82.5 -31.5q-37 0 -64.5 25t-27.5 67q0 55 33 87t78 32
q42 0 68 -25.5t26 -76.5z" />
    <glyph glyph-name="Ygrave" unicode="&#x1ef2;" horiz-adv-x="1318" 
d="M838 0h-504l12 76l64 8q59 9 78 25t28 63l76 389l-283 658q-19 42 -34.5 59.5t-41.5 21.5l-45 9l15 75h489l-14 -75l-94 -11q-36 -5 -52 -14.5t-16 -30.5q0 -33 21 -84q158 -366 208 -495q56 79 390 493q19 24 35 53.5t16 43.5q0 17 -11.5 24t-41.5 10l-95 11l13 75h432
l-15 -75l-43 -9q-27 -6 -50 -24.5t-58 -61.5l-535 -651l-73 -368q-7 -28 -7 -54t16.5 -37.5t59.5 -17.5l72 -10zM973 1489h-150l-348 280h211z" />
    <glyph glyph-name="ygrave" unicode="&#x1ef3;" horiz-adv-x="1105" 
d="M70 -199l84 6q20 -110 45 -149q30 -43 120 -43q69 0 131 34t99 91q62 93 121 311q75 283 137 531q-139 -330 -334 -500q-53 -46 -119.5 -77.5t-120.5 -31.5q-49 0 -74.5 22t-25.5 75q0 56 35 211l92 407q27 113 27 160q0 36 -24.5 50t-110.5 15l14 58q155 63 260 63
q31 0 43 -11.5t12 -43.5q0 -43 -26 -160l-115 -491q-29 -126 -29 -172q0 -39 37 -39q33 0 78.5 24t89.5 72q276 305 379 799h168l-115 -516q-93 -407 -108 -457q-51 -179 -104.5 -266.5t-141.5 -147.5q-66 -45 -156 -69.5t-170 -24.5q-120 0 -194 29q-13 29 -13 82
q0 99 9 159zM788 1182h-129l-274 319h199z" />
    <glyph glyph-name="endash" unicode="&#x2013;" horiz-adv-x="1105" 
d="M1071 504h-965l23 127h967z" />
    <glyph glyph-name="emdash" unicode="&#x2014;" horiz-adv-x="1878" 
d="M1845 504h-1739l25 127h1739z" />
    <glyph glyph-name="quoteleft" unicode="&#x2018;" horiz-adv-x="391" 
d="M418 1466l96 -41q-66 -93 -118 -224.5t-72 -264.5h-168q24 146 97 290.5t165 239.5z" />
    <glyph glyph-name="quoteright" unicode="&#x2019;" horiz-adv-x="391" 
d="M227 936l-96 41q67 94 119 225t72 264h167q-24 -147 -97 -292t-165 -238z" />
    <glyph glyph-name="quotesinglbase" unicode="&#x201a;" horiz-adv-x="391" 
d="M10 -287l-96 41q67 94 119.5 226t72.5 264h166q-24 -146 -97 -291t-165 -240z" />
    <glyph glyph-name="quotedblleft" unicode="&#x201c;" horiz-adv-x="737" 
d="M418 1466l96 -41q-66 -93 -118 -224.5t-72 -264.5h-168q24 146 97 290.5t165 239.5zM764 1466l96 -41q-66 -93 -118 -224.5t-72 -264.5h-168q24 147 97 292t165 238z" />
    <glyph glyph-name="quotedblright" unicode="&#x201d;" horiz-adv-x="737" 
d="M573 936l-96 41q66 95 119 226.5t72 262.5h168q-26 -147 -98.5 -291t-164.5 -239zM227 936l-96 41q67 94 119 225t72 264h167q-24 -147 -97 -292t-165 -238z" />
    <glyph glyph-name="quotedblbase" unicode="&#x201e;" horiz-adv-x="737" 
d="M356 -287l-96 41q67 94 119 225.5t72 264.5h167q-24 -145 -97 -289.5t-165 -241.5zM10 -287l-96 41q67 94 119.5 226t72.5 264h166q-24 -146 -97 -291t-165 -240z" />
    <glyph glyph-name="dagger" unicode="&#x2020;" horiz-adv-x="966" 
d="M465 -111h-146l185 951h-336l29 135h333l80 409h146l-80 -409h336l-29 -135h-334z" />
    <glyph glyph-name="daggerdbl" unicode="&#x2021;" horiz-adv-x="966" 
d="M465 -113h-143l79 418h-335l28 133h334l80 414h-336l29 133h334l77 399h144l-76 -399h336l-29 -133h-334l-80 -414h336l-28 -133h-336z" />
    <glyph glyph-name="bullet" unicode="&#x2022;" horiz-adv-x="700" 
d="M639 567q0 -116 -68.5 -194t-195.5 -78q-107 0 -170.5 64t-63.5 167q0 116 74.5 193.5t187.5 77.5q107 0 171.5 -63.5t64.5 -166.5z" />
    <glyph glyph-name="ellipsis" unicode="&#x2026;" horiz-adv-x="1705" 
d="M377 113q0 -56 -35.5 -92.5t-93.5 -36.5q-48 0 -78.5 28.5t-30.5 79.5q0 62 37.5 97.5t87.5 35.5q47 0 80 -28.5t33 -83.5zM922 113q0 -56 -34.5 -92.5t-92.5 -36.5q-48 0 -79.5 28.5t-31.5 79.5q0 62 38 97.5t89 35.5q46 0 78.5 -28.5t32.5 -83.5zM1468 113
q0 -56 -34.5 -92.5t-92.5 -36.5q-48 0 -79 28.5t-31 79.5q0 62 38 97.5t89 35.5q45 0 77.5 -28.5t32.5 -83.5z" />
    <glyph glyph-name="perthousand" unicode="&#x2030;" horiz-adv-x="2529" 
d="M848 1051q0 -123 -43.5 -254.5t-128.5 -214.5q-103 -103 -256 -103q-129 0 -196.5 73t-67.5 216q0 123 43.5 254.5t132.5 212.5q107 96 256 96q260 0 260 -280zM711 1075q0 100 -36.5 141t-103.5 41q-90 0 -153 -81q-59 -73 -91 -201t-32 -232q0 -192 137 -192
q99 0 162 88q55 78 86 206.5t31 229.5zM559 -10h-92l836 1331h90zM1716 557q0 -124 -43 -255t-129 -214q-102 -102 -256 -102q-129 0 -196.5 72.5t-67.5 215.5q0 124 44 255t134 212q108 97 256 97q258 0 258 -281zM1581 582q0 100 -37 141t-104 41q-91 0 -154 -82
q-59 -73 -91 -200.5t-32 -231.5q0 -193 140 -193q93 0 159 88q57 78 88 207t31 230zM2503 557q0 -124 -43 -255t-129 -214q-102 -102 -256 -102q-129 0 -197 72.5t-68 215.5q0 122 45 254t134 213q108 97 256 97q258 0 258 -281zM2367 582q0 100 -37 141t-104 41
q-90 0 -153 -82q-59 -73 -91 -200.5t-32 -231.5q0 -193 139 -193q94 0 160 88q56 78 87 206.5t31 230.5z" />
    <glyph glyph-name="guilsinglleft" unicode="&#x2039;" horiz-adv-x="671" 
d="M535 150h-150l-252 393l389 375h160l-377 -386z" />
    <glyph glyph-name="guilsinglright" unicode="&#x203a;" horiz-adv-x="671" 
d="M221 918h150l252 -394l-390 -374h-159l377 385z" />
    <glyph glyph-name="fraction" unicode="&#x2044;" horiz-adv-x="174" 
d="M-217 -10h-98l835 1331h94z" />
    <glyph glyph-name="zero.superior" unicode="&#x2070;" 
d="M911 1425q0 -123 -43.5 -254.5t-128.5 -214.5q-102 -102 -256 -102q-129 0 -196.5 73t-67.5 216q0 123 43.5 254.5t132.5 212.5q107 96 256 96q260 0 260 -281zM774 1450q0 100 -36 141t-103 41q-91 0 -154 -82q-59 -73 -91 -200.5t-32 -231.5q0 -192 138 -192
q96 0 159 88q56 80 87.5 208.5t31.5 227.5z" />
    <glyph glyph-name="four.superior" unicode="&#x2074;" 
d="M801 868h-350l12 56l45 6q41 5 54.5 15t19.5 42l22 115h-405l12 57l528 537h117q-23 -89 -43 -197l-59 -315h133l-17 -84h-133l-18 -96q-6 -30 -6 -41q0 -17 9.5 -23.5t37.5 -9.5l51 -6zM618 1184q67 331 80 383q-68 -80 -364 -383h284z" />
    <glyph glyph-name="five.superior" unicode="&#x2075;" 
d="M223 895l17 88q108 -43 213 -43q99 0 165 53.5t66 149.5q0 68 -44.5 108.5t-137.5 40.5q-83 0 -164 -26l104 420h432l-20 -103h-360l-56 -227q54 26 144 26q127 0 187 -58.5t60 -154.5q0 -149 -104 -233t-268 -84q-160 0 -234 43z" />
    <glyph glyph-name="six.superior" unicode="&#x2076;" 
d="M883 1573q-79 39 -164 39q-130 0 -201 -80q-68 -76 -108 -242q34 43 100.5 71t140.5 28q103 0 162 -56t59 -155q0 -144 -91.5 -235t-245.5 -91q-126 0 -201.5 70.5t-75.5 218.5q0 125 41.5 252t130.5 209q108 102 295 102q104 0 176 -41zM401 1253q-12 -74 -12 -133
q0 -196 154 -196q86 0 141 67q57 73 57 180q0 67 -36 106.5t-111 39.5q-89 0 -193 -64z" />
    <glyph glyph-name="seven.superior" unicode="&#x2077;" 
d="M479 846h-112l444 739h-328q-61 0 -82 -24q-15 -17 -36 -70l-15 -31l-63 4q3 34 19.5 111t27.5 113h592l-6 -68z" />
    <glyph glyph-name="eight.superior" unicode="&#x2078;" 
d="M674 1311q84 -29 127 -81t43 -118q0 -67 -29 -118.5t-78.5 -81.5t-110.5 -45t-130 -15q-124 0 -197.5 57.5t-73.5 143.5q0 168 232 219q-62 29 -93.5 80t-31.5 108q0 117 87 180.5t222 63.5q117 0 183.5 -52t66.5 -124q0 -83 -54 -135t-163 -82zM506 1247
q-172 -49 -172 -178q0 -56 47.5 -99.5t126.5 -43.5q92 0 146.5 43.5t54.5 115.5q0 56 -48.5 94t-154.5 68zM625 1335q69 22 111 66t42 108q0 50 -37 87.5t-108 37.5q-78 0 -126 -39t-48 -106q0 -107 166 -154z" />
    <glyph glyph-name="nine.superior" unicode="&#x2079;" 
d="M225 893l19 88q81 -37 168 -37q140 0 209 80q61 71 104 242q-36 -44 -98 -71.5t-138 -27.5q-104 0 -165.5 58.5t-61.5 158.5q0 143 90 231.5t244 88.5q128 0 204.5 -71t76.5 -218q0 -79 -13.5 -156t-53 -163t-101.5 -144q-103 -100 -301 -100q-41 0 -94.5 10.5
t-88.5 30.5zM731 1303q12 55 12 135q0 194 -153 194q-82 0 -135 -59q-62 -65 -62 -180q0 -67 38.5 -110.5t111.5 -43.5q39 0 77 11.5t58.5 22t52.5 30.5z" />
    <glyph glyph-name="parenleft.superior" unicode="&#x207d;" horiz-adv-x="452" 
d="M530 653h-86q-72 74 -124 197.5t-52 261.5q0 205 103.5 380.5t279.5 289.5h97q-369 -294 -369 -672q0 -129 43 -252t108 -205z" />
    <glyph glyph-name="parenright.superior" unicode="&#x207e;" horiz-adv-x="452" 
d="M240 1782h84q74 -71 126 -194t52 -263q0 -205 -104.5 -381.5t-280.5 -290.5h-92q366 302 366 676q0 128 -43 249.5t-108 203.5z" />
    <glyph glyph-name="n.superior" unicode="&#x207f;" horiz-adv-x="770" 
d="M252 496h-131l88 348q33 121 33 186q0 18 -16.5 26.5t-71.5 8.5l10 43q120 39 192 39q23 0 31 -6t8 -23q0 -34 -20 -110q-49 -178 -64 -228q77 181 217 297q86 70 158 70q34 0 51 -14.5t17 -51.5q0 -41 -27 -166l-53 -235q-12 -61 -12 -80q0 -25 24 -25q28 0 94 19
l-10 -45q-51 -32 -109.5 -50t-97.5 -18q-24 0 -34.5 10t-10.5 35q0 29 19 107l59 256q20 94 20 119q0 26 -26 26q-44 0 -107 -63q-31 -32 -55.5 -63.5t-57.5 -87t-63 -137.5t-55 -187z" />
    <glyph glyph-name="zero.inferior" unicode="&#x2080;" 
d="M690 238q0 -123 -43.5 -254.5t-128.5 -214.5q-103 -103 -256 -103q-129 0 -196.5 73t-67.5 216q0 123 43.5 254.5t132.5 212.5q107 96 256 96q260 0 260 -280zM553 262q0 100 -36 141t-103 41q-91 0 -154 -82q-59 -73 -91 -200.5t-32 -231.5q0 -192 137 -192q97 0 160 88
q56 80 87.5 208.5t31.5 227.5z" />
    <glyph glyph-name="one.inferior" unicode="&#x2081;" 
d="M479 -319h-407l10 55l78 6q39 3 53 15.5t20 45.5l105 541q4 20 4 33q0 22 -27 22q-56 0 -118 -4l12 66l299 55q-19 -104 -39 -197l-100 -514q-2 -8 -2 -26t11 -26t38 -11l73 -6z" />
    <glyph glyph-name="two.inferior" unicode="&#x2082;" 
d="M-55 -319l12 75q174 109 340 240q80 63 130 131.5t50 153.5q0 141 -162 141q-97 0 -211 -49l13 78q112 65 254 65q129 0 191.5 -53.5t62.5 -143.5q0 -58 -19 -110.5t-57 -97.5t-77.5 -80t-96.5 -76q-125 -90 -281 -176h326q75 0 92 26q21 32 37 70l12 29l60 -4
q-5 -34 -15.5 -79t-21.5 -89t-13 -51h-626z" />
    <glyph glyph-name="three.inferior" unicode="&#x2083;" 
d="M-33 -293l17 90q111 -43 221 -43q42 0 80.5 8.5t73.5 27.5t56 54.5t21 83.5q0 106 -141 129q-30 6 -88 6h-31l14 80h29q34 0 105 13q59 13 99 52.5t40 100.5q0 50 -31.5 82.5t-103.5 32.5q-108 0 -215 -47l14 80q114 57 250 57q112 0 168.5 -46.5t56.5 -127.5
q0 -93 -64 -149t-169 -80q102 -4 156.5 -50.5t54.5 -126.5q0 -68 -32 -121.5t-85.5 -85t-118 -47.5t-135.5 -16q-148 0 -242 43z" />
    <glyph glyph-name="four.inferior" unicode="&#x2084;" 
d="M580 -319h-351l13 55l45 6q41 4 54 14.5t19 42.5l23 115h-406l13 57l528 537h117q-23 -89 -43 -197l-60 -315h134l-17 -84h-133l-18 -96q-6 -30 -6 -41q0 -17 9.5 -23.5t37.5 -9.5l51 -6zM397 -4q67 331 80 383q-68 -80 -364 -383h284z" />
    <glyph glyph-name="five.inferior" unicode="&#x2085;" 
d="M2 -293l16 88q108 -43 213 -43q99 0 165.5 53.5t66.5 149.5q0 68 -44.5 108.5t-137.5 40.5q-83 0 -164 -26l104 420h432l-20 -103h-361l-55 -227q56 27 143 27q127 0 187.5 -58.5t60.5 -154.5q0 -149 -104 -233.5t-268 -84.5q-160 0 -234 43z" />
    <glyph glyph-name="six.inferior" unicode="&#x2086;" 
d="M662 385q-79 39 -164 39q-130 0 -201 -80q-69 -78 -109 -242q34 43 101 71t141 28q103 0 162 -56t59 -155q0 -143 -92 -234.5t-246 -91.5q-126 0 -201 70.5t-75 218.5q0 125 41.5 252t130.5 209q108 102 295 102q104 0 176 -41zM180 66q-12 -74 -12 -134q0 -196 154 -196
q86 0 141 67q57 73 57 181q0 67 -36 106t-111 39q-91 0 -193 -63z" />
    <glyph glyph-name="seven.inferior" unicode="&#x2087;" 
d="M258 -342h-113l445 739h-328q-61 0 -82 -24q-17 -19 -37 -70l-14 -31l-63 4q3 34 19.5 111t27.5 113h592l-7 -68z" />
    <glyph glyph-name="eight.inferior" unicode="&#x2088;" 
d="M453 123q84 -29 127 -81t43 -118q0 -89 -51.5 -149.5t-127.5 -85.5t-170 -25q-124 0 -197 57.5t-73 143.5q0 168 232 219q-62 29 -93.5 80t-31.5 108q0 117 87 180.5t222 63.5q117 0 183.5 -52t66.5 -124q0 -83 -54 -135t-163 -82zM285 59q-172 -49 -172 -178
q0 -56 47.5 -99.5t126.5 -43.5q92 0 146 44t54 116q0 56 -48 93.5t-154 67.5zM403 147q69 22 111.5 66.5t42.5 108.5q0 50 -37 87t-108 37q-78 0 -126 -39t-48 -106q0 -107 165 -154z" />
    <glyph glyph-name="nine.inferior" unicode="&#x2089;" 
d="M4 -295l19 88q81 -37 167 -37q140 0 209 80q62 73 105 242q-36 -43 -98 -70.5t-138 -27.5q-104 0 -165.5 58.5t-61.5 158.5q0 143 89.5 231t244.5 88q127 0 203.5 -71t76.5 -218q0 -79 -13.5 -156t-53 -163t-101.5 -144q-103 -100 -301 -100q-41 0 -94 10.5t-88 30.5z
M510 115q12 55 12 135q0 194 -153 194q-83 0 -136 -59q-61 -64 -61 -180q0 -67 38.5 -110.5t111.5 -43.5q39 0 77 11.5t58.5 22t52.5 30.5z" />
    <glyph glyph-name="parenleft.inferior" unicode="&#x208d;" horiz-adv-x="452" 
d="M309 -535h-86q-72 74 -124 197.5t-52 261.5q0 205 103.5 380.5t279.5 289.5h96q-368 -294 -368 -672q0 -129 43 -252t108 -205z" />
    <glyph glyph-name="parenright.inferior" unicode="&#x208e;" horiz-adv-x="452" 
d="M18 594h84q74 -71 126.5 -194t52.5 -263q0 -205 -104.5 -381.5t-280.5 -290.5h-93q367 303 367 676q0 128 -43.5 249t-108.5 204z" />
    <glyph glyph-name="Euro" unicode="&#x20ac;" horiz-adv-x="1409" 
d="M1001 508h-444v-51q0 -188 77.5 -285.5t227.5 -97.5q164 0 238 80q37 37 65 98l27 57l88 -8q-5 -47 -31 -136.5t-49 -129.5q-49 -21 -161.5 -41.5t-200.5 -20.5q-243 0 -358 128.5t-115 361.5v45h-168l14 80h160q6 86 24 170h-155l14 80h164q76 231 231 358
q172 141 436 141q87 0 179.5 -13t130.5 -30q4 -10 4 -49q0 -79 -29 -244l-92 -4v54q0 78 -37 129q-23 31 -63.5 46t-114.5 15q-167 0 -281 -108q-109 -107 -170 -295h447l-15 -80h-452q-19 -77 -29 -170h453z" />
    <glyph glyph-name="afii61289" unicode="&#x2113;" horiz-adv-x="833" 
d="M698 31q-134 -58 -260 -58q-239 0 -262 220q-9 72 0 159q-47 -29 -162 -88l23 119q99 51 143 80q15 93 26 152.5t33.5 153t47 160.5t63.5 142t86 131q116 135 289 135q102 0 154.5 -52.5t52.5 -135.5q0 -153 -131 -324q-41 -54 -95 -106t-121 -103.5t-120.5 -88.5
t-132.5 -89q-17 -104 -17 -157q0 -110 45.5 -157.5t128.5 -47.5q103 0 228 55zM344 559q118 82 208.5 160.5t152.5 167.5q98 139 98 248q0 48 -22.5 79t-69.5 31q-103 0 -174 -104q-69 -103 -111 -240.5t-82 -341.5z" />
    <glyph glyph-name="trademark" unicode="&#x2122;" horiz-adv-x="1882" 
d="M645 651h-340l12 58l54 4q29 3 41.5 14.5t17.5 36.5l109 557h-113q-41 0 -57.5 -10.5t-30.5 -44.5l-27 -66l-65 4q22 127 47 180h645v-20q0 -70 -20 -162h-66v60q0 32 -15 45.5t-55 13.5h-118l-101 -514q-8 -36 -8 -53q0 -33 43 -39l59 -6zM1194 651h-293l14 58l48 6
q34 3 47 15t18 38l92 477q6 24 6 43q0 17 -9 24.5t-34 8.5l-57 8l10 55h262q93 -403 107 -479q70 120 301 479h264l-10 -55l-55 -6q-32 -3 -44.5 -14t-17.5 -37l-96 -496q-4 -16 -4 -26q0 -17 10.5 -24.5t34.5 -10.5l59 -6l-12 -58h-338l12 58l45 6q34 3 50 14t22 39l98 510
q-7 -12 -38 -61.5t-107 -170t-186 -292.5h-76q-9 39 -117 526q-19 -117 -94 -496q-4 -24 -4 -45q0 -23 49 -26l55 -4z" />
    <glyph glyph-name="Omega" unicode="&#x2126;" horiz-adv-x="1499" 
d="M662 0h-525q-6 38 -6 86q0 98 19 223l90 6l6 -63q9 -74 36.5 -96.5t100.5 -22.5h174q-145 73 -223 207t-78 307q0 167 58.5 320t177.5 266q184 178 456 178q230 0 362 -122.5t132 -356.5q0 -304 -144 -508q-135 -191 -362 -291h184q70 0 105 22.5t69 96.5l29 63l90 -6
q-32 -168 -82 -309h-532l18 121q101 54 181 122.5t137 168.5q122 213 122 514q0 200 -87.5 294.5t-229.5 94.5q-201 0 -336 -164q-88 -105 -133 -252t-45 -301q0 -95 22.5 -177t60 -140t80.5 -97.5t91 -62.5z" />
    <glyph glyph-name="estimated" unicode="&#x212e;" horiz-adv-x="1742" 
d="M1712 637h-1249q-10 0 -10 -10v-371q0 -23 20 -43q89 -93 210 -144t261 -51q147 0 275.5 57.5t220.5 160.5h114q-108 -123 -268.5 -194t-343.5 -71q-210 0 -387.5 90.5t-281 247.5t-103.5 344t103.5 345t281 249.5t387.5 91.5t387 -91.5t280 -249.5t103 -345v-16z
M1432 686v379q0 21 -21 45q-181 178 -467 178q-292 0 -469 -186q-22 -22 -22 -47v-369q0 -10 10 -10h958q11 0 11 10z" />
    <glyph glyph-name="onethird" unicode="&#x2153;" horiz-adv-x="1644" 
d="M487 -10h-98l836 1331h94zM598 494h-408l11 55l78 6q39 3 53 15.5t20 45.5l105 541q4 20 4 33q0 22 -27 22q-57 0 -119 -4l13 66l299 55q-18 -98 -39 -196l-101 -515q-2 -8 -2 -26t11.5 -26t38.5 -11l73 -6zM926 27l16 90q111 -43 221 -43q42 0 80.5 8.5t74 27.5
t56.5 54.5t21 83.5q0 106 -142 129q-30 6 -88 6h-30l14 80h29q38 0 104 12q58 13 98.5 52.5t40.5 101.5q0 50 -31.5 82t-103.5 32q-108 0 -215 -47l14 80q116 58 250 58q112 0 169 -47t57 -128q0 -93 -64.5 -149t-169.5 -80q102 -4 156.5 -50t54.5 -126q0 -68 -32 -121.5
t-85.5 -85t-118 -47.5t-135.5 -16q-147 0 -241 43z" />
    <glyph glyph-name="twothirds" unicode="&#x2154;" horiz-adv-x="1644" 
d="M588 -10h-99l836 1331h94zM102 494l13 75q174 109 340 240q80 63 130 131.5t50 153.5q0 141 -162 141q-97 0 -211 -49l12 78q112 65 254 65q129 0 191.5 -53t62.5 -143q0 -58 -19.5 -110.5t-57 -98t-77.5 -80.5t-96 -76q-128 -92 -280 -176h326q75 0 92 26q21 32 37 70
l12 29l59 -4q-5 -34 -15 -78.5t-21.5 -90t-12.5 -50.5h-627zM1008 27l16 90q111 -43 221 -43q42 0 80.5 8.5t74 27.5t56.5 54.5t21 83.5q0 106 -142 129q-30 6 -88 6h-30l14 80h29q38 0 104 12q58 13 98.5 52.5t40.5 101.5q0 50 -31.5 82t-103.5 32q-108 0 -215 -47l14 80
q116 58 250 58q112 0 168.5 -47t56.5 -128q0 -93 -64 -149t-169 -80q102 -4 156.5 -50t54.5 -126q0 -68 -32 -121.5t-85.5 -85t-118 -47.5t-135.5 -16q-147 0 -241 43z" />
    <glyph glyph-name="oneeighth" unicode="&#x215b;" horiz-adv-x="1644" 
d="M500 -10h-99l836 1331h94zM616 494h-407l10 55l78 6q39 3 53.5 15.5t20.5 45.5l104 541q4 20 4 33q0 22 -26 22q-57 0 -119 -4l12 66l299 55q-18 -98 -39 -196l-100 -515q-2 -8 -2 -26t11 -26t38 -11l74 -6zM1397 442q84 -29 127 -80.5t43 -117.5q0 -67 -29 -118.5
t-78.5 -81.5t-110.5 -45t-130 -15q-124 0 -197.5 57t-73.5 143q0 168 232 219q-62 29 -93.5 80.5t-31.5 108.5q0 117 87 180.5t222 63.5q117 0 183.5 -52.5t66.5 -124.5q0 -83 -54 -135t-163 -82zM1229 379q-172 -49 -172 -178q0 -57 47.5 -100.5t126.5 -43.5q92 0 146.5 44
t54.5 116q0 56 -48.5 94t-154.5 68zM1348 467q69 22 111 66t42 108q0 50 -37 87.5t-108 37.5q-78 0 -126 -39t-48 -106q0 -107 166 -154z" />
    <glyph glyph-name="threeeighths" unicode="&#x215c;" horiz-adv-x="1644" 
d="M530 -10h-98l836 1331h94zM127 520l16 90q111 -43 222 -43q42 0 80.5 8.5t73.5 27.5t56 54.5t21 83.5q0 106 -141 129q-35 7 -88 7h-31l14 79h29q33 0 104 13q59 13 99.5 52.5t40.5 100.5q0 50 -32 82.5t-104 32.5q-108 0 -215 -47l15 80q114 57 250 57
q112 0 168.5 -46.5t56.5 -127.5q0 -93 -64.5 -149t-169.5 -80q102 -4 156.5 -50t54.5 -126q0 -68 -32 -122t-85.5 -85.5t-117.5 -47.5t-135 -16q-148 0 -242 43zM1409 442q84 -29 127 -80.5t43 -117.5q0 -67 -29 -118.5t-78.5 -81.5t-110.5 -45t-130 -15q-124 0 -197 57
t-73 143q0 168 231 219q-62 29 -93.5 80.5t-31.5 108.5q0 117 87 180.5t222 63.5q117 0 183.5 -52.5t66.5 -124.5q0 -83 -54 -135t-163 -82zM1241 379q-172 -49 -172 -178q0 -57 47.5 -100.5t126.5 -43.5q92 0 146.5 44t54.5 116q0 56 -48.5 94t-154.5 68zM1360 467
q69 22 111 66t42 108q0 50 -37 87.5t-108 37.5q-78 0 -126 -39t-48 -106q0 -107 166 -154z" />
    <glyph glyph-name="fiveeighths" unicode="&#x215d;" horiz-adv-x="1644" 
d="M535 -10h-99l836 1331h94zM147 520l17 88q108 -43 213 -43q99 0 165 53.5t66 149.5q0 68 -45 109t-137 41q-80 0 -164 -27l105 420h432l-21 -103h-360l-56 -227q56 27 144 27q127 0 187.5 -58.5t60.5 -154.5q0 -149 -104.5 -233.5t-268.5 -84.5q-160 0 -234 43zM1415 442
q84 -29 127 -80.5t43 -117.5q0 -67 -29 -118.5t-78.5 -81.5t-110.5 -45t-130 -15q-124 0 -197 57t-73 143q0 168 231 219q-62 29 -93.5 80.5t-31.5 108.5q0 117 87 180.5t222 63.5q117 0 183.5 -52.5t66.5 -124.5q0 -83 -54 -135t-163 -82zM1247 379q-172 -49 -172 -178
q0 -57 47.5 -100.5t126.5 -43.5q92 0 146.5 44t54.5 116q0 56 -48.5 94t-154.5 68zM1366 467q69 22 111.5 66t42.5 108q0 50 -37.5 87.5t-108.5 37.5q-78 0 -126 -39t-48 -106q0 -107 166 -154z" />
    <glyph glyph-name="seveneighths" unicode="&#x215e;" horiz-adv-x="1644" 
d="M455 -10h-99l836 1331h94zM420 471h-113l445 739h-328q-61 0 -82 -24q-17 -19 -37 -70l-14 -31l-64 5q3 34 19.5 110.5t27.5 112.5h592l-6 -68zM1352 442q84 -29 127 -80.5t43 -117.5q0 -67 -29 -118.5t-78.5 -81.5t-110.5 -45t-130 -15q-124 0 -197.5 57t-73.5 143
q0 168 232 219q-62 29 -93.5 80.5t-31.5 108.5q0 117 87 180.5t222 63.5q117 0 183.5 -52.5t66.5 -124.5q0 -83 -54 -135t-163 -82zM1184 379q-172 -49 -172 -178q0 -57 47.5 -100.5t126.5 -43.5q92 0 146 44t54 116q0 56 -48 94t-154 68zM1303 467q69 22 111 66t42 108
q0 50 -37 87.5t-108 37.5q-78 0 -126 -39t-48 -106q0 -107 166 -154z" />
    <glyph glyph-name="arrowleft" unicode="&#x2190;" horiz-adv-x="1546" 
d="M1532 764v-143q-1000 0 -1147 2q323 -323 514 -512l-96 -97l-686 678l686 678l94 -92l-512 -516q145 2 1147 2z" />
    <glyph glyph-name="arrowup" unicode="&#x2191;" horiz-adv-x="1546" 
d="M913 0h-143q0 999 2 1149q-19 -20 -59 -60.5t-170 -170t-283 -283.5l-98 96l680 682l678 -682l-95 -98q-159 161 -285.5 287t-169.5 169t-59 60q2 -147 2 -1149z" />
    <glyph glyph-name="arrowright" unicode="&#x2192;" horiz-adv-x="1546" 
d="M147 621v143q1004 0 1149 -2q-14 13 -514 516l97 92l682 -678l-682 -678l-97 97q156 155 284 283t170 169.5t60 59.5q-150 -2 -1149 -2z" />
    <glyph glyph-name="arrowdown" unicode="&#x2193;" horiz-adv-x="1558" 
d="M764 1384h143q0 -995 -2 -1138q15 16 58.5 59t167 166.5l284.5 284.5l94 -97l-671 -677l-676 677l96 95q101 -101 192.5 -192t139 -138t87 -86.5t58.5 -59t31 -32.5q-2 145 -2 1138z" />
    <glyph glyph-name="uni2196" unicode="&#x2196;" horiz-adv-x="1546" 
d="M1415 266l-100 -102l-811 811q0 -12 -1 -84t-2 -237t-1 -404h-135v964h962v-137q-607 0 -725 -4q312 -306 813 -807z" />
    <glyph glyph-name="uni2197" unicode="&#x2197;" horiz-adv-x="1546" 
d="M369 164l-103 102q634 631 813 807q-118 4 -725 4v137h963v-964h-133q0 239 -1 404t-2 237t-1 84z" />
    <glyph glyph-name="uni2198" unicode="&#x2198;" horiz-adv-x="1546" 
d="M274 1130l101 101q190 -190 393 -392t288.5 -287.5t129.5 -131.5q0 12 1 84t2 237t1 404h135v-963h-963v137q223 0 388.5 0.5t244.5 1.5t92 1q-265 260 -813 808z" />
    <glyph glyph-name="uni2199" unicode="&#x2199;" horiz-adv-x="1546" 
d="M1307 1231l102 -101q-444 -444 -815 -808q12 0 91 -1t245.5 -1.5t390.5 -0.5v-137h-965v963h138q0 -239 1 -404t2 -237t1 -84q43 44 131 132.5t284 284.5z" />
    <glyph glyph-name="partialdiff" unicode="&#x2202;" horiz-adv-x="1056" 
d="M297 1083q32 156 68 234q137 63 317 63q182 0 277.5 -88.5t95.5 -285.5q0 -204 -66.5 -450t-189.5 -396q-72 -88 -171 -137.5t-218 -49.5q-163 0 -247.5 84.5t-84.5 223.5q0 110 43.5 218.5t124.5 188.5q131 131 348 131q79 0 151.5 -30.5t102.5 -81.5q39 144 39 307
q0 130 -54.5 200t-181.5 70q-114 0 -166 -49q-33 -29 -77 -115l-23 -49zM825 606q-20 55 -80.5 86t-144.5 31q-78 0 -140.5 -32.5t-103.5 -86.5q-51 -65 -82.5 -155t-31.5 -177q0 -96 53 -149t137 -53q78 0 143 40.5t107 112.5q39 68 79 173t64 210z" />
    <glyph glyph-name="Delta" unicode="&#x2206;" horiz-adv-x="1396" 
d="M1319 0h-1331l848 1384h178zM1098 152l-219 1065l-629 -1065h848z" />
    <glyph glyph-name="product" unicode="&#x220f;" horiz-adv-x="1509" 
d="M494 -205h-490l16 76l60 8q58 9 77.5 25.5t28.5 62.5l240 1241q4 24 4 37q0 24 -18.5 36.5t-61.5 18.5l-65 9l16 75h1294l-16 -75l-66 -9q-54 -7 -72.5 -24.5t-27.5 -63.5l-239 -1230q-7 -42 -7 -45q0 -26 17.5 -39t58.5 -19l72 -8l-17 -76h-487l16 76l58 8
q60 10 80.5 29.5t29.5 68.5l236 1219q6 42 6 49q0 20 -11.5 28.5t-39.5 8.5h-502q-39 0 -54.5 -15.5t-23.5 -56.5l-239 -1228q-5 -35 -5 -45q0 -26 16.5 -39t59.5 -19l70 -8z" />
    <glyph glyph-name="summation" unicode="&#x2211;" horiz-adv-x="1277" 
d="M1040 -199h-1087l18 88l654 711l-330 698l18 86h932q8 -50 8 -92q0 -112 -18 -223l-96 -4l-6 59q-8 89 -32.5 118.5t-92.5 29.5h-510l309 -649l-614 -666h628q74 0 113 29.5t80 115.5l28 62l95 -8q-18 -99 -45.5 -198.5t-51.5 -156.5z" />
    <glyph glyph-name="minus" unicode="&#x2212;" horiz-adv-x="1359" 
d="M1212 520h-985l25 117h985z" />
    <glyph glyph-name="uni2215" unicode="&#x2215;" horiz-adv-x="161" 
d="M-217 -10h-98l835 1331h94z" />
    <glyph glyph-name="uni2219" unicode="&#x2219;" horiz-adv-x="444" 
d="M381 541q0 -58 -36.5 -95.5t-96.5 -37.5q-49 0 -81 29.5t-32 82.5q0 64 39 100.5t90 36.5q48 0 82.5 -30t34.5 -86z" />
    <glyph glyph-name="radical" unicode="&#x221a;" horiz-adv-x="1314" 
d="M633 -367h-144l-208 594l-160 -63l-27 80l314 123l196 -568l717 1579h119z" />
    <glyph glyph-name="infinity" unicode="&#x221e;" horiz-adv-x="1449" 
d="M780 662q97 107 183 159.5t182 52.5q112 0 179 -72.5t67 -191.5q0 -135 -86 -237.5t-224 -102.5q-63 0 -117 26t-95 68.5t-95 116.5q-103 -110 -184.5 -160.5t-177.5 -50.5q-115 0 -184.5 68.5t-69.5 189.5q0 138 88.5 242t232.5 104q89 0 155 -49.5t146 -162.5zM709 571
q-75 107 -123 149t-119 42q-83 0 -139 -62.5t-56 -150.5q0 -77 42 -122.5t112 -45.5t135.5 47t147.5 143zM850 573q65 -104 121.5 -148t122.5 -44q84 0 137 64t53 153q0 77 -42 121.5t-114 44.5q-61 0 -127 -45.5t-151 -145.5z" />
    <glyph glyph-name="integral" unicode="&#x222b;" horiz-adv-x="780" 
d="M-94 -143l80 6l6 -39q4 -45 14 -66q14 -37 62 -37q64 0 102 36t59 128q4 20 9.5 48t11.5 61.5t8 46.5l152 858q22 131 34 184q72 324 371 324q92 0 154 -29q6 -24 6 -43q0 -61 -19 -172l-86 -6l-4 33q-6 50 -20 80q-15 30 -64 30q-65 0 -102.5 -35t-56.5 -126
q-20 -90 -31 -152l-146 -842q-21 -122 -36 -194q-75 -336 -371 -336q-99 0 -152 27q-4 10 -4 45q0 88 23 170z" />
    </font>
</defs>
</svg>
