<svg width="6" height="11" viewBox="0 0 6 11" fill="none" xmlns="http://www.w3.org/2000/svg">
<path d="M0.964285 0.985211C0.883928 0.985211 0.793526 1.02539 0.733258 1.08566L0.231026 1.58789C0.170758 1.64816 0.13058 1.73856 0.13058 1.81892C0.13058 1.89927 0.170758 1.98968 0.231026 2.04994L4.17857 5.99749L0.231026 9.94503C0.170758 10.0053 0.13058 10.0957 0.13058 10.1761C0.13058 10.2665 0.170758 10.3468 0.231026 10.4071L0.733258 10.9093C0.793526 10.9696 0.883928 11.0098 0.964285 11.0098C1.04464 11.0098 1.13504 10.9696 1.19531 10.9093L5.87612 6.22852C5.93638 6.16825 5.97656 6.07785 5.97656 5.99749C5.97656 5.91713 5.93638 5.82673 5.87612 5.76646L1.19531 1.08566C1.13504 1.02539 1.04464 0.985211 0.964285 0.985211Z" fill="#48AD96"/>
<path d="M0.733258 1.08566L0.556482 0.90888L0.556481 0.908881L0.733258 1.08566ZM0.231026 1.58789L0.407802 1.76467L0.407803 1.76467L0.231026 1.58789ZM0.231026 2.04994L0.0542484 2.22672L0.0542489 2.22672L0.231026 2.04994ZM4.17857 5.99749L4.35535 6.17426L4.53212 5.99749L4.35535 5.82071L4.17857 5.99749ZM0.231026 9.94503L0.0542492 9.76826L0.0542492 9.76826L0.231026 9.94503ZM0.231026 10.4071L0.0542492 10.5839L0.0542492 10.5839L0.231026 10.4071ZM0.733259 10.9093L0.910036 10.7325L0.910035 10.7325L0.733259 10.9093ZM1.19531 10.9093L1.01854 10.7325L1.01854 10.7325L1.19531 10.9093ZM5.87612 6.22852L6.05289 6.40529L6.05289 6.40529L5.87612 6.22852ZM5.87612 5.76646L6.05289 5.58968L6.05289 5.58968L5.87612 5.76646ZM1.19531 1.08566L1.37209 0.908881L1.37209 0.90888L1.19531 1.08566ZM0.964285 0.735211C0.81068 0.735211 0.658484 0.806879 0.556482 0.90888L0.910034 1.26243C0.916493 1.25598 0.927629 1.24792 0.941443 1.24187C0.947926 1.23904 0.953672 1.23724 0.958168 1.23621C0.962733 1.23518 0.964808 1.23521 0.964285 1.23521L0.964285 0.735211ZM0.556481 0.908881L0.0542488 1.41111L0.407803 1.76467L0.910035 1.26243L0.556481 0.908881ZM0.0542498 1.41111C-0.0477552 1.51312 -0.119421 1.66531 -0.11942 1.81892L0.38058 1.81892C0.38058 1.81944 0.380545 1.81736 0.381582 1.8128C0.382604 1.8083 0.384406 1.80256 0.387242 1.79607C0.393285 1.78226 0.401343 1.77113 0.407802 1.76467L0.0542498 1.41111ZM-0.11942 1.81892C-0.11942 1.97252 -0.0477547 2.12472 0.0542484 2.22672L0.407803 1.87317C0.401344 1.86671 0.393286 1.85557 0.387242 1.84176C0.384406 1.83528 0.382604 1.82953 0.381582 1.82503C0.380545 1.82047 0.38058 1.81839 0.38058 1.81892L-0.11942 1.81892ZM0.0542489 2.22672L4.00179 6.17426L4.35535 5.82071L0.407803 1.87317L0.0542489 2.22672ZM4.00179 5.82071L0.0542492 9.76826L0.407803 10.1218L4.35535 6.17426L4.00179 5.82071ZM0.0542492 9.76826C-0.0477544 9.87026 -0.11942 10.0225 -0.11942 10.1761L0.38058 10.1761C0.38058 10.1766 0.380546 10.1745 0.381583 10.1699C0.382605 10.1654 0.384406 10.1597 0.387242 10.1532C0.393286 10.1394 0.401344 10.1283 0.407803 10.1218L0.0542492 9.76826ZM-0.11942 10.1761C-0.11942 10.3437 -0.0445634 10.4851 0.0542492 10.5839L0.407803 10.2303C0.38608 10.2086 0.38058 10.1892 0.38058 10.1761L-0.11942 10.1761ZM0.0542492 10.5839L0.556482 11.0861L0.910035 10.7325L0.407803 10.2303L0.0542492 10.5839ZM0.556481 11.0861C0.658485 11.1881 0.810682 11.2598 0.964285 11.2598L0.964285 10.7598C0.964808 10.7598 0.962732 10.7598 0.958167 10.7588C0.953671 10.7577 0.947925 10.7559 0.941443 10.7531C0.927629 10.7471 0.916494 10.739 0.910036 10.7325L0.556481 11.0861ZM0.964285 11.2598C1.11789 11.2598 1.27009 11.1881 1.37209 11.0861L1.01854 10.7325C1.01208 10.739 1.00094 10.7471 0.987128 10.7531C0.980646 10.7559 0.974899 10.7577 0.970404 10.7588C0.965838 10.7598 0.963762 10.7598 0.964285 10.7598L0.964285 11.2598ZM1.37209 11.0861L6.05289 6.40529L5.69934 6.05174L1.01854 10.7325L1.37209 11.0861ZM6.05289 6.40529C6.1549 6.30329 6.22656 6.15109 6.22656 5.99749L5.72656 5.99749C5.72656 5.99696 5.7266 5.99904 5.72556 6.00361C5.72454 6.0081 5.72274 6.01385 5.7199 6.02033C5.71386 6.03414 5.7058 6.04528 5.69934 6.05174L6.05289 6.40529ZM6.22656 5.99749C6.22656 5.84388 6.1549 5.69169 6.05289 5.58968L5.69934 5.94324C5.7058 5.9497 5.71386 5.96083 5.7199 5.97465C5.72274 5.98113 5.72454 5.98687 5.72556 5.99137C5.7266 5.99593 5.72656 5.99801 5.72656 5.99749L6.22656 5.99749ZM6.05289 5.58968L1.37209 0.908881L1.01853 1.26243L5.69934 5.94324L6.05289 5.58968ZM1.37209 0.90888C1.27009 0.806879 1.11789 0.735211 0.964285 0.735211L0.964285 1.23521C0.963761 1.23521 0.965837 1.23518 0.970402 1.23621C0.974898 1.23724 0.980644 1.23904 0.987126 1.24187C1.00094 1.24792 1.01208 1.25598 1.01854 1.26243L1.37209 0.90888Z" fill="#47AD96"/>
</svg>
