<?xml version="1.0" encoding="UTF-8"?>
<svg id="Layer_1" data-name="Layer 1" xmlns="http://www.w3.org/2000/svg" viewBox="0 0 361.27 83.05">
  <defs>
    <style>
      .cls-1 {
        fill: #1e4262;
      }

      .cls-2 {
        fill: #47ad96;
      }
    </style>
  </defs>
  <polygon class="cls-1" points="81.74 2.27 81.74 82.05 103.77 55.46 134.93 55.46 81.74 2.27"/>
  <polygon class="cls-2" points="81.74 2.27 41.85 42.22 28.56 28.92 1.96 55.46 59.72 55.45 81.74 2.27"/>
  <path class="cls-1" d="M150.49,54.81c-1.35-.56-2.43-1.38-3.24-2.46-.81-1.09-1.23-2.39-1.28-3.92h6.05c.09,.86,.39,1.52,.9,1.98,.51,.46,1.17,.68,2,.68s1.51-.2,2-.58c.49-.39,.73-.93,.73-1.61,0-.58-.2-1.05-.58-1.43-.39-.38-.86-.69-1.43-.93-.57-.24-1.37-.52-2.41-.83-1.51-.47-2.74-.93-3.69-1.4-.95-.47-1.77-1.15-2.46-2.06-.69-.91-1.03-2.1-1.03-3.56,0-2.17,.79-3.87,2.36-5.1,1.57-1.23,3.63-1.85,6.15-1.85s4.64,.61,6.22,1.85c1.57,1.23,2.41,2.94,2.53,5.14h-6.15c-.04-.75-.32-1.34-.83-1.78-.51-.43-1.16-.65-1.96-.65-.69,0-1.24,.19-1.66,.55-.42,.36-.63,.89-.63,1.58,0,.75,.35,1.35,1.06,1.76,.71,.42,1.82,.87,3.32,1.37,1.51,.51,2.73,1,3.67,1.46,.94,.47,1.76,1.14,2.45,2.03,.69,.88,1.03,2.03,1.03,3.42s-.34,2.54-1.02,3.63c-.68,1.08-1.66,1.95-2.94,2.59-1.29,.64-2.81,.96-4.56,.96s-3.24-.28-4.59-.83h0Z"/>
  <polygon class="cls-1" points="193.28 32.07 193.28 55.41 187.6 55.41 187.6 45.8 178.75 45.8 178.75 55.41 173.07 55.41 173.07 32.07 178.75 32.07 178.75 41.22 187.6 41.22 187.6 32.07 193.28 32.07"/>
  <rect class="cls-1" x="203.36" y="32.07" width="5.69" height="23.34"/>
  <polygon class="cls-1" points="232.69 55.41 224.84 45.11 224.84 55.41 219.15 55.41 219.15 32.07 224.84 32.07 224.84 42.31 232.62 32.07 239.3 32.07 230.26 43.51 239.64 55.41 232.69 55.41"/>
  <polyline class="cls-1" points="268.53 55.41 262.85 55.41 262.85 45.8 254 45.8 254 55.41 248.32 55.41 248.32 32.07 254 32.07 254 41.22 262.85 41.22 262.85 32.07 268.53 32.07 268.53 55.41"/>
  <path class="cls-1" d="M293.14,51.29h-8.71l-1.4,4.12h-5.95l8.45-23.34h6.59l8.45,23.34h-6.02l-1.4-4.12Zm-1.46-4.39l-2.89-8.54-2.86,8.54h5.75Z"/>
  <path class="cls-1" d="M321.01,55.41l-4.85-8.81h-1.37v8.81h-5.69v-23.34h9.54c1.84,0,3.41,.32,4.7,.96,1.3,.64,2.27,1.52,2.91,2.64,.64,1.12,.96,2.37,.96,3.74,0,1.55-.44,2.94-1.31,4.16-.87,1.22-2.16,2.09-3.87,2.59l5.39,9.24h-6.42Zm-6.22-12.83h3.53c1.04,0,1.82-.25,2.34-.76,.52-.51,.78-1.23,.78-2.16s-.26-1.58-.78-2.1c-.52-.51-1.3-.77-2.34-.77h-3.53v5.79Z"/>
  <path class="cls-1" d="M351.3,51.29h-8.71l-1.4,4.12h-5.95l8.45-23.34h6.59l8.45,23.34h-6.02l-1.4-4.12Zm-1.46-4.39l-2.89-8.54-2.86,8.54h5.75Z"/>
</svg>