<svg width="11" height="6" viewBox="0 0 11 6" fill="none" xmlns="http://www.w3.org/2000/svg">
<path d="M10.0148 0.964285C10.0148 0.883928 9.97461 0.793526 9.91434 0.733259L9.41211 0.231026C9.35184 0.170759 9.26144 0.13058 9.18108 0.13058C9.10073 0.13058 9.01032 0.170759 8.95006 0.231026L5.00251 4.17857L1.05497 0.231026C0.994699 0.170759 0.904297 0.13058 0.82394 0.13058C0.733538 0.13058 0.653181 0.170759 0.592913 0.231026L0.0906808 0.733259C0.030413 0.793526 -0.00976556 0.883928 -0.00976556 0.964285C-0.00976556 1.04464 0.030413 1.13504 0.0906808 1.19531L4.77148 5.87612C4.83175 5.93638 4.92215 5.97656 5.00251 5.97656C5.08287 5.97656 5.17327 5.93638 5.23354 5.87612L9.91434 1.19531C9.97461 1.13504 10.0148 1.04464 10.0148 0.964285Z" fill="#333132"/>
</svg>
