<svg width="165" height="37" viewBox="0 0 165 37" fill="none" xmlns="http://www.w3.org/2000/svg">
<g clip-path="url(#clip0_2001_204)">
<path d="M36.8989 0V37L47.0871 24.6667H61.4983L36.8989 0Z" fill="white"/>
<path d="M36.899 0L18.4444 18.5257L12.2997 12.359L0 24.6667L26.7108 24.6615L36.899 0Z" fill="white"/>
<path d="M68.6935 24.3684C68.0682 24.1114 67.566 23.7311 67.197 23.2275C66.8229 22.7239 66.6282 22.1175 66.6025 21.4084H69.4007C69.4417 21.8092 69.5801 22.1175 69.8158 22.3282C70.0516 22.5389 70.3591 22.6468 70.7383 22.6468C71.1175 22.6468 71.4353 22.5543 71.6608 22.3745C71.8863 22.1946 71.999 21.9428 71.999 21.6242C71.999 21.357 71.9068 21.136 71.7274 20.9613C71.548 20.7866 71.3277 20.6427 71.0663 20.5296C70.8049 20.4166 70.4308 20.2881 69.9542 20.1442C69.2572 19.9284 68.6884 19.7125 68.2476 19.4967C67.8069 19.2809 67.4276 18.9623 67.1099 18.5409C66.7922 18.1195 66.6333 17.5696 66.6333 16.8913C66.6333 15.8841 66.9971 15.0927 67.7249 14.5223C68.4526 13.9518 69.4007 13.6641 70.5692 13.6641C71.7376 13.6641 72.7165 13.9467 73.4442 14.5223C74.172 15.0927 74.5614 15.8892 74.6127 16.9067H71.7684C71.7479 16.5573 71.6198 16.2849 71.384 16.0845C71.1483 15.8841 70.8459 15.7813 70.4769 15.7813C70.1592 15.7813 69.9029 15.8686 69.7082 16.0382C69.5135 16.2078 69.4161 16.4545 69.4161 16.768C69.4161 17.1174 69.5801 17.3898 69.9081 17.585C70.2361 17.7803 70.7485 17.991 71.4455 18.2171C72.1425 18.4535 72.7114 18.6796 73.147 18.8955C73.5826 19.1113 73.9618 19.4248 74.2796 19.8359C74.5973 20.247 74.7562 20.7763 74.7562 21.4238C74.7562 22.0713 74.5973 22.6006 74.2847 23.1042C73.9721 23.6078 73.5211 24.0086 72.9215 24.3067C72.327 24.6048 71.6249 24.7538 70.8152 24.7538C70.0054 24.7538 69.3187 24.6253 68.6935 24.3684Z" fill="white"/>
<path d="M88.4859 13.8184V24.646H85.8569V20.1854H81.7672V24.646H79.1382V13.8184H81.7672V18.0579H85.8569V13.8184H88.4859Z" fill="white"/>
<path d="M95.7785 13.8184H93.1494V24.646H95.7785V13.8184Z" fill="white"/>
<path d="M106.715 24.646L103.081 19.8668V24.646H100.452V13.8184H103.081V18.5667L106.684 13.8184H109.774L105.587 19.1217L109.928 24.646H106.715Z" fill="white"/>
<path d="M123.294 13.8184V24.646H120.665V20.1854H116.57V24.646H113.941V13.8184H116.57V18.0579H120.665V13.8184H123.294Z" fill="white"/>
<path d="M134.671 22.7343H130.643L129.997 24.646H127.245L131.15 13.8184H134.194L138.1 24.646H135.317L134.671 22.7343ZM133.995 20.6993L132.657 16.7372L131.335 20.6993H133.995Z" fill="white"/>
<path d="M147.56 24.646L145.316 20.5606H144.685V24.646H142.056V13.8184H146.469C147.319 13.8184 148.047 13.9674 148.647 14.2654C149.246 14.5635 149.692 14.9746 149.995 15.4885C150.292 16.0075 150.44 16.5882 150.44 17.2254C150.44 17.9449 150.235 18.5872 149.831 19.1525C149.426 19.7178 148.831 20.1186 148.037 20.355L150.528 24.6409H147.56V24.646ZM144.685 18.6952H146.315C146.797 18.6952 147.155 18.577 147.401 18.3406C147.642 18.1042 147.765 17.7702 147.765 17.3385C147.765 16.9068 147.647 16.6036 147.401 16.3672C147.161 16.1309 146.797 16.0127 146.315 16.0127H144.685V18.6952Z" fill="white"/>
<path d="M161.571 22.7343H157.543L156.898 24.646H154.146L158.051 13.8184H161.095L165 24.646H162.217L161.571 22.7343ZM160.895 20.6993L159.557 16.7372L158.235 20.6993H160.895Z" fill="white"/>
</g>
<defs>
<clipPath id="clip0_2001_204">
<rect width="165" height="37" fill="white"/>
</clipPath>
</defs>
</svg>
