<svg width="37" height="30" viewBox="0 0 37 30" fill="none" xmlns="http://www.w3.org/2000/svg">
<path d="M10.6474 0.454998L16.5424 7.7C15.4024 8.21 14.3824 8.795 13.4824 9.45499C12.6124 10.115 11.9374 10.955 11.4574 11.975C10.9774 12.965 10.7374 14.255 10.7374 15.845L0.882422 15.62C0.882422 12.68 1.40742 10.205 2.45742 8.19499C3.53742 6.155 4.82742 4.505 6.32742 3.245C7.85742 1.985 9.29742 1.055 10.6474 0.454998ZM16.1824 15.62V29.075H0.882422V15.62H16.1824ZM31.0324 0.454998L36.9274 7.7C35.8174 8.21 34.8124 8.795 33.9124 9.45499C33.0124 10.115 32.3224 10.955 31.8424 11.975C31.3624 12.965 31.1224 14.255 31.1224 15.845L21.2674 15.62C21.2674 12.68 21.7924 10.205 22.8424 8.19499C23.9224 6.155 25.2124 4.505 26.7124 3.245C28.2424 1.985 29.6824 1.055 31.0324 0.454998ZM36.5674 15.62V29.075H21.2674V15.62H36.5674Z" fill="#D4E2EB"/>
</svg>
